<svg xmlns="http://www.w3.org/2000/svg" width="40" height="46" viewBox="0 0 40 46"><g><g><path d="M39.705 10.633v1.278c0 2.732-1.92 4.92-4.667 5.32l-12.4 1.758c-1.836.267-3.073 1.655-3.073 3.455v4.964c0 .52-.414.942-.927.942a.934.934 0 0 1-.927-.942v-4.964c0-2.732 1.92-4.92 4.667-5.32l12.399-1.757c1.836-.268 3.073-1.656 3.073-3.456v-1.278c0-1.687-1.038-3.013-2.52-3.41v1.962c0 1.3-1.07 2.439-2.286 2.439H4.075c-1.174 0-2.128-1.094-2.128-2.439V6.967H1.02a.934.934 0 0 1-.927-.941c0-.52.414-.942.927-.942h.927V2.968c0-1.273.855-2.64 2.128-2.64h28.969c1.287 0 2.285 1.42 2.285 2.64v2.33c2.515.438 4.376 2.617 4.376 5.335zm-6.23-7.665c0-.329-.312-.72-.453-.759l-28.947.002c-.067.046-.273.398-.273.757v6.217c0 .334.194.557.273.557h28.969c.137 0 .43-.264.43-.557zM22.346 31.393v13.179c0 .52-.415.94-.927.94h-5.564a.934.934 0 0 1-.927-.94v-13.18c0-.52.415-.94.927-.94h5.564c.512 0 .927.42.927.94zm-1.854.941h-3.71V43.63h3.71z"/></g></g></svg>