<svg xmlns="http://www.w3.org/2000/svg" width="44" height="37" viewBox="0 0 44 37"><g><g><path d="M43.94 14.234c0 10.469-6.526 19.733-15.516 22.031a6.218 6.218 0 0 1-1.573.185h-9.22c-.578 0-1.094-.061-1.575-.186C7.069 33.967.544 24.703.544 14.234c0-4.586 1.307-9 3.885-13.12A.918.918 0 0 1 5.208.68h34.067c.316 0 .61.163.78.435 2.577 4.12 3.884 8.534 3.884 13.12zm-1.848 0c0-4.06-1.12-7.985-3.329-11.673H5.72C3.51 6.25 2.39 10.175 2.39 14.234c0 9.464 6.07 18.148 14.116 20.204.334.086.702.129 1.126.129h9.22c.423 0 .79-.043 1.12-.126 8.052-2.059 14.12-10.743 14.12-20.207zm-1.203-.856a.93.93 0 0 1-.923.94c-2.469 0-4.712-1.073-5.913-2.728-1.204 1.653-3.447 2.728-5.916 2.728-2.47 0-4.712-1.073-5.914-2.728-1.203 1.653-3.446 2.728-5.915 2.728-2.47 0-4.714-1.073-5.915-2.728-1.201 1.653-3.445 2.728-5.914 2.728a.93.93 0 0 1-.923-.94c0-.52.413-.942.923-.942 2.285 0 4.274-1.126 4.84-2.738.336-.947 1.813-.947 2.149-.003.564 1.615 2.555 2.741 4.84 2.741 2.285 0 4.274-1.126 4.84-2.738.336-.95 1.813-.943 2.148-.003.567 1.615 2.556 2.741 4.841 2.741s4.274-1.126 4.84-2.738c.334-.947 1.813-.947 2.149-.003.566 1.615 2.555 2.741 4.84 2.741.51 0 .923.422.923.942zM30.577 22.87c.586 1.288.541 2.976.534 3.188a.954.954 0 0 1-.328.685.918.918 0 0 1-.716.212c-.763-.102-2.563-1.319-3.576-2.08-2.3 1.969-4.515 2.965-6.59 2.965-3.346 0-5.382-2.518-6.361-3.728-.617-.758-.617-1.725-.076-2.388 1.055-1.306 3.091-3.823 6.436-3.823 2.076 0 4.29.996 6.59 2.966 1.014-.762 2.814-1.979 3.577-2.082a.92.92 0 0 1 .716.214c.198.17.317.419.328.683.007.214.052 1.902-.534 3.188zm-4.628 0a.777.777 0 0 1-.11-.086c-2.16-1.99-4.158-3-5.939-3-2.474 0-4.075 1.98-4.934 3.042.859 1.151 2.46 3.132 4.934 3.132 1.78 0 3.779-1.01 5.94-3 .034-.032.072-.061.11-.088zm2.818-.55c.173-.243.292-.615.371-1.013-.83.53-1.8 1.222-2.022 1.438a.965.965 0 0 1-.153.122.95.95 0 0 1 .16.136c.217.212 1.18.896 2.013 1.427-.077-.397-.198-.767-.37-1.01a.96.96 0 0 1 0-1.1zm-10.349-.65a.956.956 0 0 1 .278.677.95.95 0 0 1-.26.66.957.957 0 0 1-.663.281.953.953 0 0 1-.648-.263.972.972 0 0 1-.276-.678c0-.245.092-.49.276-.659.352-.358.961-.358 1.293-.018z"/></g></g></svg>