<svg xmlns="http://www.w3.org/2000/svg" width="46" height="46" viewBox="0 0 46 46"><g><g><path d="M45.328 10.623c-.385 1.576-3.151 1.794-5.609 1.66-.959 1.494-2.88 3.927-4.548 3.808-1.454-.122-4.659.161-5.533.548-.067.765-.078 3.347.052 7.79.013.486-.147 1.134-.37 2.03-.271 1.093-.61 2.457-.552 3.426.027.431.19 3.796-.933 4.859-.247 1.031-.582 5.257-.803 9.312h5.718a.95.95 0 1 1 0 1.902h-6.72a.95.95 0 0 1-.95-.999c.323-6.439.595-9.296.916-10.604L18.9 27.129c.048.855.169 1.616.295 1.948.654.384.994 2.296 1.485 15.897a.955.955 0 0 1-.952.984h-6.72a.95.95 0 1 1 0-1.902h5.733c-.228-5.97-.59-12.24-.853-13.552-1.084-1.1-.924-4.402-.898-4.828.07-1.18-.569-1.755-.597-1.78a.988.988 0 0 1-.34-.766c.108-2.56.158-5.578.067-6.491-.872-.385-4.073-.67-5.53-.548-1.724.15-3.592-2.316-4.551-3.808-2.452.134-5.224-.085-5.608-1.66C.297 10.08.412 9.564.756 9.17c.377-.43.972-.627 1.539-.708.007-.025.017-.05.024-.076.229-.627.892-.876 1.437-.9a.86.86 0 0 1 .578.164c1.38.935 6.003.885 8.594.632 2.393.163 5.943-.096 6.86-1.21.15-.184.303-.467.147-1.033-.484-1.75-.348-3.111.405-4.049C21.284.813 22.77.842 22.926.86c.09-.015 1.552-.04 2.492 1.131.753.938.89 2.299.408 4.047-.158.57-.006.853.145 1.035 1.007 1.225 4.942 1.339 6.694 1.21 2.758.256 7.378.305 8.759-.632a.872.872 0 0 1 .578-.165c.545.025 1.209.274 1.437.901.007.026.017.05.024.076.567.08 1.162.278 1.54.708.344.394.459.91.325 1.453zm-3.205-.285a.95.95 0 0 1-.824-.56l-.001-.005c-2.919.921-8.001.466-8.654.404-.48.048-6.231.42-8.144-1.896-.433-.528-.876-1.432-.51-2.751.3-1.084.284-1.917-.05-2.342-.343-.437-1.022-.427-1.024-.43-.085 0-.747-.014-1.098.43-.333.425-.35 1.258-.049 2.344.365 1.317-.078 2.221-.51 2.749-1.91 2.316-7.667 1.948-8.31 1.896-.51.067-5.57.522-8.488-.404l-.002.005a.94.94 0 0 1-.965.557 4.37 4.37 0 0 0-.416-.019h-.004c.825.084 2.149.127 3.4.032.357-.023.7.15.889.459 1.05 1.74 2.539 3.388 3.065 3.39.061-.01 6.867-.32 7.486 1.696.258.85.14 4.841.057 6.909.272.327.543.81.724 1.403l8.057 8.204c.101-.67.168-1.551.116-2.409-.076-1.26.301-2.78.604-4 .144-.574.322-1.29.315-1.516-.225-7.673-.013-8.363.056-8.59.62-2.017 7.422-1.707 7.493-1.697.522-.002 2.011-1.65 3.06-3.39.186-.31.53-.49.888-.46.99.075 2.025.066 2.839-.009z"/></g></g></svg>