<svg xmlns="http://www.w3.org/2000/svg" width="44" height="46" viewBox="0 0 44 46"><g><g><path d="M25.064 24.097c0-.526.418-.952.934-.952h8.843c.516 0 .934.426.934.952 0 5.485 3.817 16.584 3.856 16.694a.959.959 0 0 1-.57 1.216.92.92 0 0 1-.31.054.936.936 0 0 1-.88-.635c-.11-.318-1.9-5.533-3.035-10.664h-6.757a.942.942 0 0 1-.933-.952c0-.527.417-.952.933-.952h6.365c-.251-1.353-.436-2.655-.505-3.808h-7.941a.943.943 0 0 1-.934-.953zm18.662 20.946a.942.942 0 0 1-.933.952H1.738a.942.942 0 0 1-.933-.952c0-.526.417-.952.933-.952h41.055c.515 0 .933.426.933.952zM.369 12.045c0-2.228 1.294-4.483 3.778-4.828a4.851 4.851 0 0 1 .173-3.525C5.097 1.942 6.746.854 8.627.854c1.412 0 2.711.643 3.588 1.702a4.655 4.655 0 0 1 3.59-1.702c1.879 0 3.528 1.088 4.304 2.838a4.85 4.85 0 0 1 .175 3.52c1.332.18 2.419.919 3.1 2.123.904 1.598.902 3.75-.007 5.356-.683 1.21-1.768 1.952-3.096 2.137a4.835 4.835 0 0 1 .156 2.509h1.921c.516 0 .933.425.933.952 0 5.485 5.11 20.214 5.161 20.362a.956.956 0 0 1-.565 1.216.931.931 0 0 1-1.192-.578c-.152-.44-2.758-7.948-4.247-14.335h-8.506a.942.942 0 0 1-.933-.952c0-.527.418-.952.933-.952h8.094c-.283-1.407-.492-2.715-.573-3.809h-1.816c-.922 1.27-2.43 1.939-3.884 1.939-1.443 0-2.704-.613-3.56-1.674-.192.23-.41.429-.638.616-.692 6.944-4.82 18.914-4.998 19.431a.936.936 0 0 1-.88.634.937.937 0 0 1-.312-.055.958.958 0 0 1-.568-1.215c.04-.117 3.785-10.969 4.764-17.831a4.568 4.568 0 0 1-.944.107c-1.881 0-3.53-1.088-4.307-2.84a4.852 4.852 0 0 1-.175-3.52C1.663 16.495.37 14.258.37 12.045zm1.867 0c0 1.22.796 3.37 3.367 2.842a.93.93 0 0 1 .991.459.969.969 0 0 1-.109 1.103 2.89 2.89 0 0 0-.464 3.12c.368.832 1.246 1.72 2.606 1.72 1.226 0 2.312-.81 2.702-2.013a.933.933 0 0 1 .886-.653c.402 0 .76.263.885.653.405 1.253 1.402 1.999 2.663 1.999.967 0 1.93-.458 2.47-1.327.022-.06.06-.109.093-.162.209-.399.342-.866.342-1.419 0-.89-.394-1.534-.725-1.918a.967.967 0 0 1-.106-1.105.914.914 0 0 1 .99-.457c1.632.331 2.55-.473 2.935-1.147.576-1.02.58-2.44.006-3.453-.38-.668-1.287-1.463-2.94-1.127a.926.926 0 0 1-.991-.458.963.963 0 0 1 .107-1.104 2.893 2.893 0 0 0 .465-3.121c-.368-.83-1.246-1.719-2.604-1.719-1.228 0-2.315.81-2.705 2.013-.251.78-1.52.78-1.771 0-.39-1.204-1.476-2.013-2.702-2.013-1.36 0-2.238.888-2.606 1.719a2.893 2.893 0 0 0 .464 3.121.963.963 0 0 1 .108 1.104.927.927 0 0 1-.992.458c-2.591-.531-3.365 1.65-3.365 2.885zm5.911-.022c0-2.287 1.824-4.15 4.068-4.15 2.243 0 4.067 1.863 4.067 4.15 0 2.289-1.824 4.15-4.067 4.15-2.244 0-4.068-1.861-4.068-4.15zm1.866 0c0 1.24.988 2.246 2.202 2.246 1.213 0 2.201-1.006 2.201-2.246 0-1.238-.988-2.246-2.201-2.246-1.214 0-2.202 1.008-2.202 2.246z"/></g></g></svg>