<svg xmlns="http://www.w3.org/2000/svg" width="39" height="46" viewBox="0 0 39 46"><g><g><path d="M38.445 29.45c.001.426-.164.825-.464 1.128l-7.173 7.226a1.717 1.717 0 0 1-.712.415c-.08.02-.327.055-.41.055-.228 0-.46-.051-.67-.147-.215-.095-.307-.136-8.992-8.741l-.372-.367c-.364-.367-.563-.564-.51-7.96l.003-.36a1.6 1.6 0 0 1 1.574-1.597l7.221-.033c.427 0 .826.162 1.126.459l8.906 8.8c.301.298.47.696.473 1.122zm-2.006.01l-8.611-8.511-6.801.124c-.035 4.843.059 6.327.12 6.78l.203.199c5.724 5.67 7.714 7.611 8.365 8.23zm-10.736-7.126a2.39 2.39 0 0 1 .708 1.704 2.386 2.386 0 0 1-.708 1.709 2.406 2.406 0 0 1-1.709.705c-.646 0-1.253-.25-1.71-.707a2.381 2.381 0 0 1-.707-1.707c0-.644.252-1.25.71-1.705.909-.91 2.504-.912 3.416.001zm-1.175 1.705a.53.53 0 0 0-.534-.532.533.533 0 0 0-.377.908.547.547 0 0 0 .754.002.525.525 0 0 0 .157-.378zm6.365 16.72v3.7a.94.94 0 0 1-.942.94H1.718a.94.94 0 0 1-.942-.94V10.65a.94.94 0 0 1 .942-.939h6.517V8.083c0-4.267 3.476-7.874 7.589-7.874 4.176 0 7.482 3.533 7.482 7.874V9.71h6.645c.52 0 .942.42.942.939v5.278a.94.94 0 0 1-.942.94.94.94 0 0 1-.942-.94V11.59h-5.703v2.76a.94.94 0 0 1-.942.94.94.94 0 0 1-.942-.94v-2.76H10.12v2.76a.94.94 0 0 1-.942.94.94.94 0 0 1-.942-.94v-2.76H2.66v31.93h26.349v-2.76c0-.52.421-.94.942-.94.52 0 .942.42.942.94zM10.119 9.71h11.303V8.083c0-3.249-2.511-5.994-5.484-5.994-3.153 0-5.819 2.802-5.819 5.994z"/></g></g></svg>