<svg xmlns="http://www.w3.org/2000/svg" width="45" height="46" viewBox="0 0 45 46"><g><g><path d="M13.666 7.06c-2.061 1.334-3.973 2.003-5.708 2.003a6.26 6.26 0 0 1-1.602-.202c-2.43-.644-3.48-2.591-3.523-2.675L.76 1.865A.958.958 0 0 1 1.2.592a.937.937 0 0 1 1.26.442l2.057 4.29c.009.016.72 1.285 2.35 1.702 1.598.402 3.542-.12 5.781-1.57 1.29-.831 2.576-1.08 3.817-.746 2.178.597 3.33 2.841 3.378 2.936a.956.956 0 0 1-.413 1.28.94.94 0 0 1-1.27-.417c-.006-.013-.832-1.593-2.199-1.962-.712-.187-1.463-.024-2.294.514zM38.81 44.03c-1.727.973-3.53 1.47-5.356 1.47-3.49 0-6.82-1.894-8.909-5.062L15.495 25.26c-2.741-4.95-.54-11.454 4.893-14.523 1.845-1.04 3.901-1.591 5.947-1.591 3.822 0 7.132 1.857 8.854 4.965L43.24 29.84c2.491 5.61.701 11.294-4.429 14.19zm2.73-13.363l-8.015-15.653c-1.368-2.47-4.062-3.962-7.191-3.962-1.724 0-3.461.466-5.026 1.349-4.525 2.555-6.401 7.896-4.182 11.903l9.013 15.114c2.645 4.006 7.524 5.336 11.75 2.948 4.295-2.424 5.728-7.016 3.65-11.7zm-13.963-8.891a.959.959 0 0 1-.364 1.297.94.94 0 0 1-1.284-.367l-3.155-5.702a.958.958 0 0 1 .364-1.298.94.94 0 0 1 1.284.367z"/></g></g></svg>