<svg xmlns="http://www.w3.org/2000/svg" width="44" height="46" viewBox="0 0 44 46"><g><g><path d="M35.107 35.225c-.167 0-.324-.04-.489-.05l.566 2.298c.167.902-.01 1.758-.489 2.466a3.143 3.143 0 0 1-2.03 1.342l-21.842 4.14a3.095 3.095 0 0 1-2.369-.51 3.191 3.191 0 0 1-1.321-2.061L.81 8.378c-.32-1.743.815-3.426 2.528-3.75L25.182.487a3.13 3.13 0 0 1 2.369.51 3.193 3.193 0 0 1 1.32 2.06l.321 1.616c.085-.003.164-.026.25-.026 4.809 0 8.722 3.978 8.722 8.867a9.444 9.444 0 0 1-1.025 4.245c3.828.936 6.69 4.425 6.69 8.6 0 4.888-3.913 8.865-8.722 8.865zm0-15.828c-3.776 0-6.85 3.123-6.85 6.962 0 3.839 3.074 6.96 6.85 6.96 3.777 0 6.848-3.121 6.848-6.96s-3.071-6.962-6.848-6.962zM29.442 6.554c-3.777 0-6.85 3.122-6.85 6.96 0 3.525 2.654 6.458 6.101 6.883 1.596-1.771 3.866-2.902 6.409-2.904a7.354 7.354 0 0 0 1.188-3.978c0-3.839-3.072-6.961-6.848-6.961zM18.38 42.05L11.585 5.003l-4.419.838 6.795 37.047 2.155-.409zm-6.26 1.186L5.324 6.19 3.682 6.5a1.31 1.31 0 0 0-1.03 1.528L8.974 42.5c.13.71.8 1.184 1.505 1.049zm20.474-8.43a8.831 8.831 0 0 1-6.211-8.447c0-1.542.424-2.972 1.109-4.237-3.897-.938-6.774-4.456-6.774-8.607 0-4.146 2.825-7.61 6.614-8.575l-.301-1.517a1.298 1.298 0 0 0-1.505-1.061l-12.1 2.293L20.222 41.7l12.1-2.293c.338-.065.632-.258.826-.547a1.32 1.32 0 0 0 .206-.982zm2.656-14.21c.518 0 .937.427.937.953v.243c.707.21 1.328.64 1.716 1.244a.963.963 0 0 1-.273 1.319.932.932 0 0 1-1.298-.277c-.21-.33-.624-.532-1.082-.532-.657 0-1.212.438-1.212.958 0 .26.178.583 1.492 1.002.681.202 2.808.832 2.808 2.82 0 1.273-.908 2.343-2.15 2.713v.325c0 .526-.42.953-.938.953a.945.945 0 0 1-.937-.953v-.325c-.745-.202-1.529-.599-2.114-1.118a.962.962 0 0 1-.092-1.343.926.926 0 0 1 1.322-.093c.558.493 1.38.799 1.82.799.658 0 1.215-.44 1.215-.959 0-.37-.497-.705-1.478-.996-.856-.273-2.822-.9-2.822-2.825 0-1.274.907-2.344 2.149-2.714v-.241c0-.526.42-.952.937-.952zM26.729 16.6a.963.963 0 0 1-.092-1.343.924.924 0 0 1 1.322-.093c.496.44 1.225.71 1.615.71.558 0 1.028-.364 1.028-.795 0-.37-.703-.658-1.292-.832-.802-.255-2.641-.84-2.641-2.661 0-1.184.827-2.18 1.967-2.544v-.159c0-.527.42-.953.938-.953s.937.426.937.953v.166c.638.206 1.201.598 1.556 1.149a.962.962 0 0 1-.273 1.317.93.93 0 0 1-1.298-.276c-.176-.273-.538-.45-.922-.45-.559 0-1.031.366-1.031.797 0 .126 0 .42 1.31.838.638.188 2.624.78 2.624 2.655 0 1.183-.826 2.179-1.966 2.544v.158c0 .527-.42.953-.937.953a.945.945 0 0 1-.938-.953v-.161c-.676-.193-1.379-.551-1.907-1.02z"/></g></g></svg>