<svg xmlns="http://www.w3.org/2000/svg" width="46" height="46" viewBox="0 0 46 46"><g><g><path d="M45.885.998v37.654a.94.94 0 0 1-.942.941h-4.71V44.3c0 .521-.42.942-.94.942h-7.535a.942.942 0 0 1-.942-.942v-4.707h-15.07V44.3c0 .521-.421.942-.942.942H7.27a.941.941 0 0 1-.942-.942v-4.707H1.621a.94.94 0 0 1-.941-.941V.998c0-.52.42-.94.941-.94h43.322c.52 0 .942.42.942.94zM13.863 39.593H8.212v3.766h5.65zm24.487 0H32.7v3.766h5.65zm5.651-37.652H2.563v35.77h41.438zM4.447 29.239v-3.765c0-.52.42-.942.941-.942h2.826v-7.53H5.388a.941.941 0 0 1-.941-.942v-3.765a.94.94 0 0 1 .941-.941h2.826V6.647c0-.52.421-.942.941-.942h30.137c.52 0 .942.421.942.942v26.358a.94.94 0 0 1-.942.94H9.155a.94.94 0 0 1-.941-.94V30.18H5.388a.94.94 0 0 1-.941-.941zm5.65 2.824H38.35V7.588H10.097zM8.214 15.12v-1.883H6.33v1.883zM6.33 28.297h1.884v-1.882H6.33zm11.875-2.454c-3.309-3.307-3.309-8.689 0-11.996a8.43 8.43 0 0 1 6.002-2.486c2.266 0 4.398.883 6 2.486 3.31 3.307 3.31 8.689 0 11.996a8.427 8.427 0 0 1-6 2.484c-2.268 0-4.4-.88-6.002-2.484zm1.332-1.331c2.492 2.494 6.843 2.494 9.339 0a6.605 6.605 0 0 0 0-9.334 6.565 6.565 0 0 0-4.669-1.934 6.565 6.565 0 0 0-4.67 1.934 6.605 6.605 0 0 0 0 9.334zm2.349-2.348a3.257 3.257 0 0 1-.962-2.32c0-.877.342-1.7.962-2.32 1.01-1.009 2.623-1.181 3.859-.548L27.02 15.7a.941.941 0 1 1 1.332 1.331l-1.27 1.27a3.27 3.27 0 0 1-2.876 4.825 3.263 3.263 0 0 1-2.321-.962zm.921-2.32c0 .373.146.725.41.99.53.53 1.448.53 1.978 0a1.4 1.4 0 0 0-1.977-1.979c-.265.264-.41.615-.41.99z"/></g></g></svg>