<svg xmlns="http://www.w3.org/2000/svg" width="44" height="27" viewBox="0 0 44 27"><g><g><path d="M43.927 25.62a.936.936 0 0 1-.942.933H1.547a.936.936 0 0 1-.941-.932c0-.509.413-.918.925-.928v-6.522c0-.514.421-.93.942-.93h2.12L2.49 10.508a.927.927 0 0 1 .664-1.177c.332-.084 2.747-.646 4.882-.096l-.366-2.508a.928.928 0 0 1 .243-.767.878.878 0 0 1 .758-.294c1.9.134 3.335.7 4.4 1.329-.411-1.716-.887-3.58-1.452-5.612a.926.926 0 0 1 .219-.882.92.92 0 0 1 .874-.279c.333.064 7.902 1.669 11.38 10.493 1.936-1.123 4.746-2.032 8.643-1.722a.941.941 0 0 1 .72.428c.158.246.191.551.088.826l-3.691 9.788.349.93h10.813v-1.302l-2.554-1.77c-.456.55-.862 1.082-1.122 1.527a.946.946 0 0 1-1.288.339.928.928 0 0 1-.342-1.274c.877-1.496 2.932-3.653 4.295-5.01-4.764-.555-6.004 2.059-6.059 2.182a.946.946 0 0 1-1.233.489.921.921 0 0 1-.507-1.204c.08-.2 2.097-4.86 9.975-2.958.337.08.6.336.688.665a.92.92 0 0 1-.265.915 67.268 67.268 0 0 0-2.9 2.918l2.795 1.936c.252.175.401.458.401.763v5.508h.086c.521 0 .942.416.942.93zM13.888 2.54a151.214 151.214 0 0 1 1.67 6.861c1.087 4.984 1.5 8.247 1.645 9.702h10.99l3.133-8.308h-.092c-3.299 0-5.545 1.014-6.98 2.037-.01.01-.02.016-.03.025-1.37.987-1.992 1.974-2.044 2.061a.953.953 0 0 1-1.288.331.925.925 0 0 1-.34-1.269c.056-.095.658-1.075 1.942-2.145-2.18-5.934-6.34-8.387-8.606-9.294zm-9.287 8.413l2.543 8.15h8.162c-.156-1.463-.568-4.56-1.562-9.16-.34-.426-1.576-1.766-4.03-2.26l1.33 9.092a.935.935 0 0 1-.934 1.064.94.94 0 0 1-.93-.798l-.833-5.69c-1.033-.581-2.626-.556-3.746-.398zm-1.187 8.15v5.587h37.601v-1.863H29.547a.939.939 0 0 1-.883-.607l-.471-1.255H5.298a.936.936 0 0 1-.942-.93c0-.475.362-.85.825-.91l-.007-.022z"/></g></g></svg>