<svg xmlns="http://www.w3.org/2000/svg" width="46" height="42" viewBox="0 0 46 42"><g><g><path d="M35.898 14.802c.37.362.37.95 0 1.313l-20.461 20.04a.956.956 0 0 1-.671.27.955.955 0 0 1-.67-.27l-1.318-1.291-4.33 4.24 1.317 1.288c.371.364.371.952 0 1.314a.954.954 0 0 1-.67.273.954.954 0 0 1-.67-.273l-1.989-1.947-3.742-3.665-1.988-1.947a.915.915 0 0 1 0-1.313.962.962 0 0 1 1.341 0l1.318 1.29 4.327-4.24-1.317-1.29a.915.915 0 0 1 0-1.314L26.836 7.24a.964.964 0 0 1 1.342 0l3.19 3.124 9.69-9.49a.96.96 0 0 1 1.34 0c.371.362.371.95 0 1.313l-9.69 9.491zM11.437 33.55l-2.403-2.353-4.328 4.24 2.4 2.352zm22.449-18.092l-6.38-6.247-3.023 2.961 1.26 1.234c.37.363.37.95 0 1.314a.957.957 0 0 1-.67.272.958.958 0 0 1-.671-.272l-1.26-1.234-1.301 1.274 3.189 3.124c.37.363.37.951 0 1.314a.953.953 0 0 1-.67.271.953.953 0 0 1-.671-.271l-3.19-3.124-1.301 1.275 1.26 1.234c.37.362.37.95 0 1.313a.954.954 0 0 1-.671.272.954.954 0 0 1-.671-.272l-1.26-1.234-1.3 1.275 3.188 3.124c.37.362.37.95 0 1.314a.961.961 0 0 1-1.341 0l-3.189-3.125-1.301 1.275 1.259 1.233c.37.362.37.95 0 1.313a.956.956 0 0 1-.671.272.957.957 0 0 1-.67-.272l-1.26-1.232-1.301 1.274 3.19 3.123c.37.362.37.95 0 1.314a.956.956 0 0 1-.67.272.957.957 0 0 1-.671-.272l-3.19-3.124-1.542 1.51 1.317 1.29 3.745 3.668 1.317 1.29zm11.627 1.015c0 2.044-1.697 3.708-3.785 3.708s-3.787-1.664-3.787-3.708c0-.89 2.518-6.846 3.787-6.846 1.27 0 3.785 5.956 3.785 6.846zm-1.897 0c0-.743-1.088-2.796-1.888-4.156-.797 1.36-1.89 3.425-1.89 4.156 0 1.019.849 1.85 1.89 1.85s1.888-.831 1.888-1.85z"/></g></g></svg>