<svg xmlns="http://www.w3.org/2000/svg" width="46" height="46" viewBox="0 0 46 46"><g><g><path d="M24.02 22.856c.394 1.274.499 2.933.31 4.931a.949.949 0 0 1-1.029.86.953.953 0 0 1-.853-1.04c.164-1.745.087-3.151-.232-4.182-.596-1.928-.89-3.755-1.038-5.051-1.768 1.294-3.488 1.973-5.124 1.973-6.423 0-8.971-9.759-9.076-10.175a.95.95 0 0 1 .75-1.177c.086-.016 2.188-.39 4.803-.39 4.056 0 6.998.903 8.71 2.622C22.386 7.382 26.137 2.48 37.366.396a.955.955 0 0 1 .737.174c.21.16.347.402.372.666.047.438 1.052 10.776-3.371 15.733-1.541 1.728-3.547 2.604-5.96 2.604h-.001c-1.797 0-3.851-.526-6.098-1.512.136 1.21.41 2.972.975 4.795zM22.727 13.4c.91-1.21 2.19-2.497 3.87-3.124 3.046-1.137 5.897-3.527 5.927-3.552a.937.937 0 0 1 1.33.12.964.964 0 0 1-.118 1.346c-.127.106-3.124 2.624-6.483 3.877-1.998.746-3.363 2.834-3.998 3.998 2.226 1.046 4.211 1.597 5.89 1.597h.002c1.88 0 3.371-.645 4.556-1.973C36.817 12.2 36.8 5.14 36.668 2.48c-11.19 2.357-13.587 7.65-13.942 10.921zm-6.672 5.036c1.352 0 2.842-.669 4.432-1.93-1.72-1.084-4.9-1.524-6.167-1.604a.953.953 0 0 1-.884-1.012.958.958 0 0 1 1-.894c.483.03 3.868.284 6.346 1.499-.001-.157.002-.32.008-.487.001-.037-.003-.063-.002-.098-1.515-3.994-8.904-3.517-11.665-3.187.777 2.31 3.014 7.713 6.932 7.713zm5.304 20.372v4.38c0 1.263-1.045 2.291-2.328 2.291h-4.052c-1.283 0-2.328-1.028-2.328-2.291l.006-.853c.026-2.345.037-3.415-1.68-4.518-5.289-3.4-5.488-3.575-7.138-6.262-.456-.741-1.042-1.699-1.945-3.025C.668 26.724.683 25.305.71 22.727l.01-1.388c0-1.3 1-2.28 2.326-2.28 1.327 0 2.328.98 2.328 2.28v3.387c0 .446.134.88.39 1.255 2.363 3.48 2.583 3.68 2.86 3.933.548.428.98.676 1.284.81a6.52 6.52 0 0 0-.432-.967l-1.982-2.373a1.99 1.99 0 0 1-.489-2.193c.56-1.406 2.735-1.892 3.936-.73 2.813 2.72 3.64 3.701 4.085 4.229.389.46.46.543 1.576 1.376 4.377 2.175 4.756 5.515 4.756 8.743zm-1.89 0c0-2.943-.282-5.335-3.846-7.118-1.386-1.015-1.549-1.187-2.034-1.764-.422-.501-1.21-1.435-3.953-4.086-.328-.316-.808-.103-.877.06-.018.052.11.175.115.18l2.152 2.594c.716 1.252 1.293 2.755.524 3.614-.198.221-.56.484-1.161.484-.98 0-2.1-.705-2.866-1.296-.022-.016-.144-.127-.163-.144-.428-.389-.662-.603-3.154-4.27a4.147 4.147 0 0 1-.721-2.337v-3.387c0-.306-.238-.37-.438-.37-.199 0-.437.064-.437.37L2.6 22.75c-.026 2.399-.037 3.392.85 4.7.925 1.36 1.527 2.34 1.994 3.1 1.441 2.348 1.469 2.394 6.548 5.658 2.602 1.672 2.58 3.747 2.554 6.15l-.006.832c0 .21.196.381.438.381h4.052c.242 0 .438-.17.438-.381zm25.165-10.278a71.047 71.047 0 0 0-1.943 3.024c-1.65 2.687-1.85 2.863-7.139 6.263-1.718 1.104-1.707 2.175-1.68 4.523l.005.848c0 1.263-1.045 2.291-2.328 2.291h-4.052c-1.283 0-2.327-1.028-2.327-2.291v-4.38c0-3.227.378-6.567 4.898-8.83.976-.746 1.046-.829 1.435-1.29.447-.529 1.275-1.512 4.085-4.229 1.2-1.163 3.375-.677 3.936.73.31.783.101 1.633-.561 2.272l-1.95 2.37a6.549 6.549 0 0 0-.396.894c.303-.13.722-.365 1.246-.769.321-.299.543-.5 2.903-3.976.255-.374.39-.809.39-1.255v-3.387c0-1.3 1-2.28 2.326-2.28 1.327 0 2.328.98 2.328 2.28l.009 1.38c.028 2.583.042 4.005-1.185 5.812zm-.705-5.79l-.01-1.402c0-.612-.874-.612-.874 0v3.387c0 .834-.25 1.64-.722 2.337-2.485 3.66-2.722 3.875-3.152 4.268-.018.017-.142.13-.164.147-.768.59-1.888 1.295-2.868 1.295-.601 0-.963-.263-1.16-.484-.682-.764-.28-1.947.082-2.768.154-.347.281-.638.445-.843l-.002-.003 2.08-2.515c.078-.084.205-.207.187-.258-.04-.1-.227-.246-.462-.246a.585.585 0 0 0-.415.185c-2.74 2.65-3.528 3.584-3.951 4.086-.487.577-.65.748-1.896 1.677-3.705 1.87-3.988 4.263-3.988 7.205v4.38c0 .21.196.381.438.381h4.052c.242 0 .438-.17.438-.381l-.006-.828c-.025-2.405-.047-4.481 2.556-6.154 5.08-3.264 5.105-3.31 6.548-5.658a70.25 70.25 0 0 1 1.991-3.1c.89-1.31.879-2.304.853-4.708z"/></g></g></svg>