<?xml version="1.0" encoding="utf-8"?><svg xmlns="http://www.w3.org/2000/svg" xmlns:xlink="http://www.w3.org/1999/xlink"><symbol viewBox="0 0 34 24" id="catalog" xmlns="http://www.w3.org/2000/svg"><path d="M12.48 7.982c0 .38-.312.69-.697.69H4.865a.693.693 0 0 1-.697-.69c0-.382.312-.69.697-.69h6.918c.385 0 .697.308.697.69zm0 4.14c0 .381-.312.69-.697.69H4.865a.693.693 0 0 1-.697-.69c0-.382.312-.69.697-.69h6.918c.385 0 .697.308.697.69zm0 4.14c0 .381-.312.69-.697.69H4.865a.693.693 0 0 1-.697-.69c0-.382.312-.69.697-.69h6.918c.385 0 .697.308.697.69zm16.71-8.28c0 .38-.31.69-.696.69h-6.88a.693.693 0 0 1-.696-.69c0-.382.312-.69.697-.69h6.879c.385 0 .697.308.697.69zm0 4.14c0 .381-.31.69-.696.69h-6.88a.693.693 0 0 1-.696-.69c0-.382.312-.69.697-.69h6.879c.385 0 .697.308.697.69zm0 4.14c0 .381-.31.69-.696.69h-6.88a.693.693 0 0 1-.696-.69c0-.382.312-.69.697-.69h6.879c.385 0 .697.308.697.69zm4.16-13.214v20.228a.687.687 0 0 1-.275.549.7.7 0 0 1-.606.117c-1.254-.34-4.61-.595-7.806-.595-2.845 0-4.892.206-7.896.614a.744.744 0 0 1-.189 0c-3.004-.408-5.05-.614-7.896-.614-3.195 0-6.551.255-7.805.595a.702.702 0 0 1-.606-.117.687.687 0 0 1-.274-.549V3.048c0-2.045 4.362-2.963 8.685-2.963 3.288 0 6.593.532 7.99 1.685C18.072.617 21.376.085 24.664.085c4.323 0 8.687.918 8.687 2.963zM8.682 21.966c2.667 0 4.642.175 7.294.52V3.049c-.05-.473-2.592-1.583-7.294-1.583-4.7 0-7.242 1.11-7.292 1.584v19.376c1.871-.313 4.926-.46 7.292-.46zM31.956 3.048c-.05-.473-2.593-1.583-7.293-1.583-4.701 0-7.243 1.11-7.293 1.584v19.438c2.651-.346 4.626-.521 7.293-.521 2.367 0 5.422.146 7.293.46z"/></symbol><symbol viewBox="0 0 46 42" id="catalog-1" xmlns="http://www.w3.org/2000/svg"><path d="M35.898 14.802c.37.362.37.95 0 1.313l-20.461 20.04a.956.956 0 0 1-.671.27.955.955 0 0 1-.67-.27l-1.318-1.291-4.33 4.24 1.317 1.288a.915.915 0 0 1 0 1.314.954.954 0 0 1-.67.273.954.954 0 0 1-.67-.273l-1.989-1.947-3.742-3.665-1.988-1.947a.915.915 0 0 1 0-1.313.962.962 0 0 1 1.341 0l1.318 1.29 4.327-4.24-1.317-1.29a.915.915 0 0 1 0-1.314L26.836 7.24a.964.964 0 0 1 1.342 0l3.19 3.124 9.69-9.49a.96.96 0 0 1 1.34 0 .914.914 0 0 1 0 1.313l-9.69 9.491zM11.437 33.55l-2.403-2.353-4.328 4.24 2.4 2.352zm22.449-18.092l-6.38-6.247-3.023 2.961 1.26 1.234c.37.363.37.95 0 1.314a.957.957 0 0 1-.67.272.958.958 0 0 1-.671-.272l-1.26-1.234-1.301 1.274 3.189 3.124c.37.363.37.951 0 1.314a.953.953 0 0 1-.67.271.953.953 0 0 1-.671-.271l-3.19-3.124-1.301 1.275 1.26 1.234c.37.362.37.95 0 1.313a.954.954 0 0 1-.671.272.954.954 0 0 1-.671-.272l-1.26-1.234-1.3 1.275 3.188 3.124c.37.362.37.95 0 1.314a.961.961 0 0 1-1.341 0l-3.189-3.125-1.301 1.275 1.259 1.233c.37.362.37.95 0 1.313a.956.956 0 0 1-.671.272.957.957 0 0 1-.67-.272l-1.26-1.232-1.301 1.274 3.19 3.123c.37.362.37.95 0 1.314a.956.956 0 0 1-.67.272.957.957 0 0 1-.671-.272l-3.19-3.124-1.542 1.51 1.317 1.29 3.745 3.668 1.317 1.29zm11.627 1.015c0 2.044-1.697 3.708-3.785 3.708s-3.787-1.664-3.787-3.708c0-.89 2.518-6.846 3.787-6.846 1.27 0 3.785 5.956 3.785 6.846zm-1.897 0c0-.743-1.088-2.796-1.888-4.156-.797 1.36-1.89 3.425-1.89 4.156 0 1.019.849 1.85 1.89 1.85s1.888-.831 1.888-1.85z"/></symbol><symbol viewBox="0 0 44 46" id="catalog-10" xmlns="http://www.w3.org/2000/svg"><path d="M35.107 35.225c-.167 0-.324-.04-.489-.05l.566 2.298c.167.902-.01 1.758-.489 2.466a3.143 3.143 0 0 1-2.03 1.342l-21.842 4.14a3.095 3.095 0 0 1-2.369-.51 3.191 3.191 0 0 1-1.321-2.061L.81 8.378c-.32-1.743.815-3.426 2.528-3.75L25.182.487a3.13 3.13 0 0 1 2.369.51 3.193 3.193 0 0 1 1.32 2.06l.321 1.616c.085-.003.164-.026.25-.026 4.809 0 8.722 3.978 8.722 8.867a9.444 9.444 0 0 1-1.025 4.245c3.828.936 6.69 4.425 6.69 8.6 0 4.888-3.913 8.865-8.722 8.865zm0-15.828c-3.776 0-6.85 3.123-6.85 6.962 0 3.839 3.074 6.96 6.85 6.96 3.777 0 6.848-3.121 6.848-6.96s-3.071-6.962-6.848-6.962zM29.442 6.554c-3.777 0-6.85 3.122-6.85 6.96 0 3.525 2.654 6.458 6.101 6.883 1.596-1.771 3.866-2.902 6.409-2.904a7.354 7.354 0 0 0 1.188-3.978c0-3.839-3.072-6.961-6.848-6.961zM18.38 42.05L11.585 5.003l-4.419.838 6.795 37.047 2.155-.409zm-6.26 1.186L5.324 6.19l-1.642.31a1.31 1.31 0 0 0-1.03 1.528L8.974 42.5c.13.71.8 1.184 1.505 1.049zm20.474-8.43a8.831 8.831 0 0 1-6.211-8.447c0-1.542.424-2.972 1.109-4.237-3.897-.938-6.774-4.456-6.774-8.607 0-4.146 2.825-7.61 6.614-8.575l-.301-1.517a1.298 1.298 0 0 0-1.505-1.061l-12.1 2.293L20.222 41.7l12.1-2.293c.338-.065.632-.258.826-.547a1.32 1.32 0 0 0 .206-.982zm2.656-14.21c.518 0 .937.427.937.953v.243c.707.21 1.328.64 1.716 1.244a.963.963 0 0 1-.273 1.319.932.932 0 0 1-1.298-.277c-.21-.33-.624-.532-1.082-.532-.657 0-1.212.438-1.212.958 0 .26.178.583 1.492 1.002.681.202 2.808.832 2.808 2.82 0 1.273-.908 2.343-2.15 2.713v.325c0 .526-.42.953-.938.953a.945.945 0 0 1-.937-.953v-.325c-.745-.202-1.529-.599-2.114-1.118a.962.962 0 0 1-.092-1.343.926.926 0 0 1 1.322-.093c.558.493 1.38.799 1.82.799.658 0 1.215-.44 1.215-.959 0-.37-.497-.705-1.478-.996-.856-.273-2.822-.9-2.822-2.825 0-1.274.907-2.344 2.149-2.714v-.241c0-.526.42-.952.937-.952zM26.729 16.6a.963.963 0 0 1-.092-1.343.924.924 0 0 1 1.322-.093c.496.44 1.225.71 1.615.71.558 0 1.028-.364 1.028-.795 0-.37-.703-.658-1.292-.832-.802-.255-2.641-.84-2.641-2.661 0-1.184.827-2.18 1.967-2.544v-.159c0-.527.42-.953.938-.953s.937.426.937.953v.166c.638.206 1.201.598 1.556 1.149a.962.962 0 0 1-.273 1.317.93.93 0 0 1-1.298-.276c-.176-.273-.538-.45-.922-.45-.559 0-1.031.366-1.031.797 0 .126 0 .42 1.31.838.638.188 2.624.78 2.624 2.655 0 1.183-.826 2.179-1.966 2.544v.158c0 .527-.42.953-.937.953a.945.945 0 0 1-.938-.953v-.161c-.676-.193-1.379-.551-1.907-1.02z"/></symbol><symbol viewBox="0 0 46 46" id="catalog-11" xmlns="http://www.w3.org/2000/svg"><path d="M40.616 18.664a3.156 3.156 0 0 1 0 4.438 3.09 3.09 0 0 1-2.208.92 3.092 3.092 0 0 1-2.207-.92 3.126 3.126 0 0 1-.914-2.221c0-.838.326-1.625.914-2.217 1.181-1.188 3.234-1.188 4.415 0zm-1.332 1.34a1.228 1.228 0 0 0-.876-.366c-.33 0-.641.13-.875.365a1.236 1.236 0 0 0-.362.88c0 .332.128.645.362.88.467.47 1.284.47 1.751 0a1.25 1.25 0 0 0 0-1.76zm-6.6.494v17.633c0 1.945-1.515 3.587-3.31 3.587H7.818c-1.836 0-3.388-1.642-3.388-3.587V20.498c0-1.879 1.52-3.407 3.388-3.407h21.554c1.856 0 3.311 1.497 3.311 3.407zm-1.883 0c0-.863-.614-1.512-1.428-1.512H7.82a1.51 1.51 0 0 0-1.504 1.512v17.633c0 .886.717 1.693 1.504 1.693h21.554c.841 0 1.428-.892 1.428-1.693zm15.068-2.997v23.392c0 2.459-2.029 4.614-4.341 4.614H5.104c-2.323 0-4.44-2.2-4.44-4.614V17.501c0-2.314 1.992-4.198 4.44-4.198h16.014l-5.784-7.481c-.274.09-.562.151-.865.151A2.808 2.808 0 0 1 11.67 3.16 2.808 2.808 0 0 1 14.469.346a2.808 2.808 0 0 1 2.355 4.32l6.218 8.04 6.216-8.042A2.808 2.808 0 0 1 31.614.346 2.808 2.808 0 0 1 34.41 3.16a2.808 2.808 0 0 1-2.797 2.814 2.75 2.75 0 0 1-.866-.152l-5.782 7.482h16.562c2.393 0 4.34 1.884 4.34 4.198zM30.699 3.159c0 .507.41.92.915.92a.918.918 0 0 0 .914-.92.918.918 0 0 0-.914-.919.918.918 0 0 0-.914.92zm-16.23.92a.918.918 0 0 0 .914-.92.918.918 0 0 0-.914-.919.918.918 0 0 0-.914.92c0 .506.41.919.914.919zM43.985 17.5c0-1.292-1.08-2.304-2.457-2.304H5.104c-1.385 0-2.556 1.055-2.556 2.304v23.392c0 1.373 1.267 2.72 2.556 2.72h36.424c1.264 0 2.457-1.322 2.457-2.72z"/></symbol><symbol viewBox="0 0 44 33" id="catalog-12" xmlns="http://www.w3.org/2000/svg"><path d="M43.962 9.756c0 2.362-1.866 4.291-4.184 4.35-.914.223-1.584.728-2.044 1.543-1.574 2.797-.246 8.506.399 10.47.094.285.045.6-.128.842a.916.916 0 0 1-.75.39H7.278a.916.916 0 0 1-.748-.39.946.946 0 0 1-.129-.843c.645-1.963 1.973-7.672.4-10.47-.461-.814-1.13-1.32-2.046-1.542C2.437 14.047.57 12.118.57 9.756c0-2.4 1.928-4.352 4.296-4.352h.003c.075 0 .188.003.324.01 1.335-1.873 6.921-8.305 17.074-2.796 10.153-5.503 15.738.922 17.075 2.796a4.337 4.337 0 0 1 4.621 4.342zM23.19 4.216v15.616h8.783c-.835-5.161-.222-9.056 1.828-11.583A7.592 7.592 0 0 1 37.32 5.81c-1.667-2.004-6.197-5.87-14.13-1.595zM7.213 5.811a7.578 7.578 0 0 1 3.519 2.437c2.05 2.527 2.664 6.422 1.826 11.583h8.784V4.215C13.415-.063 8.88 3.807 7.212 5.812zm34.901 3.944c0-1.368-1.097-2.48-2.445-2.48-.253-.054-2.73.056-4.44 2.162-1.803 2.22-2.233 6.077-1.244 11.15a.941.941 0 0 1-.19.775.925.925 0 0 1-.716.342H11.452a.925.925 0 0 1-.715-.342.941.941 0 0 1-.191-.775c.989-5.073.56-8.93-1.242-11.15C7.6 7.338 5.18 7.277 4.908 7.277a2.474 2.474 0 0 0-2.49 2.479c0 1.367 1.097 2.48 2.446 2.48.065 0 .132.007.195.02 1.482.325 2.608 1.157 3.346 2.468 1.776 3.157.728 8.382.105 10.755h27.513c-.623-2.373-1.671-7.598.105-10.755.738-1.311 1.864-2.143 3.346-2.467a.928.928 0 0 1 .195-.021c1.348 0 2.445-1.113 2.445-2.48zM35.276 29.96v2.004a.93.93 0 0 1-.924.937h-3.788a.93.93 0 0 1-.924-.937V29.96a.93.93 0 0 1 .924-.936.93.93 0 0 1 .924.936v1.068h1.94V29.96a.93.93 0 0 1 .924-.936.93.93 0 0 1 .924.936zm-20.33 0v2.004a.93.93 0 0 1-.924.937h-3.788a.93.93 0 0 1-.925-.937V29.96a.93.93 0 0 1 .925-.936.93.93 0 0 1 .924.936v1.068h1.94V29.96a.93.93 0 0 1 .924-.936.93.93 0 0 1 .924.936z"/></symbol><symbol viewBox="0 0 45 46" id="catalog-13" xmlns="http://www.w3.org/2000/svg"><path d="M13.092 16.061a4.032 4.032 0 0 1 4.026-4.03 4.031 4.031 0 0 1 0 8.06 4.032 4.032 0 0 1-4.026-4.03zm1.916 0c0 1.164.946 2.113 2.11 2.113a2.114 2.114 0 0 0 2.109-2.113 2.114 2.114 0 0 0-2.109-2.112c-1.164 0-2.11.948-2.11 2.112zm7.957-.94h1.873a.958.958 0 0 1 0 1.918h-1.873a.958.958 0 0 1 0-1.918zM9.41 17.039a.959.959 0 0 1 0-1.918h1.87a.958.958 0 0 1 0 1.918zm6.756-6.809V8.355a.958.958 0 1 1 1.916 0v1.875a.958.958 0 1 1-1.916 0zm4.535 2.268a.96.96 0 0 1 0-1.356l.784-.785a.959.959 0 0 1 1.354 1.356l-.784.785a.957.957 0 0 1-1.354 0zm-7.155 7.163a.959.959 0 0 1 0 1.355l-.784.785a.953.953 0 0 1-.677.281.959.959 0 0 1-.677-1.636l.784-.785a.957.957 0 0 1 1.354 0zm9.293.785a.959.959 0 0 1-1.354 1.355l-.784-.785a.959.959 0 0 1 1.354-1.355zm-11.431-8.733a.959.959 0 0 1 1.354-1.356l.784.785a.96.96 0 0 1-.677 1.638.957.957 0 0 1-.677-.282zm31.898 19.931a22.43 22.43 0 0 1-4.881 7.33c-4.251 4.255-9.911 6.598-15.937 6.598a22.383 22.383 0 0 1-11.697-3.29c-.023-.013-.052-.007-.074-.023-.017-.013-.025-.032-.04-.046a22.584 22.584 0 0 1-4.128-3.24c-8.786-8.8-8.786-23.115 0-31.914 4.25-4.256 9.91-6.6 15.937-6.6 6.026 0 11.686 2.344 15.937 6.6 6.618 6.627 8.247 16.382 4.897 24.554l-.014.031zM7.903 37.616c.969.97 2.017 1.83 3.131 2.576l12.55-17.246a.96.96 0 0 1 .75-.394c.35-.027.582.126.77.357l4.569 5.669 5.107-4.616a.954.954 0 0 1 1.298.014l5.934 5.608c2.4-7.193.765-15.451-4.944-21.169-3.888-3.893-9.067-6.038-14.582-6.038-5.516 0-10.695 2.145-14.583 6.038-8.039 8.05-8.039 21.15 0 29.2zm14.585 6.039c4.839 0 9.419-1.654 13.097-4.69L24.398 25.087 12.684 41.184a20.536 20.536 0 0 0 9.804 2.47zm18.771-12.146l-5.852-5.53-4.53 4.094 6.128 7.603c.021-.02.044-.038.065-.06a20.498 20.498 0 0 0 4.19-6.107zm-23.177-9.58v1.874a.958.958 0 1 1-1.916 0v-1.875a.958.958 0 1 1 1.916 0z"/></symbol><symbol viewBox="0 0 44 46" id="catalog-14" xmlns="http://www.w3.org/2000/svg"><path d="M16.304 39.553a2.553 2.553 0 0 1-2.556 2.544 2.553 2.553 0 0 1-2.555-2.544 2.554 2.554 0 0 1 2.555-2.545 2.554 2.554 0 0 1 2.556 2.545zm-1.888 0c0-.367-.3-.664-.668-.664a.666.666 0 0 0-.667.664.666.666 0 1 0 1.335 0zm29.428-24.5c0 6.222-4.594 11.283-10.24 11.283h-2.629l-4.01 3.228v5.145c.003.03.018.056.018.086 0 .03-.015.057-.017.088v5.51c0 2.625-2.145 4.76-4.781 4.76H5.312c-2.635 0-4.78-2.135-4.78-4.76V4.724c0-2.624 2.145-4.76 4.78-4.76h16.873c2.31 0 4.24 1.64 4.684 3.81h6.735c5.646 0 10.24 5.06 10.24 11.28zM2.42 4.724v.93h16.001c1.653-1.186 3.64-1.88 5.776-1.88h.706a2.886 2.886 0 0 0-2.718-1.93H5.312a2.888 2.888 0 0 0-2.892 2.88zm22.657 35.67v-4.657H2.42v4.658a2.888 2.888 0 0 0 2.892 2.879h16.873a2.888 2.888 0 0 0 2.892-2.88zm0-9.308l-2.23 1.796a.948.948 0 0 1-1 .118.941.941 0 0 1-.537-.85v-6.533c-3.74-1.231-7.507-5.455-7.507-10.727 0-2.822.996-5.393 2.622-7.356H2.437v26.322h22.64zm16.88-16.031c0-5.095-3.826-9.401-8.353-9.401h-7.537c-.016.001-.03.009-.046.009s-.03-.008-.045-.01h-1.78c-4.61 0-8.505 4.23-8.505 9.237 0 4.687 3.513 8.372 6.77 9.096a.941.941 0 0 1 .737.917v5.278l6.85-5.516a.944.944 0 0 1 .593-.209h2.963c4.527 0 8.352-4.306 8.352-9.401zm-8.277 3.768c.46.462.471 1.199.024 1.678-.118.127-1.18 1.25-1.882 1.605a3.108 3.108 0 0 1-1.41.329c-1.64 0-3.532-1.146-5.954-3.608-2.281-2.315-5.015-5.698-2.435-8.325.904-.928 1.266-1.216 1.742-1.216.474 0 .573 0 3.52 3.054.298.302.418.605.407.927-.02.59-.465 1.032-.869 1.392.338.592 1.319 1.595 1.877 1.912.049-.047.093-.093.134-.135.341-.346.695-.705 1.265-.705.659 0 1.053.424 1.917 1.352.396.428.927 1 1.664 1.74zm-1.807.85c-.522-.537-.925-.97-1.243-1.31a36.914 36.914 0 0 0-.511-.545c-.117.118-.253.254-.415.402a1.313 1.313 0 0 1-.282.192 1.27 1.27 0 0 1-.572.126c-1.367 0-3.365-2.212-3.844-3.32-.37-.855-.061-1.367.155-1.596l.294-.269.102-.088a76.587 76.587 0 0 0-1.813-1.823c-.085.082-.186.185-.306.307-.54.55-1.65 1.683 2.367 5.763 2.477 2.515 3.873 3.042 4.607 3.042.206 0 .389-.04.558-.127.154-.077.528-.395.903-.754zm-4.256-8.306a.942.942 0 0 1 .913-.97 4.293 4.293 0 0 1 3.2 1.258 4.248 4.248 0 0 1 1.259 3.186.942.942 0 0 1-.943.909h-.032a.943.943 0 0 1-.912-.973 2.398 2.398 0 0 0-.708-1.793c-.48-.48-1.114-.751-1.803-.707-.514-.04-.957-.393-.974-.91zm5.932-1.524a5.913 5.913 0 0 1 1.755 4.362.944.944 0 0 1-.945.92h-.02a.943.943 0 0 1-.923-.96 4.06 4.06 0 0 0-1.203-2.993c-.8-.797-1.825-1.183-3.007-1.2-.462.041-.953-.4-.965-.919a.942.942 0 0 1 .924-.96 5.974 5.974 0 0 1 4.384 1.75z"/></symbol><symbol viewBox="0 0 44 37" id="catalog-15" xmlns="http://www.w3.org/2000/svg"><path d="M43.94 14.234c0 10.469-6.526 19.733-15.516 22.031a6.218 6.218 0 0 1-1.573.185h-9.22a6.203 6.203 0 0 1-1.575-.186C7.069 33.967.544 24.703.544 14.234c0-4.586 1.307-9 3.885-13.12A.918.918 0 0 1 5.208.68h34.067a.92.92 0 0 1 .78.435c2.577 4.12 3.884 8.534 3.884 13.12zm-1.848 0c0-4.06-1.12-7.985-3.329-11.673H5.72C3.51 6.25 2.39 10.175 2.39 14.234c0 9.464 6.07 18.148 14.116 20.204a4.48 4.48 0 0 0 1.126.129h9.22c.423 0 .79-.043 1.12-.126 8.052-2.059 14.12-10.743 14.12-20.207zm-1.203-.856a.93.93 0 0 1-.923.94c-2.469 0-4.712-1.073-5.913-2.728-1.204 1.653-3.447 2.728-5.916 2.728-2.47 0-4.712-1.073-5.914-2.728-1.203 1.653-3.446 2.728-5.915 2.728-2.47 0-4.714-1.073-5.915-2.728-1.201 1.653-3.445 2.728-5.914 2.728a.93.93 0 0 1-.923-.94c0-.52.413-.942.923-.942 2.285 0 4.274-1.126 4.84-2.738.336-.947 1.813-.947 2.149-.003.564 1.615 2.555 2.741 4.84 2.741 2.285 0 4.274-1.126 4.84-2.738.336-.95 1.813-.943 2.148-.003.567 1.615 2.556 2.741 4.841 2.741s4.274-1.126 4.84-2.738c.334-.947 1.813-.947 2.149-.003.566 1.615 2.555 2.741 4.84 2.741.51 0 .923.422.923.942zM30.577 22.87c.586 1.288.541 2.976.534 3.188a.954.954 0 0 1-.328.685.918.918 0 0 1-.716.212c-.763-.102-2.563-1.319-3.576-2.08-2.3 1.969-4.515 2.965-6.59 2.965-3.346 0-5.382-2.518-6.361-3.728-.617-.758-.617-1.725-.076-2.388 1.055-1.306 3.091-3.823 6.436-3.823 2.076 0 4.29.996 6.59 2.966 1.014-.762 2.814-1.979 3.577-2.082a.92.92 0 0 1 .716.214c.198.17.317.419.328.683.007.214.052 1.902-.534 3.188zm-4.628 0a.777.777 0 0 1-.11-.086c-2.16-1.99-4.158-3-5.939-3-2.474 0-4.075 1.98-4.934 3.042.859 1.151 2.46 3.132 4.934 3.132 1.78 0 3.779-1.01 5.94-3 .034-.032.072-.061.11-.088zm2.818-.55c.173-.243.292-.615.371-1.013-.83.53-1.8 1.222-2.022 1.438a.965.965 0 0 1-.153.122.95.95 0 0 1 .16.136c.217.212 1.18.896 2.013 1.427-.077-.397-.198-.767-.37-1.01a.96.96 0 0 1 0-1.1zm-10.349-.65a.956.956 0 0 1 .278.677.95.95 0 0 1-.26.66.957.957 0 0 1-.663.281.953.953 0 0 1-.648-.263.972.972 0 0 1-.276-.678c0-.245.092-.49.276-.659.352-.358.961-.358 1.293-.018z"/></symbol><symbol viewBox="0 0 44 46" id="catalog-16" xmlns="http://www.w3.org/2000/svg"><path d="M25.064 24.097c0-.526.418-.952.934-.952h8.843c.516 0 .934.426.934.952 0 5.485 3.817 16.584 3.856 16.694a.959.959 0 0 1-.57 1.216.92.92 0 0 1-.31.054.936.936 0 0 1-.88-.635c-.11-.318-1.9-5.533-3.035-10.664h-6.757a.942.942 0 0 1-.933-.952c0-.527.417-.952.933-.952h6.365c-.251-1.353-.436-2.655-.505-3.808h-7.941a.943.943 0 0 1-.934-.953zm18.662 20.946a.942.942 0 0 1-.933.952H1.738a.942.942 0 0 1-.933-.952c0-.526.417-.952.933-.952h41.055c.515 0 .933.426.933.952zM.369 12.045c0-2.228 1.294-4.483 3.778-4.828a4.851 4.851 0 0 1 .173-3.525C5.097 1.942 6.746.854 8.627.854c1.412 0 2.711.643 3.588 1.702a4.655 4.655 0 0 1 3.59-1.702c1.879 0 3.528 1.088 4.304 2.838a4.85 4.85 0 0 1 .175 3.52c1.332.18 2.419.919 3.1 2.123.904 1.598.902 3.75-.007 5.356-.683 1.21-1.768 1.952-3.096 2.137a4.835 4.835 0 0 1 .156 2.509h1.921c.516 0 .933.425.933.952 0 5.485 5.11 20.214 5.161 20.362a.956.956 0 0 1-.565 1.216.931.931 0 0 1-1.192-.578c-.152-.44-2.758-7.948-4.247-14.335h-8.506a.942.942 0 0 1-.933-.952c0-.527.418-.952.933-.952h8.094c-.283-1.407-.492-2.715-.573-3.809h-1.816c-.922 1.27-2.43 1.939-3.884 1.939-1.443 0-2.704-.613-3.56-1.674-.192.23-.41.429-.638.616-.692 6.944-4.82 18.914-4.998 19.431a.936.936 0 0 1-.88.634.937.937 0 0 1-.312-.055.958.958 0 0 1-.568-1.215c.04-.117 3.785-10.969 4.764-17.831a4.568 4.568 0 0 1-.944.107c-1.881 0-3.53-1.088-4.307-2.84a4.852 4.852 0 0 1-.175-3.52C1.663 16.495.37 14.258.37 12.045zm1.867 0c0 1.22.796 3.37 3.367 2.842a.93.93 0 0 1 .991.459.969.969 0 0 1-.109 1.103 2.89 2.89 0 0 0-.464 3.12c.368.832 1.246 1.72 2.606 1.72 1.226 0 2.312-.81 2.702-2.013a.933.933 0 0 1 .886-.653c.402 0 .76.263.885.653.405 1.253 1.402 1.999 2.663 1.999.967 0 1.93-.458 2.47-1.327.022-.06.06-.109.093-.162.209-.399.342-.866.342-1.419 0-.89-.394-1.534-.725-1.918a.967.967 0 0 1-.106-1.105.914.914 0 0 1 .99-.457c1.632.331 2.55-.473 2.935-1.147.576-1.02.58-2.44.006-3.453-.38-.668-1.287-1.463-2.94-1.127a.926.926 0 0 1-.991-.458.963.963 0 0 1 .107-1.104 2.893 2.893 0 0 0 .465-3.121c-.368-.83-1.246-1.719-2.604-1.719-1.228 0-2.315.81-2.705 2.013-.251.78-1.52.78-1.771 0-.39-1.204-1.476-2.013-2.702-2.013-1.36 0-2.238.888-2.606 1.719a2.893 2.893 0 0 0 .464 3.121.963.963 0 0 1 .108 1.104.927.927 0 0 1-.992.458c-2.591-.531-3.365 1.65-3.365 2.885zm5.911-.022c0-2.287 1.824-4.15 4.068-4.15 2.243 0 4.067 1.863 4.067 4.15 0 2.289-1.824 4.15-4.067 4.15-2.244 0-4.068-1.861-4.068-4.15zm1.866 0c0 1.24.988 2.246 2.202 2.246 1.213 0 2.201-1.006 2.201-2.246 0-1.238-.988-2.246-2.201-2.246-1.214 0-2.202 1.008-2.202 2.246z"/></symbol><symbol viewBox="0 0 46 46" id="catalog-17" xmlns="http://www.w3.org/2000/svg"><path d="M45.328 10.623c-.385 1.576-3.151 1.794-5.609 1.66-.959 1.494-2.88 3.927-4.548 3.808-1.454-.122-4.659.161-5.533.548-.067.765-.078 3.347.052 7.79.013.486-.147 1.134-.37 2.03-.271 1.093-.61 2.457-.552 3.426.027.431.19 3.796-.933 4.859-.247 1.031-.582 5.257-.803 9.312h5.718a.95.95 0 1 1 0 1.902h-6.72a.95.95 0 0 1-.95-.999c.323-6.439.595-9.296.916-10.604L18.9 27.129c.048.855.169 1.616.295 1.948.654.384.994 2.296 1.485 15.897a.955.955 0 0 1-.952.984h-6.72a.95.95 0 1 1 0-1.902h5.733c-.228-5.97-.59-12.24-.853-13.552-1.084-1.1-.924-4.402-.898-4.828.07-1.18-.569-1.755-.597-1.78a.988.988 0 0 1-.34-.766c.108-2.56.158-5.578.067-6.491-.872-.385-4.073-.67-5.53-.548-1.724.15-3.592-2.316-4.551-3.808-2.452.134-5.224-.085-5.608-1.66C.297 10.08.412 9.564.756 9.17c.377-.43.972-.627 1.539-.708.007-.025.017-.05.024-.076.229-.627.892-.876 1.437-.9a.86.86 0 0 1 .578.164c1.38.935 6.003.885 8.594.632 2.393.163 5.943-.096 6.86-1.21.15-.184.303-.467.147-1.033-.484-1.75-.348-3.111.405-4.049C21.284.813 22.77.842 22.926.86c.09-.015 1.552-.04 2.492 1.131.753.938.89 2.299.408 4.047-.158.57-.006.853.145 1.035 1.007 1.225 4.942 1.339 6.694 1.21 2.758.256 7.378.305 8.759-.632a.872.872 0 0 1 .578-.165c.545.025 1.209.274 1.437.901.007.026.017.05.024.076.567.08 1.162.278 1.54.708.344.394.459.91.325 1.453zm-3.205-.285a.95.95 0 0 1-.824-.56l-.001-.005c-2.919.921-8.001.466-8.654.404-.48.048-6.231.42-8.144-1.896-.433-.528-.876-1.432-.51-2.751.3-1.084.284-1.917-.05-2.342-.343-.437-1.022-.427-1.024-.43-.085 0-.747-.014-1.098.43-.333.425-.35 1.258-.049 2.344.365 1.317-.078 2.221-.51 2.749-1.91 2.316-7.667 1.948-8.31 1.896-.51.067-5.57.522-8.488-.404l-.002.005a.94.94 0 0 1-.965.557 4.37 4.37 0 0 0-.416-.019h-.004c.825.084 2.149.127 3.4.032.357-.023.7.15.889.459 1.05 1.74 2.539 3.388 3.065 3.39.061-.01 6.867-.32 7.486 1.696.258.85.14 4.841.057 6.909.272.327.543.81.724 1.403l8.057 8.204c.101-.67.168-1.551.116-2.409-.076-1.26.301-2.78.604-4 .144-.574.322-1.29.315-1.516-.225-7.673-.013-8.363.056-8.59.62-2.017 7.422-1.707 7.493-1.697.522-.002 2.011-1.65 3.06-3.39.186-.31.53-.49.888-.46.99.075 2.025.066 2.839-.009z"/></symbol><symbol viewBox="0 0 45 46" id="catalog-18" xmlns="http://www.w3.org/2000/svg"><path d="M13.666 7.06c-2.061 1.334-3.973 2.003-5.708 2.003a6.26 6.26 0 0 1-1.602-.202c-2.43-.644-3.48-2.591-3.523-2.675L.76 1.865A.958.958 0 0 1 1.2.592a.937.937 0 0 1 1.26.442l2.057 4.29c.009.016.72 1.285 2.35 1.702 1.598.402 3.542-.12 5.781-1.57 1.29-.831 2.576-1.08 3.817-.746 2.178.597 3.33 2.841 3.378 2.936a.956.956 0 0 1-.413 1.28.94.94 0 0 1-1.27-.417c-.006-.013-.832-1.593-2.199-1.962-.712-.187-1.463-.024-2.294.514zM38.81 44.03c-1.727.973-3.53 1.47-5.356 1.47-3.49 0-6.82-1.894-8.909-5.062l-9.05-15.178c-2.741-4.95-.54-11.454 4.893-14.523 1.845-1.04 3.901-1.591 5.947-1.591 3.822 0 7.132 1.857 8.854 4.965L43.24 29.84c2.491 5.61.701 11.294-4.429 14.19zm2.73-13.363l-8.015-15.653c-1.368-2.47-4.062-3.962-7.191-3.962-1.724 0-3.461.466-5.026 1.349-4.525 2.555-6.401 7.896-4.182 11.903l9.013 15.114c2.645 4.006 7.524 5.336 11.75 2.948 4.295-2.424 5.728-7.016 3.65-11.7zm-13.963-8.891a.959.959 0 0 1-.364 1.297.94.94 0 0 1-1.284-.367l-3.155-5.702a.958.958 0 0 1 .364-1.298.94.94 0 0 1 1.284.367z"/></symbol><symbol viewBox="0 0 44 27" id="catalog-19" xmlns="http://www.w3.org/2000/svg"><path d="M43.927 25.62a.936.936 0 0 1-.942.933H1.547a.936.936 0 0 1-.941-.932c0-.509.413-.918.925-.928v-6.522c0-.514.421-.93.942-.93h2.12L2.49 10.508a.927.927 0 0 1 .664-1.177c.332-.084 2.747-.646 4.882-.096L7.67 6.727a.928.928 0 0 1 .243-.767.878.878 0 0 1 .758-.294c1.9.134 3.335.7 4.4 1.329a159.85 159.85 0 0 0-1.452-5.612.926.926 0 0 1 .219-.882.92.92 0 0 1 .874-.279c.333.064 7.902 1.669 11.38 10.493 1.936-1.123 4.746-2.032 8.643-1.722a.941.941 0 0 1 .72.428.925.925 0 0 1 .088.826l-3.691 9.788.349.93h10.813v-1.302l-2.554-1.77c-.456.55-.862 1.082-1.122 1.527a.946.946 0 0 1-1.288.339.928.928 0 0 1-.342-1.274c.877-1.496 2.932-3.653 4.295-5.01-4.764-.555-6.004 2.059-6.059 2.182a.946.946 0 0 1-1.233.489.921.921 0 0 1-.507-1.204c.08-.2 2.097-4.86 9.975-2.958.337.08.6.336.688.665a.92.92 0 0 1-.265.915 67.268 67.268 0 0 0-2.9 2.918l2.795 1.936a.927.927 0 0 1 .401.763v5.508h.086c.521 0 .942.416.942.93zM13.888 2.54a151.214 151.214 0 0 1 1.67 6.861c1.087 4.984 1.5 8.247 1.645 9.702h10.99l3.133-8.308h-.092c-3.299 0-5.545 1.014-6.98 2.037-.01.01-.02.016-.03.025-1.37.987-1.992 1.974-2.044 2.061a.953.953 0 0 1-1.288.331.925.925 0 0 1-.34-1.269c.056-.095.658-1.075 1.942-2.145-2.18-5.934-6.34-8.387-8.606-9.294zm-9.287 8.413l2.543 8.15h8.162c-.156-1.463-.568-4.56-1.562-9.16-.34-.426-1.576-1.766-4.03-2.26l1.33 9.092a.935.935 0 0 1-.934 1.064.94.94 0 0 1-.93-.798l-.833-5.69c-1.033-.581-2.626-.556-3.746-.398zm-1.187 8.15v5.587h37.601v-1.863H29.547a.939.939 0 0 1-.883-.607l-.471-1.255H5.298a.936.936 0 0 1-.942-.93c0-.475.362-.85.825-.91l-.007-.022z"/></symbol><symbol viewBox="0 0 44 31" id="catalog-2" xmlns="http://www.w3.org/2000/svg"><path d="M43.855 21.98c0 4.715-4.23 8.55-9.424 8.55-5.196 0-9.424-3.835-9.424-8.55 0-.011.005-.02.005-.03.002-.061.023-.12.036-.18.015-.066.024-.13.05-.19.005-.009.004-.018.008-.026L32.93 5.722h-9.778v4.489c0 .528-.42.956-.941.956a.948.948 0 0 1-.941-.956V5.72H11.5l7.777 15.835c.004.007.003.015.006.023.029.062.039.132.053.2.013.058.032.113.034.17 0 .011.006.02.006.031 0 4.715-4.226 8.55-9.422 8.55-5.196 0-9.424-3.835-9.424-8.55 0-.011.005-.02.006-.03.002-.061.022-.12.036-.18.014-.066.023-.13.05-.19.004-.009.003-.018.007-.026L9.139 4.34c.01-.021.033-.03.045-.05a.935.935 0 0 1 .254-.283c.034-.024.062-.047.099-.067a.907.907 0 0 1 .444-.128h11.29V1.418c0-.528.42-.955.941-.955.52 0 .941.427.941.955v2.393h11.305l.005.002a.91.91 0 0 1 .437.126c.037.02.067.044.1.068a.942.942 0 0 1 .257.287c.01.018.032.027.041.046l8.457 17.216c.004.007.003.015.006.023.03.062.039.132.054.2.012.058.032.113.034.17 0 .011.005.02.005.031zm-40.856-.956h13.916L9.979 6.902zm14.418 1.91H2.491c.528 3.212 3.673 5.686 7.464 5.686 3.79 0 6.935-2.474 7.462-5.685zM34.454 6.903l-6.98 14.122h13.918zm7.44 16.033H26.967c.528 3.21 3.674 5.685 7.465 5.685 3.79 0 6.936-2.474 7.464-5.685z"/></symbol><symbol viewBox="0 0 46 46" id="catalog-20" xmlns="http://www.w3.org/2000/svg"><path d="M45.885.998v37.654a.94.94 0 0 1-.942.941h-4.71V44.3a.94.94 0 0 1-.94.942h-7.535a.942.942 0 0 1-.942-.942v-4.707h-15.07V44.3a.941.941 0 0 1-.942.942H7.27a.941.941 0 0 1-.942-.942v-4.707H1.621a.94.94 0 0 1-.941-.941V.998c0-.52.42-.94.941-.94h43.322c.52 0 .942.42.942.94zM13.863 39.593H8.212v3.766h5.65zm24.487 0H32.7v3.766h5.65zm5.651-37.652H2.563v35.77h41.438zM4.447 29.239v-3.765c0-.52.42-.942.941-.942h2.826v-7.53H5.388a.941.941 0 0 1-.941-.942v-3.765a.94.94 0 0 1 .941-.941h2.826V6.647c0-.52.421-.942.941-.942h30.137c.52 0 .942.421.942.942v26.358a.94.94 0 0 1-.942.94H9.155a.94.94 0 0 1-.941-.94V30.18H5.388a.94.94 0 0 1-.941-.941zm5.65 2.824H38.35V7.588H10.097zM8.214 15.12v-1.883H6.33v1.883zM6.33 28.297h1.884v-1.882H6.33zm11.875-2.454c-3.309-3.307-3.309-8.689 0-11.996a8.43 8.43 0 0 1 6.002-2.486c2.266 0 4.398.883 6 2.486 3.31 3.307 3.31 8.689 0 11.996a8.427 8.427 0 0 1-6 2.484c-2.268 0-4.4-.88-6.002-2.484zm1.332-1.331c2.492 2.494 6.843 2.494 9.339 0a6.605 6.605 0 0 0 0-9.334 6.565 6.565 0 0 0-4.669-1.934 6.565 6.565 0 0 0-4.67 1.934 6.605 6.605 0 0 0 0 9.334zm2.349-2.348a3.257 3.257 0 0 1-.962-2.32c0-.877.342-1.7.962-2.32 1.01-1.009 2.623-1.181 3.859-.548L27.02 15.7a.941.941 0 1 1 1.332 1.331l-1.27 1.27a3.27 3.27 0 0 1-2.876 4.825 3.263 3.263 0 0 1-2.321-.962zm.921-2.32c0 .373.146.725.41.99.53.53 1.448.53 1.978 0a1.4 1.4 0 0 0-1.977-1.979c-.265.264-.41.615-.41.99z"/></symbol><symbol viewBox="0 0 39 46" id="catalog-21" xmlns="http://www.w3.org/2000/svg"><path d="M38.445 29.45c.001.426-.164.825-.464 1.128l-7.173 7.226a1.717 1.717 0 0 1-.712.415c-.08.02-.327.055-.41.055-.228 0-.46-.051-.67-.147-.215-.095-.307-.136-8.992-8.741l-.372-.367c-.364-.367-.563-.564-.51-7.96l.003-.36a1.6 1.6 0 0 1 1.574-1.597l7.221-.033c.427 0 .826.162 1.126.459l8.906 8.8c.301.298.47.696.473 1.122zm-2.006.01l-8.611-8.511-6.801.124c-.035 4.843.059 6.327.12 6.78l.203.199c5.724 5.67 7.714 7.611 8.365 8.23zm-10.736-7.126a2.39 2.39 0 0 1 .708 1.704 2.386 2.386 0 0 1-.708 1.709 2.406 2.406 0 0 1-1.709.705 2.4 2.4 0 0 1-1.71-.707 2.381 2.381 0 0 1-.707-1.707c0-.644.252-1.25.71-1.705.909-.91 2.504-.912 3.416.001zm-1.175 1.705a.53.53 0 0 0-.534-.532.533.533 0 0 0-.377.908.547.547 0 0 0 .754.002.525.525 0 0 0 .157-.378zm6.365 16.72v3.7a.94.94 0 0 1-.942.94H1.718a.94.94 0 0 1-.942-.94V10.65a.94.94 0 0 1 .942-.939h6.517V8.083c0-4.267 3.476-7.874 7.589-7.874 4.176 0 7.482 3.533 7.482 7.874V9.71h6.645c.52 0 .942.42.942.939v5.278a.94.94 0 0 1-.942.94.94.94 0 0 1-.942-.94V11.59h-5.703v2.76a.94.94 0 0 1-.942.94.94.94 0 0 1-.942-.94v-2.76H10.12v2.76a.94.94 0 0 1-.942.94.94.94 0 0 1-.942-.94v-2.76H2.66v31.93h26.349v-2.76c0-.52.421-.94.942-.94.52 0 .942.42.942.94zM10.119 9.71h11.303V8.083c0-3.249-2.511-5.994-5.484-5.994-3.153 0-5.819 2.802-5.819 5.994z"/></symbol><symbol viewBox="0 0 46 46" id="catalog-22" xmlns="http://www.w3.org/2000/svg"><path d="M24.02 22.856c.394 1.274.499 2.933.31 4.931a.949.949 0 0 1-1.029.86.953.953 0 0 1-.853-1.04c.164-1.745.087-3.151-.232-4.182-.596-1.928-.89-3.755-1.038-5.051-1.768 1.294-3.488 1.973-5.124 1.973-6.423 0-8.971-9.759-9.076-10.175a.95.95 0 0 1 .75-1.177c.086-.016 2.188-.39 4.803-.39 4.056 0 6.998.903 8.71 2.622C22.386 7.382 26.137 2.48 37.366.396a.955.955 0 0 1 .737.174c.21.16.347.402.372.666.047.438 1.052 10.776-3.371 15.733-1.541 1.728-3.547 2.604-5.96 2.604h-.001c-1.797 0-3.851-.526-6.098-1.512.136 1.21.41 2.972.975 4.795zM22.727 13.4c.91-1.21 2.19-2.497 3.87-3.124 3.046-1.137 5.897-3.527 5.927-3.552a.937.937 0 0 1 1.33.12.964.964 0 0 1-.118 1.346c-.127.106-3.124 2.624-6.483 3.877-1.998.746-3.363 2.834-3.998 3.998 2.226 1.046 4.211 1.597 5.89 1.597h.002c1.88 0 3.371-.645 4.556-1.973C36.817 12.2 36.8 5.14 36.668 2.48c-11.19 2.357-13.587 7.65-13.942 10.921zm-6.672 5.036c1.352 0 2.842-.669 4.432-1.93-1.72-1.084-4.9-1.524-6.167-1.604a.953.953 0 0 1-.884-1.012.958.958 0 0 1 1-.894c.483.03 3.868.284 6.346 1.499-.001-.157.002-.32.008-.487.001-.037-.003-.063-.002-.098-1.515-3.994-8.904-3.517-11.665-3.187.777 2.31 3.014 7.713 6.932 7.713zm5.304 20.372v4.38c0 1.263-1.045 2.291-2.328 2.291h-4.052c-1.283 0-2.328-1.028-2.328-2.291l.006-.853c.026-2.345.037-3.415-1.68-4.518-5.289-3.4-5.488-3.575-7.138-6.262-.456-.741-1.042-1.699-1.945-3.025C.668 26.724.683 25.305.71 22.727l.01-1.388c0-1.3 1-2.28 2.326-2.28 1.327 0 2.328.98 2.328 2.28v3.387c0 .446.134.88.39 1.255 2.363 3.48 2.583 3.68 2.86 3.933.548.428.98.676 1.284.81a6.52 6.52 0 0 0-.432-.967l-1.982-2.373a1.99 1.99 0 0 1-.489-2.193c.56-1.406 2.735-1.892 3.936-.73 2.813 2.72 3.64 3.701 4.085 4.229.389.46.46.543 1.576 1.376 4.377 2.175 4.756 5.515 4.756 8.743zm-1.89 0c0-2.943-.282-5.335-3.846-7.118-1.386-1.015-1.549-1.187-2.034-1.764-.422-.501-1.21-1.435-3.953-4.086-.328-.316-.808-.103-.877.06-.018.052.11.175.115.18l2.152 2.594c.716 1.252 1.293 2.755.524 3.614-.198.221-.56.484-1.161.484-.98 0-2.1-.705-2.866-1.296-.022-.016-.144-.127-.163-.144-.428-.389-.662-.603-3.154-4.27a4.147 4.147 0 0 1-.721-2.337v-3.387c0-.306-.238-.37-.438-.37-.199 0-.437.064-.437.37L2.6 22.75c-.026 2.399-.037 3.392.85 4.7.925 1.36 1.527 2.34 1.994 3.1 1.441 2.348 1.469 2.394 6.548 5.658 2.602 1.672 2.58 3.747 2.554 6.15l-.006.832c0 .21.196.381.438.381h4.052c.242 0 .438-.17.438-.381zM44.634 28.53a71.047 71.047 0 0 0-1.943 3.024c-1.65 2.687-1.85 2.863-7.139 6.263-1.718 1.104-1.707 2.175-1.68 4.523l.005.848c0 1.263-1.045 2.291-2.328 2.291h-4.052c-1.283 0-2.327-1.028-2.327-2.291v-4.38c0-3.227.378-6.567 4.898-8.83.976-.746 1.046-.829 1.435-1.29.447-.529 1.275-1.512 4.085-4.229 1.2-1.163 3.375-.677 3.936.73.31.783.101 1.633-.561 2.272l-1.95 2.37a6.549 6.549 0 0 0-.396.894c.303-.13.722-.365 1.246-.769.321-.299.543-.5 2.903-3.976.255-.374.39-.809.39-1.255v-3.387c0-1.3 1-2.28 2.326-2.28 1.327 0 2.328.98 2.328 2.28l.009 1.38c.028 2.583.042 4.005-1.185 5.812zm-.705-5.79l-.01-1.402c0-.612-.874-.612-.874 0v3.387c0 .834-.25 1.64-.722 2.337-2.485 3.66-2.722 3.875-3.152 4.268-.018.017-.142.13-.164.147-.768.59-1.888 1.295-2.868 1.295-.601 0-.963-.263-1.16-.484-.682-.764-.28-1.947.082-2.768.154-.347.281-.638.445-.843l-.002-.003 2.08-2.515c.078-.084.205-.207.187-.258-.04-.1-.227-.246-.462-.246a.585.585 0 0 0-.415.185c-2.74 2.65-3.528 3.584-3.951 4.086-.487.577-.65.748-1.896 1.677-3.705 1.87-3.988 4.263-3.988 7.205v4.38c0 .21.196.381.438.381h4.052c.242 0 .438-.17.438-.381l-.006-.828c-.025-2.405-.047-4.481 2.556-6.154 5.08-3.264 5.105-3.31 6.548-5.658a70.25 70.25 0 0 1 1.991-3.1c.89-1.31.879-2.304.853-4.708z"/></symbol><symbol viewBox="0 0 46 46" id="catalog-23" xmlns="http://www.w3.org/2000/svg"><path d="M45.202 20.46a.948.948 0 0 1-1.338.116l-4.693-3.935-2.709 28.446a.95.95 0 0 1-.946.858H10.39a.95.95 0 0 1-.947-.858L6.734 16.643l-4.69 3.933a.95.95 0 0 1-1.339-.117.945.945 0 0 1 .117-1.334L22.343 1.08a.95.95 0 0 1 1.221 0l21.521 18.044a.944.944 0 0 1 .117 1.334zm-7.8-5.302L22.955 3.044 8.504 15.16l2.75 28.89h23.397zm-14.448-1.667c4.501 0 8.163 3.65 8.163 8.14 0 4.489-3.662 8.14-8.163 8.14-4.502 0-8.163-3.651-8.163-8.14 0-4.49 3.661-8.14 8.163-8.14zm0 1.894c-3.453 0-6.263 2.802-6.263 6.246 0 3.444 2.81 6.245 6.263 6.245s6.262-2.801 6.262-6.245-2.81-6.246-6.262-6.246zm3.533 20.713a3.531 3.531 0 0 1-3.533 3.522 3.531 3.531 0 0 1-3.533-3.522 3.532 3.532 0 0 1 3.533-3.523 3.532 3.532 0 0 1 3.533 3.523zm-1.9 0a1.633 1.633 0 0 0-3.266 0 1.632 1.632 0 0 0 3.266 0z"/></symbol><symbol viewBox="0 0 37 44" id="catalog-24" xmlns="http://www.w3.org/2000/svg"><path d="M36.36 40.373c.034.722-.284 1.411-.97 2.106-.654.661-1.3.984-1.977.984-1.343 0-2.31-1.19-3.773-2.993-.856-1.054-1.922-2.366-3.318-3.752-1.372-1.363-2.878-2.052-4.476-2.052-1.396 0-2.528.525-3.078.837-.032.019-.065.03-.098.047l-.013.007c-.818.451-1.642.776-2.451.95a8.27 8.27 0 0 1-1.742.189c-3.888 0-6.985-2.81-10.078-5.939-5.41-5.48-5.702-14.802-.622-19.946 2.422-2.454 6.012-3.86 9.852-3.86 3.948 0 7.572 1.467 10.202 4.13 3.558 3.605 6.67 7.234 5.678 11.969-.172.82-.494 1.657-.94 2.485l-.002.006c-.019.033-.03.068-.048.102-.68 1.228-1.924 4.425 1.198 7.65 1.366 1.412 2.66 2.49 3.7 3.358 1.742 1.45 2.892 2.409 2.956 3.722zm-18.597-6.47l9.162-9.278c.357-.664.614-1.326.747-1.966.801-3.814-1.869-6.897-5.172-10.244-2.279-2.305-5.435-3.577-8.884-3.577-3.35 0-6.46 1.205-8.535 3.306C.704 16.58.993 24.651 5.704 29.423c3.198 3.237 6.423 6.034 10.116 5.238.633-.135 1.285-.396 1.943-.758zm16.735 6.56c-.024-.478-1.118-1.39-2.277-2.356-1.076-.895-2.412-2.008-3.85-3.494-2.113-2.183-2.627-4.4-2.538-6.214l-4.357 4.412c.127-.006.24-.032.37-.032 2.104 0 4.048.871 5.78 2.59 1.468 1.457 2.57 2.814 3.454 3.903.919 1.132 1.87 2.304 2.333 2.304.15 0 .388-.157.659-.432.282-.285.433-.526.426-.68zM22.76 4.075C22.76 1.92 24.491.17 26.617.17c2.126 0 3.855 1.751 3.855 3.905 0 2.152-1.73 3.905-3.855 3.905-2.126 0-3.857-1.753-3.857-3.905zm1.864 0c0 1.112.893 2.017 1.993 2.017 1.097 0 1.99-.905 1.99-2.017 0-1.112-.893-2.018-1.99-2.018-1.1 0-1.993.906-1.993 2.018zM7.053 18.125v5.662a.938.938 0 0 1-.932.944.937.937 0 0 1-.932-.944v-5.661c0-.522.417-.944.932-.944.515 0 .932.422.932.944zm3.727-2.8v11.206a.937.937 0 0 1-.932.944.937.937 0 0 1-.931-.944V15.325c0-.52.416-.943.931-.943.515 0 .932.423.932.943z"/></symbol><symbol viewBox="0 0 46 38" id="catalog-25" xmlns="http://www.w3.org/2000/svg"><path d="M30.315 34.492v1.645c0 .765-.632 1.39-1.409 1.39h-12.22a1.401 1.401 0 0 1-1.408-1.39v-1.645a1.4 1.4 0 0 1 .898-1.295c2.895-1.109 3.795-1.67 4.068-1.887v-.009a5.145 5.145 0 0 1-.875-1.621c-.294-.3-.49-.69-.55-1.108-.061-.43.02-.852.226-1.224v-1.2c0-2.147 1.438-3.481 3.752-3.481 2.35 0 3.75 1.301 3.75 3.481v1.2a1.964 1.964 0 0 1-.326 2.333 5.068 5.068 0 0 1-.872 1.62v.058c.18.108 1.014.671 4.067 1.837a1.4 1.4 0 0 1 .899 1.296zm-1.886.307c-4.205-1.63-4.731-2.31-4.923-2.914a.91.91 0 0 1-.042-.272v-.658c0-.238.096-.468.265-.64.33-.334.6-.829.758-1.396a.927.927 0 0 1 .365-.506c-.135-.164-.19-.583-.19-.793v-1.472c0-1.133-.574-1.638-1.865-1.638-1.274 0-1.867.52-1.867 1.638v1.472a.91.91 0 0 1-.208.577c.177.123.322.517.38.72.163.576.427 1.06.762 1.398.17.172.265.402.265.64v.658a.905.905 0 0 1-.042.27c-.227.724-1.116 1.44-4.923 2.916v.884h11.265zm16.968-20.585v1.644a1.4 1.4 0 0 1-1.408 1.39H31.77a1.4 1.4 0 0 1-1.409-1.39v-1.644c0-.577.352-1.085.899-1.295 2.892-1.108 3.793-1.669 4.065-1.886v-.01a5.131 5.131 0 0 1-.874-1.622 1.999 1.999 0 0 1-.549-1.107 1.94 1.94 0 0 1 .225-1.224v-1.2c0-2.147 1.438-3.48 3.752-3.48 2.349 0 3.752 1.3 3.752 3.48v1.2a1.958 1.958 0 0 1-.326 2.331 5.1 5.1 0 0 1-.872 1.621v.06c.178.108 1.01.668 4.067 1.836.544.21.896.718.896 1.296zm-1.885.306c-3.806-1.475-4.695-2.19-4.921-2.914a.905.905 0 0 1-.043-.27v-.66a.91.91 0 0 1 .264-.639c.332-.336.602-.831.76-1.395a.924.924 0 0 1 .364-.507c-.134-.165-.19-.584-.19-.794V5.87c0-1.132-.576-1.637-1.866-1.637-1.274 0-1.867.52-1.867 1.637v1.472c0 .21-.074.413-.206.577.176.123.322.518.381.723.158.564.427 1.059.76 1.395a.91.91 0 0 1 .264.64v.658a.905.905 0 0 1-.043.271c-.226.724-1.116 1.438-4.921 2.915v.884h11.264zm-28.282-.306v1.644a1.4 1.4 0 0 1-1.408 1.39H1.604a1.4 1.4 0 0 1-1.408-1.39v-1.644c0-.577.351-1.085.898-1.295 2.892-1.108 3.793-1.669 4.065-1.886v-.01A5.135 5.135 0 0 1 4.284 9.4a1.998 1.998 0 0 1-.548-1.107c-.06-.429.018-.852.225-1.224v-1.2c0-2.147 1.437-3.48 3.752-3.48 2.35 0 3.75 1.3 3.75 3.48v1.199c.208.373.288.797.227 1.227a1.97 1.97 0 0 1-.551 1.105 5.09 5.09 0 0 1-.872 1.621v.06c.178.108 1.01.668 4.067 1.836.544.21.896.718.896 1.296zm-1.885.306c-3.806-1.475-4.695-2.19-4.922-2.914a.909.909 0 0 1-.042-.27v-.66c0-.237.094-.467.263-.639.334-.336.603-.831.76-1.395a.927.927 0 0 1 .365-.507c-.134-.165-.191-.584-.191-.794V5.87c0-1.132-.575-1.637-1.865-1.637-1.274 0-1.867.52-1.867 1.637v1.472c0 .21-.074.413-.206.577.177.123.322.518.38.723.16.564.428 1.059.761 1.395a.91.91 0 0 1 .263.64v.658a.905.905 0 0 1-.042.271c-.226.724-1.115 1.438-4.921 2.915v.884h11.264zm.681-10.477a.91.91 0 0 1 .339-1.26c5.249-2.987 12.074-2.989 17.327 0a.91.91 0 0 1 .342 1.26.949.949 0 0 1-1.288.332c-4.68-2.66-10.758-2.658-15.431 0a.956.956 0 0 1-1.289-.332zm26.146 15.142c0 .035-.002.07-.006.105-.576 4.946-3.356 9.37-7.625 12.136a.963.963 0 0 1-.522.153.947.947 0 0 1-.786-.414.913.913 0 0 1-.156-.508c0-.298.149-.592.421-.769 3.806-2.463 6.282-6.402 6.794-10.806a.943.943 0 0 1 1.044-.811.93.93 0 0 1 .836.914zM14.558 29.888a.914.914 0 0 1 .265 1.278.961.961 0 0 1-1.307.26c-4.27-2.767-7.048-7.19-7.624-12.136a.929.929 0 0 1 .83-1.02.946.946 0 0 1 1.044.812c.512 4.403 2.988 8.342 6.792 10.806z"/></symbol><symbol viewBox="0 0 46 46" id="catalog-3" xmlns="http://www.w3.org/2000/svg"><path d="M41.039 24.801c-.701 8.12-6.792 14.817-14.814 16.288h-.007v.001l-.036.003a.952.952 0 0 1-.13.012.955.955 0 0 1-.822-.472c-.004-.008-.005-.018-.01-.027a.948.948 0 0 1-.107-.283v-.01c-.049-.283-.871-5.26.623-9.782a7.844 7.844 0 0 1-2.795.529 7.844 7.844 0 0 1-2.845-.544c1.557 4.518.78 9.506.733 9.788 0 .004-.003.007-.004.011 0 .005.002.01 0 .015a.955.955 0 0 1-1.109.77C11.641 39.649 5.523 32.929 4.84 24.758c-.006-.068.014-.13.022-.195.004-.037.004-.072.012-.108a.937.937 0 0 1 .096-.23c.02-.035.035-.07.058-.104a.914.914 0 0 1 .154-.155c.04-.035.076-.07.121-.097.052-.032.11-.05.17-.072.047-.017.086-.048.137-.058 3.906-.784 7.124-.514 9.619.79a7.866 7.866 0 0 1 .446-4.243H6.182c-.005 0-.008-.003-.012-.003a.963.963 0 0 1-.212-.025c-.027-.006-.046-.024-.072-.032a1.008 1.008 0 0 1-.166-.076.91.91 0 0 1-.166-.112.918.918 0 0 1-.095-.103.924.924 0 0 1-.13-.192c-.017-.034-.028-.07-.04-.105a.905.905 0 0 1-.053-.262c-.001-.016-.01-.03-.01-.045 0-.023.011-.04.013-.061.003-.054-.008-.105.004-.158C7.168 10.844 14.445 5.07 22.941 5.07c8.495 0 15.77 5.774 17.695 14.041.012.05 0 .098.004.148.002.025.015.046.015.072 0 .019-.01.035-.01.053a.915.915 0 0 1-.05.24.859.859 0 0 1-.047.126.913.913 0 0 1-.118.175.923.923 0 0 1-.11.118.93.93 0 0 1-.15.101.917.917 0 0 1-.182.083c-.024.008-.041.025-.066.03-.036.01-.07 0-.105.004-.04.006-.075.025-.117.025h-9.495a7.86 7.86 0 0 1 .456 4.143c2.463-1.255 5.638-1.501 9.481-.727a.943.943 0 0 1 .369.167c.34.169.562.531.528.933zm-24.206-6.426c.185-.231.349-.474.563-.688a7.79 7.79 0 0 1 5.545-2.292c2.096 0 4.064.814 5.543 2.292.214.214.378.457.562.688h9.404A16.174 16.174 0 0 0 22.94 6.977c-7.193 0-13.405 4.631-15.51 11.398zm2.225 20.624c.206-2.353.35-8.327-3.014-11.565-2.048-1.972-5.147-2.623-9.193-1.966a16.252 16.252 0 0 0 12.207 13.53zm3.883-9.848a5.891 5.891 0 0 0 4.192-1.732 5.936 5.936 0 0 0 0-8.383 5.895 5.895 0 0 0-4.192-1.732 5.897 5.897 0 0 0-4.195 1.732 5.934 5.934 0 0 0 0 8.382 5.895 5.895 0 0 0 4.195 1.733zm16.09-3.699c-4.098-.688-7.223-.05-9.266 1.939-3.339 3.25-3.127 9.24-2.894 11.597a16.275 16.275 0 0 0 12.16-13.536zm6.486-2.226c0 12.444-10.127 22.568-22.576 22.568C10.49 45.794.364 35.67.364 23.226.364 10.784 10.492.661 22.941.661c12.449 0 22.576 10.123 22.576 22.565zm-1.91 0c0-11.39-9.271-20.656-20.666-20.656-11.396 0-20.667 9.266-20.667 20.656 0 11.392 9.271 20.659 20.667 20.659 11.395 0 20.666-9.267 20.666-20.659z"/></symbol><symbol viewBox="0 0 38 46" id="catalog-4" xmlns="http://www.w3.org/2000/svg"><path d="M19.94 29.74v13.62h10.023a.944.944 0 1 1 0 1.884H8.027a.943.943 0 1 1 0-1.884h10.021V29.733L.696 9.103a.944.944 0 0 1 .724-1.548h23.443l4.954-6.97a.952.952 0 0 1 1.318-.224.941.941 0 0 1 .226 1.314l-4.18 5.88h9.868c.37 0 .706.216.86.55a.939.939 0 0 1-.143 1.008zM3.445 9.44l15.557 18.495L34.986 9.44h-9.144l-2.64 3.715c.424.54.717 1.185.814 1.92.145 1.1-.13 2.241-.78 3.213-.864 1.298-2.303 2.104-3.755 2.104-.432 0-.844-.09-1.24-.227l-1.096 1.514a.943.943 0 0 1-1.319.213.936.936 0 0 1-.214-1.314l1.06-1.465c-1.186-1.371-1.305-3.542-.148-5.277 1.16-1.736 3.419-2.485 5.168-1.82l1.831-2.576zm18.216 7.804c.396-.592.565-1.275.479-1.922-.08-.601-.375-1.1-.83-1.402a1.84 1.84 0 0 0-1.032-.302c-.824 0-1.66.485-2.181 1.264-.787 1.18-.63 2.67.353 3.323.953.637 2.45.179 3.211-.96z"/></symbol><symbol viewBox="0 0 42 46" id="catalog-5" xmlns="http://www.w3.org/2000/svg"><path d="M41.769 45.018a.906.906 0 0 1-.639.266.907.907 0 0 1-.666-.294c-2.136-2.304-3.74-4.132-4.767-5.435-2.096-2.655-2.024-5.06-1.935-8.103.03-1.051.066-2.216.02-3.548-.112-3.133-2.14-5.705-3.589-7.157v8.389l.599.88a.978.978 0 0 1-.225 1.333.905.905 0 0 1-1.287-.233l-3.527-5.193c-.383-.65-.879-.403-1.024-.314-.15.094-.614.455-.22 1.128h-.002a.987.987 0 0 1 .093.267c.705.966 1.675 2.677 2.492 4.195.03.051.063.098.084.155a90.292 90.292 0 0 1 1.497 2.898c.813 2.852 2.986 6.763 4.666 9.54a.975.975 0 0 1-.293 1.317.897.897 0 0 1-.489.145.914.914 0 0 1-.784-.448c-1.44-2.383-3.223-5.575-4.293-8.34H3.047c-1.35 0-2.409-1.009-2.409-2.297V2.43C.638 1.156 1.696.157 3.047.157H27.98c1.303 0 2.213.935 2.213 2.274v15.773c1.282 1.038 5.256 4.65 5.433 9.63.05 1.38.015 2.587-.018 3.675-.086 2.955-.14 4.737 1.52 6.838.982 1.246 2.597 3.085 4.67 5.322a.98.98 0 0 1-.03 1.35zm-17.117-21.39V5.89H6.18v24.844h18.524a178.852 178.852 0 0 0-1.723-2.925.808.808 0 0 1-.055-.083l-.002-.006c-.9-1.548-.254-3.057.851-3.746.266-.165.565-.283.877-.344zm3.694 2.791V2.43c0-.273-.089-.361-.366-.361H3.047c-.233 0-.561.112-.561.362v31.74c0 .237.29.384.56.384h23.75c-.167-.38-.533-1.067-1.003-1.91H5.256c-.51 0-.923-.427-.923-.955V4.934c0-.528.413-.956.923-.956h20.32c.51 0 .923.428.923.956v19.067c.3.208.576.495.8.879zm-11.01-13.841c0-.529.412-.956.923-.956h3.503c.51 0 .923.427.923.956 0 .528-.413.956-.923.956h-3.503c-.51 0-.924-.428-.924-.956zm0-3.822c0-.528.412-.955.923-.955h3.503c.51 0 .923.427.923.955 0 .529-.413.956-.923.956h-3.503c-.51 0-.924-.427-.924-.956zm0 7.644c0-.528.412-.956.923-.956h3.503c.51 0 .923.428.923.956s-.413.956-.923.956h-3.503c-.51 0-.924-.428-.924-.956zm5.469 3.823c0 .528-.413.955-.924.955H8.95c-.51 0-.924-.427-.924-.955 0-.529.413-.956.924-.956h12.93c.51 0 .924.427.924.956zm-1.871 3.821c0 .529-.413.956-.924.956H8.95c-.51 0-.923-.427-.923-.956 0-.528.413-.955.924-.955h11.06c.51 0 .923.427.923.955zm-6.165 10.223a.91.91 0 0 1-.277-.669.91.91 0 0 1 .277-.669c.314-.362.96-.362 1.293 0a.917.917 0 0 1 .277.67.99.99 0 0 1-.277.688.907.907 0 0 1-.646.267.85.85 0 0 1-.647-.287zM8.027 16.4V8.756c0-.528.413-.955.924-.955h5.541c.51 0 .924.427.924.955V16.4c0 .528-.413.956-.924.956H8.951c-.51 0-.924-.428-.924-.956zm1.847-.956h3.695V9.712H9.874z"/></symbol><symbol viewBox="0 0 44 40" id="catalog-6" xmlns="http://www.w3.org/2000/svg"><path d="M43.854 38.603a.95.95 0 0 1-.942.96H1.484a.95.95 0 0 1-.942-.96.95.95 0 0 1 .942-.96h1.872V22.274h-.942a.951.951 0 0 1-.941-.96v-2.882a.951.951 0 0 1-.942-.96.95.95 0 0 1 .942-.96h1.883V14.59a.95.95 0 0 1-.942-.96c0-.531.422-.961.942-.961h11.299v-.96c0-.531.42-.96.941-.96h3.883l.775-5.45a.95.95 0 0 1 .933-.824h.05V1.064c0-.53.42-.96.94-.96a.95.95 0 0 1 .942.96v3.412h.05a.95.95 0 0 1 .932.824l.775 5.45h3.902a.95.95 0 0 1 .941.96v.96h11.3c.52 0 .94.43.94.96a.95.95 0 0 1-.94.96v1.922H42.9a.95.95 0 0 1 .942.96.951.951 0 0 1-.942.961v2.881a.95.95 0 0 1-.941.961h-.942v15.367h1.894c.52 0 .942.43.942.96zm-4.719-16.328h-3.766v15.367h3.766zm-28.247 0v15.367h5.65V22.275zm7.533 15.367h7.532V22.275h-7.532zm9.415 0h5.65V22.275h-5.65zm1.883-23.051v1.921h9.416v-1.921zm-7.784-7.727h.486l-.066-.467H22zm-.551 3.886h1.588l-.279-1.964h-1.03zm-4.846 5.762h11.298V12.67H16.538zm-11.3 0h9.417v-1.921H5.239zm-1.882 1.921v1.92h37.662v-1.92zm1.883 19.21h3.766V22.274H5.24z"/></symbol><symbol viewBox="0 0 44 42" id="catalog-7" xmlns="http://www.w3.org/2000/svg"><path d="M42.474 31.653c.37.355.383.94.03 1.31-5.311 5.532-12.46 8.578-20.133 8.578-7.675 0-14.824-3.046-20.132-8.578a.926.926 0 0 1 .029-1.31.93.93 0 0 1 1.313.028c4.954 5.163 11.627 8.006 18.79 8.006 7.161 0 13.835-2.843 18.79-8.006a.932.932 0 0 1 1.313-.028zM17.606 21.37h9.63a5.478 5.478 0 0 1 5.504 5.316l.978 7.204a.923.923 0 0 1-.796 1.04c-.505.088-.977-.285-1.044-.794l-.987-7.297c-.072-2.068-1.675-3.616-3.656-3.616h-9.629a3.626 3.626 0 0 0-3.645 3.522l-1.003 7.432a.925.925 0 0 1-1.045.792.925.925 0 0 1-.795-1.042l.994-7.336c.086-2.886 2.503-5.22 5.494-5.22zm.187-6.17a.924.924 0 0 1-.134-1.302.932.932 0 0 1 1.305-.136c.194.152 4.145 3.183 9.569-.074a.937.937 0 0 1 1.275.316.928.928 0 0 1-.318 1.273c-2.215 1.33-4.24 1.777-5.96 1.777-3.396 0-5.6-1.743-5.737-1.853zm25.503 7.67a.93.93 0 0 1-.929.893h-.032a.93.93 0 0 1-.897-.96c.176-5.004-.744-8.334-2.662-9.63-.978-.661-2.085-.687-2.92-.567.222.347.396.724.537 1.117.757-.124 1.355.065 1.758.309 2.362 1.446 2.424 6.846 2.413 7.914a.929.929 0 0 1-.93.918h-.008a.928.928 0 0 1-.92-.936c.022-2.223-.437-5.65-1.528-6.316-.062-.04-.203-.105-.45-.073l.002.013v16.975a.927.927 0 0 1-.93.927.927.927 0 0 1-.928-.927V15.553a3.648 3.648 0 0 0-3.647-3.64H17.984a.929.929 0 0 1-.897-.684C15.186 4.263 8.411 2.506 5.584 2.073a.59.59 0 0 0-.664.42l-2.718 9.11 1.13.515L6.75 9.105c.338-.395 1.003-.565 1.597-.35a1.527 1.527 0 0 1 1.018 1.407l.54 22.366a.93.93 0 0 1-.907.95h-.022a.93.93 0 0 1-.929-.907l-.524-21.684-3.06 2.7c-.362.424-1.106.583-1.717.301l-1.566-.713a1.542 1.542 0 0 1-.837-1.835l2.796-9.375A2.479 2.479 0 0 1 5.865.242c3.094.473 10.388 2.37 12.812 9.818h12.548c1.165 0 2.243.368 3.134.987 1.024-.326 3.35-.818 5.44.58 2.523 1.69 3.699 5.473 3.497 11.243zM7.304 4.78a.91.91 0 0 1 .28.648.9.9 0 0 1-.298.668c-.13.148-.372.258-.631.258a.882.882 0 0 1-.67-.278.925.925 0 0 1-.26-.648c0-.24.093-.482.26-.648.372-.37.985-.353 1.32 0z"/></symbol><symbol viewBox="0 0 40 46" id="catalog-8" xmlns="http://www.w3.org/2000/svg"><path d="M39.705 10.633v1.278c0 2.732-1.92 4.92-4.667 5.32l-12.4 1.758c-1.836.267-3.073 1.655-3.073 3.455v4.964c0 .52-.414.942-.927.942a.934.934 0 0 1-.927-.942v-4.964c0-2.732 1.92-4.92 4.667-5.32l12.399-1.757c1.836-.268 3.073-1.656 3.073-3.456v-1.278c0-1.687-1.038-3.013-2.52-3.41v1.962c0 1.3-1.07 2.439-2.286 2.439H4.075c-1.174 0-2.128-1.094-2.128-2.439V6.967H1.02a.934.934 0 0 1-.927-.941c0-.52.414-.942.927-.942h.927V2.968c0-1.273.855-2.64 2.128-2.64h28.969c1.287 0 2.285 1.42 2.285 2.64v2.33c2.515.438 4.376 2.617 4.376 5.335zm-6.23-7.665c0-.329-.312-.72-.453-.759l-28.947.002c-.067.046-.273.398-.273.757v6.217c0 .334.194.557.273.557h28.969c.137 0 .43-.264.43-.557zM22.346 31.393v13.179c0 .52-.415.94-.927.94h-5.564a.934.934 0 0 1-.927-.94v-13.18c0-.52.415-.94.927-.94h5.564c.512 0 .927.42.927.94zm-1.854.941h-3.71V43.63h3.71z"/></symbol><symbol viewBox="0 0 44 40" id="catalog-9" xmlns="http://www.w3.org/2000/svg"><path d="M6.839 18.233c0 .953-.854 1.73-1.905 1.73H3.026c-1.051 0-1.905-.777-1.905-1.73 0-.066.008-.131.02-.195l.441-2.08c.059-.76.67-1.359 1.462-1.533v-2.97a.936.936 0 1 1 1.872 0v2.97c.792.174 1.403.773 1.462 1.533l.44 2.08c.013.064.02.13.02.195zm-1.923-.144l-.386-1.816a1.003 1.003 0 0 1-.02-.195l-.078.01a.906.906 0 0 1-.452.134c-.072 0-.136-.026-.204-.041l-.295.04-.462 2.01zM43.613 5.832a.938.938 0 0 1-.69.926L33.275 9.37l.778 12.865c.27.048.547.123.835.251.122.054.225.13.31.223.95.582 1.565 1.599 1.565 2.73a3.239 3.239 0 0 1-2.429 3.132C33.37 34.616 26.742 39.83 21.8 39.83c-4.438 0-11.536-4.981-12.538-11.265a3.232 3.232 0 0 1-2.427-3.125 3.24 3.24 0 0 1 1.915-2.952h.003c.03-.015.058-.017.088-.03l.884-13.34L.97 6.758c-.024-.006-.043-.021-.066-.03a.838.838 0 0 1-.122-.057.914.914 0 0 1-.263-.203.883.883 0 0 1-.12-.179c-.02-.035-.04-.068-.055-.105a.932.932 0 0 1-.056-.275c-.001-.02-.011-.036-.011-.056l.002-.008-.002-.012a.925.925 0 0 1 .07-.327c.012-.031.034-.055.05-.085a.94.94 0 0 1 .13-.195c.03-.031.062-.055.095-.083a.833.833 0 0 1 .297-.167c.031-.01.058-.03.09-.037L21.795.306a.936.936 0 0 1 .408 0l20.68 4.633c.42.095.722.463.731.893zm-11.74 11.365c-3.07 1.129-6.015 1.582-10.071 1.582-3.998 0-7.434-.602-10.721-1.808l-.35 5.268c.615.11 1.142.382 1.557.697.639-1.646 2.227-2.82 4.093-2.82 1.57 0 2.94.834 3.719 2.077a2.864 2.864 0 0 1 1.7-.566c.637 0 1.221.215 1.699.565a4.389 4.389 0 0 1 3.718-2.076c1.877 0 3.47 1.187 4.103 2.846.25-.195.539-.38.87-.52zm-4.656 4.793a2.532 2.532 0 0 0 0 5.061 2.533 2.533 0 0 0 2.53-2.53 2.533 2.533 0 0 0-2.53-2.531zm-10.836 0a2.532 2.532 0 0 0 0 5.061 2.531 2.531 0 0 0 0-5.061zm18.51 3.45a1.36 1.36 0 0 0-.805-1.24c-.013-.006-.02-.018-.032-.024-1.121-.431-1.866.504-1.948.615-.139.185-.339.28-.548.328-.295 2.143-2.118 3.806-4.34 3.806a4.408 4.408 0 0 1-4.4-4.404 1.02 1.02 0 0 0-2.038 0 4.408 4.408 0 0 1-4.4 4.404c-2.222 0-4.046-1.666-4.339-3.812a.89.89 0 0 1-.505-.323c-.088-.116-.864-1.093-2.024-.59-.49.22-.806.706-.806 1.24a1.36 1.36 0 0 0 1.358 1.359c.488 0 .934.374.973.861.438 5.585 6.923 10.297 10.763 10.297 3.93 0 10.314-4.614 10.761-10.297a.936.936 0 0 1 .932-.863h.004c.788 0 1.395-.609 1.395-1.357zm-3.46-15.57l-9.189 2.489a.934.934 0 0 1-.488.002L11.568 9.615l-.358 5.413c3.23 1.263 6.61 1.877 10.592 1.877 4.048 0 6.904-.48 9.953-1.672zm7.346-3.93l-16.78-3.76L9.72 4.918h11.26a.936.936 0 0 1 0 1.873H8.288l13.708 3.695zM24.933 31.171a.936.936 0 0 1 0 1.324c-.987.989-2.09 1.49-3.274 1.49h-.025c-1.958-.012-3.367-1.437-3.427-1.498a.936.936 0 0 1 1.338-1.31c.029.028.957.933 2.112.934h.002c.67 0 1.327-.316 1.95-.94a.934.934 0 0 1 1.324 0zm-9.006-7.016c.319-.319.975-.338 1.33.018a.939.939 0 0 1 .262.656.935.935 0 0 1-.263.655.942.942 0 0 1-.672.282.877.877 0 0 1-.657-.282.952.952 0 0 1-.28-.655c0-.243.112-.487.28-.674zm11.68 0c.168.187.281.43.281.674a.953.953 0 0 1-.282.655.95.95 0 0 1-.654.282.96.96 0 0 1-.674-.282.934.934 0 0 1-.262-.655c0-.243.094-.487.262-.656a.98.98 0 0 1 1.328-.018z"/></symbol><symbol viewBox="0 0 344.96 344.96" id="check" xmlns="http://www.w3.org/2000/svg"><g data-name="Слой 2"><path d="M321.85 86.24l-40-23.11-23.1-40H212.5L172.48 0l-40 23.11H86.24l-23.11 40-40 23.1v46.21L0 172.48l23.11 40v46.21l40 23.11 23.11 40h46.21l40 23.1 40-23.11h46.21l23.11-40 40-23.11V212.5l23.11-40-23.11-40V86.24zM156.91 243.07a16.79 16.79 0 0 1-23.34 0l-50.45-50.44a16.19 16.19 0 0 1 0-22.89l13.35-13.35a16.19 16.19 0 0 1 22.89 0l25.87 25.87 80.34-80.35a16.19 16.19 0 0 1 22.89 0l13.35 13.35a16.19 16.19 0 0 1 0 22.89z" data-name="Capa 1"/></g></symbol><symbol class="bbsvg-inline--fa bbfa-chevron-left bbfa-w-10" viewBox="0 0 320 512" id="chevron-left" xmlns="http://www.w3.org/2000/svg"><path d="M34.52 239.03L228.87 44.69c9.37-9.37 24.57-9.37 33.94 0l22.67 22.67c9.36 9.36 9.37 24.52.04 33.9L131.49 256l154.02 154.75c9.34 9.38 9.32 24.54-.04 33.9l-22.67 22.67c-9.37 9.37-24.57 9.37-33.94 0L34.52 272.97c-9.37-9.37-9.37-24.57 0-33.94z"/></symbol><symbol class="bcsvg-inline--fa bcfa-chevron-right bcfa-w-10" viewBox="0 0 320 512" id="chevron-right" xmlns="http://www.w3.org/2000/svg"><path d="M285.476 272.971L91.132 467.314c-9.373 9.373-24.569 9.373-33.941 0l-22.667-22.667c-9.357-9.357-9.375-24.522-.04-33.901L188.505 256 34.484 101.255c-9.335-9.379-9.317-24.544.04-33.901l22.667-22.667c9.373-9.373 24.569-9.373 33.941 0L285.475 239.03c9.373 9.372 9.373 24.568.001 33.941z"/></symbol><symbol class="bdsvg-inline--fa bdfa-envelope bdfa-w-16" viewBox="0 0 512 512" id="envelope" xmlns="http://www.w3.org/2000/svg"><path d="M502.3 190.8c3.9-3.1 9.7-.2 9.7 4.7V400c0 26.5-21.5 48-48 48H48c-26.5 0-48-21.5-48-48V195.6c0-5 5.7-7.8 9.7-4.7 22.4 17.4 52.1 39.5 154.1 113.6 21.1 15.4 56.7 47.8 92.2 47.6 35.7.3 72-32.8 92.3-47.6 102-74.1 131.6-96.3 154-113.7zM256 320c23.2.4 56.6-29.2 73.4-41.4 132.7-96.3 142.8-104.7 173.4-128.7 5.8-4.5 9.2-11.5 9.2-18.9v-19c0-26.5-21.5-48-48-48H48C21.5 64 0 85.5 0 112v19c0 7.4 3.4 14.3 9.2 18.9 30.6 23.9 40.7 32.4 173.4 128.7 16.8 12.2 50.2 41.8 73.4 41.4z"/></symbol><symbol viewBox="0 0 403.61 512" id="file" xmlns="http://www.w3.org/2000/svg"><g data-name="Слой 2"><g data-name="Слой 1"><path d="M86.71 512c-5-1.74-10.26-2.9-14.88-5.32-17.65-9.26-27.8-23.92-28-44-.4-43.66-.14-87.32-.13-131 0-1.14.22-2.27.38-3.86l30.47-2.09v133c0 15.06 7.31 22.34 22.39 22.34h253.48c14.64 0 22.25-7.53 22.22-22.08q-.31-141.23-.66-282.45v-6h-5.44c-18.83 0-37.66.15-56.49.12-22.82 0-37.59-14.73-37.66-37.47-.06-19.33-.15-38.67.08-58 0-4.46-1.34-5.6-5.69-5.58-39.65.18-79.32.15-119 .17-6.52 0-6.52 0-6.53-6.57 0-6.16.17-12.33-.06-18.49-.14-3.6.26-6.35 5.15-6.08l.29-1.5c-1.82-1.09-3.85-3.28-5.4-3-1.88.36-3.74 2.6-4.88 4.46-.76 1.24-.3 3.25-.3 4.91v124c0 1.83-.42 4 .4 5.4 1 1.74 3.24 4.07 4.71 3.91 1.88-.19 3.85-2.38 5.16-4.16.74-1 .27-2.91.27-4.41v-48c0-11.12 7.05-19 16.85-19s17 7.92 17 18.91c0 17.5.22 35-.07 52.49a39 39 0 0 1-77.25 6.83 57.06 57.06 0 0 1-.7-11q-.06-62.73 0-125.48c0-23 9.41-35.66 31.58-42.36.28-.08.48-.42.72-.64h13a14.88 14.88 0 0 0 2.22 1c16.87 4.47 26.69 15.46 30 32.44.34 1.74.61 3.5 1 5.64h6.2c30.5 0 61 .06 91.48-.08a11.73 11.73 0 0 1 9.15 3.85q55.83 55.85 111.9 111.47a12.24 12.24 0 0 1 3.93 9.59q-.15 147-.08 293.93c0 1.84 0 3.67-.08 5.5-.88 15.69-7.38 28.42-19.72 38.27-7.11 5.68-15.44 8.27-24 10.43z"/><path d="M85.49 99.1v5c0 22.49-.15 45 0 67.48.36 40.32 38.76 66.58 76.45 52.42 20.64-7.75 34.9-28.28 35.34-51.73.34-18 .17-36 0-54-.08-10.33-4.4-18.93-13-26.62 8-.6 14.72-1.13 21.47-1.63 4.32-.31 8.64-.68 13-.85 8.51-.32 14.33 4.93 14.91 13.36q6.22 89.74 12.42 179.49c.62 9-4.53 15.18-13.51 15.81q-60.57 4.23-121.15 8.28-40.38 2.76-80.77 5.62c-12.69.89-17.8-3.44-18.67-16.23Q6.49 214.77 1.05 134c-.37-5.49-.93-11-1-16.46-.15-7.52 4.71-13.46 12.12-14 23.91-1.87 47.85-3.41 71.78-5 .24-.12.55.13 1.54.56zM44.82 84c-.3-19.7 21.05-42.56 40.6-43.32 0 10.08.21 20.16-.22 30.22-.07 1.64-3.59 2.89-4.56 4.8-3.85 7.55-10.88 6.85-17.53 7.3-6.11.36-12.19.66-18.29 1z"/></g></g></symbol><symbol viewBox="0 0 364.28 600" id="flag" xmlns="http://www.w3.org/2000/svg"><g data-name="Слой 2"><path d="M340.22 0H24.06A24.06 24.06 0 0 0 0 24.06V600l182.14-128.87L364.28 600V24.06A24.06 24.06 0 0 0 340.22 0zm-36.17 211.59L250.33 264a6.57 6.57 0 0 0-1.89 5.81l12.68 73.94a6.57 6.57 0 0 1-9.53 6.92l-66.39-34.96a6.62 6.62 0 0 0-6.12 0l-66.39 34.91a6.57 6.57 0 0 1-9.54-6.92l12.68-73.94A6.57 6.57 0 0 0 114 264l-53.77-52.41a6.57 6.57 0 0 1 3.64-11.21l74.23-10.78a6.58 6.58 0 0 0 5-3.6l33.2-67.26a6.56 6.56 0 0 1 11.78 0L221.23 186a6.55 6.55 0 0 0 4.94 3.6l74.24 10.78a6.58 6.58 0 0 1 3.64 11.21z" data-name="Layer 1"/></g></symbol><symbol viewBox="0 0 364.28 600" id="flag-2" xmlns="http://www.w3.org/2000/svg"><g data-name="Слой 2"><path d="M340.22 0H24.06A24.06 24.06 0 0 0 0 24.06V600l182.14-128.87L364.28 600V24.06A24.06 24.06 0 0 0 340.22 0z" data-name="Layer 1"/></g></symbol><symbol viewBox="0 0 512 470.74" id="like" xmlns="http://www.w3.org/2000/svg"><g data-name="Слой 2"><path d="M512 128.54v24c-.3 1.44-.62 2.89-.91 4.34-1.93 9.94-3.18 20.08-5.92 29.8-9.27 33-27.48 61.16-48.55 87.66-27 34-58.31 64-90 93.62-36.26 33.9-74.82 65.33-109 101.45a16.64 16.64 0 0 1-1.72 1.33c-1.42-1.35-2.74-2.57-4-3.84-11.64-11.48-22.9-23.33-34.9-34.39-28.69-26.4-58-52.14-86.54-78.69-29.55-27.48-57.82-56.25-82.14-88.61-19.76-26.29-36.16-54.34-43.76-86.74-2-8.53-3.06-17.28-4.55-25.93v-24c.32-1.44.77-2.87 1-4.33 4.9-40.22 23-73 55.71-97.13 49.65-36.52 119.46-36 171 1.11 10.18 7.34 19.25 16.2 29.09 24.58.62-.64 1.73-1.83 2.86-3 35.78-37.08 79.1-54.48 130.63-48.31 57.44 6.88 102.1 46.35 116.92 102.22 2.08 8.15 3.19 16.57 4.78 24.86z" data-name="Слой 1"/></g></symbol><symbol viewBox="0 0 353.89 511.23" id="mark" xmlns="http://www.w3.org/2000/svg"><g data-name="Слой 2"><path d="M187.85 0c10.78 2 21.73 3.21 32.29 6 52.7 13.73 91 45.28 113.55 94.88 7.21 15.79 14.31 32.21 17.66 49.12a135.8 135.8 0 0 1-5.12 70.94c-8.85 25.89-22.74 49.17-37 72.29-13.46 21.82-25.83 44.39-40.43 65.41C235.23 407 209 459.71 178.22 509.75c-.26.42-.59.8-1.09 1.48a14.94 14.94 0 0 1-1.94-2.1Q104.92 394 34.76 278.85C22.13 258 10.91 236.3 5.11 212.52-5.53 168.88.54 126.92 22.35 87.91c27.71-49.55 71.14-77 126.71-86 4.26-.69 8.53-1.29 12.79-1.93zm-74.37 172.87c.93 7.69.56 15.18 2.84 21.76 11.2 32.34 44.52 49.27 77.53 40.07s53.87-42.08 47.55-74.9c-7.07-36.77-39.22-59.26-76.23-52.55-23.71 4.3-41.88 16.42-48.63 40.92-2.22 8.05-2.14 16.74-3.06 24.7z" data-name="Слой 1"/></g></symbol><symbol viewBox="0 0 34 24" id="menu-1" xmlns="http://www.w3.org/2000/svg"><path d="M12.48 7.982c0 .38-.312.69-.697.69H4.865a.693.693 0 0 1-.697-.69c0-.382.312-.69.697-.69h6.918c.385 0 .697.308.697.69zm0 4.14c0 .381-.312.69-.697.69H4.865a.693.693 0 0 1-.697-.69c0-.382.312-.69.697-.69h6.918c.385 0 .697.308.697.69zm0 4.14c0 .381-.312.69-.697.69H4.865a.693.693 0 0 1-.697-.69c0-.382.312-.69.697-.69h6.918c.385 0 .697.308.697.69zm16.71-8.28c0 .38-.31.69-.696.69h-6.88a.693.693 0 0 1-.696-.69c0-.382.312-.69.697-.69h6.879c.385 0 .697.308.697.69zm0 4.14c0 .381-.31.69-.696.69h-6.88a.693.693 0 0 1-.696-.69c0-.382.312-.69.697-.69h6.879c.385 0 .697.308.697.69zm0 4.14c0 .381-.31.69-.696.69h-6.88a.693.693 0 0 1-.696-.69c0-.382.312-.69.697-.69h6.879c.385 0 .697.308.697.69zm4.16-13.214v20.228a.687.687 0 0 1-.275.549.7.7 0 0 1-.606.117c-1.254-.34-4.61-.595-7.806-.595-2.845 0-4.892.206-7.896.614a.744.744 0 0 1-.189 0c-3.004-.408-5.05-.614-7.896-.614-3.195 0-6.551.255-7.805.595a.702.702 0 0 1-.606-.117.687.687 0 0 1-.274-.549V3.048c0-2.045 4.362-2.963 8.685-2.963 3.288 0 6.593.532 7.99 1.685C18.072.617 21.376.085 24.664.085c4.323 0 8.687.918 8.687 2.963zM8.682 21.966c2.667 0 4.642.175 7.294.52V3.049c-.05-.473-2.592-1.583-7.294-1.583-4.7 0-7.242 1.11-7.292 1.584v19.376c1.871-.313 4.926-.46 7.292-.46zM31.956 3.048c-.05-.473-2.593-1.583-7.293-1.583-4.701 0-7.243 1.11-7.293 1.584v19.438c2.651-.346 4.626-.521 7.293-.521 2.367 0 5.422.146 7.293.46z"/></symbol><symbol viewBox="0 0 24 34" id="menu-2" xmlns="http://www.w3.org/2000/svg"><path d="M24.092 20.559c.003 3.157-2.429 5.234-6.047 5.234H6.529c-3.618 0-6.05-2.077-6.05-5.169L1.82 5.878C1.817 2.69 4.362.328 7.867.328h8.839c3.506 0 6.05 2.361 6.05 5.615l.083.895a.491.491 0 0 1 .002.026zM2.452 14.33c.002.01.008.021.008.032.178.434 2.128 1.461 5.062 1.461h9.513c2.964 0 4.934-1.045 5.086-1.473l.002-.01-.654-7.155c-.39-.502-2.037-1.18-4.672-1.18h-9.02c-2.633 0-4.288.681-4.675 1.183zm.82-8.93c1.264-.575 3.025-.81 4.506-.81h9.02c1.483 0 3.24.234 4.503.807-.298-2.165-2.127-3.653-4.594-3.653h-8.84C5.38 1.743 3.543 3.255 3.27 5.4zm19.426 15.225l-.418-4.578c-1.257.75-3.293 1.195-5.244 1.195H7.522c-1.944 0-3.972-.446-5.225-1.193l-.422 4.64c.003 2.704 2.405 3.69 4.654 3.69h11.516c2.25 0 4.652-.986 4.652-3.754zm-14.26-.02A2.305 2.305 0 0 1 6.14 22.91a2.305 2.305 0 0 1-2.297-2.307 2.304 2.304 0 0 1 2.297-2.307 2.305 2.305 0 0 1 2.298 2.307zm-1.397 0a.896.896 0 0 0-.9-.892c-.495 0-.9.4-.9.891 0 .492.405.891.9.891.496 0 .9-.4.9-.89zm13.61 0a2.305 2.305 0 0 1-2.297 2.306 2.305 2.305 0 0 1-2.297-2.307 2.305 2.305 0 0 1 2.297-2.307 2.305 2.305 0 0 1 2.298 2.307zm-1.397 0a.897.897 0 0 0-.9-.892c-.495 0-.9.4-.9.891 0 .492.405.891.9.891.496 0 .9-.4.9-.89zm.582 12.43a.71.71 0 0 1-.403.915.699.699 0 0 1-.901-.41l-.824-2.186H6.822l-.824 2.187a.697.697 0 0 1-.9.409.71.71 0 0 1-.405-.914l2.236-5.937a.695.695 0 0 1 .901-.41.71.71 0 0 1 .404.915l-.879 2.334h9.819l-.88-2.334a.71.71 0 0 1 .405-.914.695.695 0 0 1 .9.409zM9.655 3.185c0-.39.313-.707.7-.707h3.872c.386 0 .699.316.699.708a.703.703 0 0 1-.7.708h-3.872a.703.703 0 0 1-.699-.708z"/></symbol><symbol viewBox="0 0 34 33" id="menu-3" xmlns="http://www.w3.org/2000/svg"><path d="M6.332 18.451c-.406-1.44-2.58-4.67-3.97-6.558.249 1.796.05 3.703-.144 5.563-.425 4.097-.827 7.966 3.291 10.484l.11.051c1.709.858 3.643 1.822 7.572 1.558.38-.052.715.263.744.645a.696.696 0 0 1-.649.739c-.486.033-.946.049-1.38.049-3.422 0-5.338-.961-6.916-1.752l-.159-.081c-4.916-3.002-4.43-7.695-4-11.835.256-2.472.499-4.809-.231-6.805a.96.96 0 0 1 .328-1.107.982.982 0 0 1 1.173-.01c.486.363 3.482 4.41 4.906 7.133.277-1.058.444-2.445.615-3.886C8.15 8.205 8.807 2.687 13.085.133a.979.979 0 0 1 .987-.01.974.974 0 0 1 .498.846c0 5.178.376 8.95 1.145 11.438.868-2.117 2.676-5.34 5.776-5.852a.963.963 0 0 1 1.01.474.957.957 0 0 1-.108 1.122c-1.84 2.134-.929 6.133-.452 7.754a.692.692 0 0 1-.473.86.696.696 0 0 1-.865-.47c-.588-1.996-1.274-5.466.04-8.015-2.26 1.13-3.68 4.343-4.203 6.29a.698.698 0 0 1-1.291.143c-1.296-2.452-1.925-6.583-1.971-12.968C10.04 4.13 9.47 8.915 9.006 12.803c-.291 2.455-.545 4.575-1.374 5.824a.687.687 0 0 1-.344.27.752.752 0 0 1-.58-.026c-.173-.087-.324-.234-.376-.42zm22.897 5.501v2.773h3.339c.385 0 .697.31.697.693a.695.695 0 0 1-.697.693h-7.524v2.773h7.524c.385 0 .697.31.697.694a.695.695 0 0 1-.697.693H15.977a.695.695 0 0 1-.698-.693V19.1c0-.384.312-.693.698-.693h16.59c.386 0 .698.31.698.693a.695.695 0 0 1-.697.693h-7.524v2.773h7.524c.385 0 .697.31.697.693a.695.695 0 0 1-.697.693zm-12.555-1.386h6.975v-2.773h-6.975zm2.79 1.386h-2.79v2.773h2.79zm4.185 4.159h-6.975v2.773h6.975zm4.185-4.159h-6.975v2.773h6.975z"/></symbol><symbol viewBox="0 0 34 29" id="menu-4" xmlns="http://www.w3.org/2000/svg"><path d="M33.397 1.206V9.79a.71.71 0 0 1-.184.477l-1.206 1.313v16.298c0 .388-.31.702-.695.702H2.122a.698.698 0 0 1-.695-.702V11.58L.22 10.268a.711.711 0 0 1-.184-.477V1.206c0-.388.31-.702.695-.702h2.78c.384 0 .695.314.695.702 0-.388.31-.702.695-.702h2.78c.384 0 .695.314.695.702 0-.388.311-.702.695-.702h2.78c.384 0 .695.314.695.702V9.79a.71.71 0 0 1-.185.477l-1.205 1.313v2.961h11.12V11.58l-1.205-1.313a.71.71 0 0 1-.185-.477V1.206c0-.388.311-.702.695-.702h2.78c.384 0 .695.314.695.702 0-.388.311-.702.695-.702h2.78c.384 0 .695.314.695.702 0-.388.311-.702.695-.702h2.78c.384 0 .695.314.695.702zm-30.58 10.1v15.87h6.95v-15.87a.71.71 0 0 1 .185-.477l1.205-1.313V1.908h-1.39v.702c0 .388-.31.702-.695.702h-1.39a.698.698 0 0 1-.695-.702v-.702h-1.39v.702c0 .388-.31.702-.695.702h-1.39a.698.698 0 0 1-.695-.702v-.702h-1.39v7.608l1.205 1.313c.119.13.185.3.185.477zm8.34 15.87h2.78V23.12c0-1.568 1.121-2.81 2.589-2.918.05-.006.1-.008.152-.006a.95.95 0 0 1 .152.006c1.489.107 2.667 1.375 2.667 2.918v4.058h2.78v-11.23h-11.12zm6.95-4.057c0-.821-.636-1.492-1.43-1.52-.773.028-1.35.671-1.35 1.52v4.058h2.78zm13.9-21.211h-1.39v.702c0 .388-.31.702-.695.702h-1.39a.698.698 0 0 1-.695-.702v-.702h-1.39v.702c0 .388-.31.702-.695.702h-1.39a.698.698 0 0 1-.695-.702v-.702h-1.39v7.608l1.206 1.313c.118.13.184.3.184.477v15.87h6.95v-15.87a.71.71 0 0 1 .185-.477l1.205-1.313zm-2.78 10.515v2.822c0 .387-.31.701-.695.701h-2.78a.698.698 0 0 1-.695-.701v-2.822c0-1.146.925-2.078 2.062-2.078 1.145 0 2.108.951 2.108 2.078zm-1.39 0c0-.36-.334-.675-.714-.675a.683.683 0 0 0-.676.675v2.119h1.39zm-23.63 2.822v-2.822c0-1.127.96-2.078 2.095-2.078 1.16 0 2.075.932 2.075 2.078v2.822c0 .387-.31.701-.695.701h-2.78a.698.698 0 0 1-.695-.701zm1.39-.703h1.39v-2.12a.664.664 0 0 0-.65-.674c-.41 0-.74.316-.74.675z"/></symbol><symbol viewBox="0 0 34 26" id="menu-5" xmlns="http://www.w3.org/2000/svg"><path d="M30.195 3.474a.707.707 0 0 1-.052.991L19.125 14.471a2.916 2.916 0 0 1-1.96.748c-.705 0-1.409-.25-1.958-.748L4.187 4.465a.707.707 0 0 1-.05-.991.69.69 0 0 1 .98-.054l11.019 10.007a1.565 1.565 0 0 0 2.06 0L29.213 3.42a.688.688 0 0 1 .981.054zm-.072 17.17a.708.708 0 0 1 .09.989.69.69 0 0 1-.979.092l-7.381-6.2a.706.706 0 0 1-.09-.989.69.69 0 0 1 .98-.092zM12.57 14.536a.706.706 0 0 1-.09.988l-7.382 6.2a.693.693 0 0 1-.978-.091.706.706 0 0 1 .09-.989l7.38-6.2a.689.689 0 0 1 .98.092zM34 3.845v17.437c0 2.158-1.777 3.914-3.961 3.914H4.59c-2.215 0-3.95-1.72-3.95-3.914V3.845c0-2.197 1.735-3.917 3.95-3.917h25.45c2.183 0 3.96 1.757 3.96 3.917zm-1.39 0c0-1.41-1.13-2.514-2.571-2.514H4.59c-1.436 0-2.56 1.105-2.56 2.514v17.437c0 1.408 1.124 2.51 2.56 2.51h25.45c1.442 0 2.57-1.102 2.57-2.51z"/></symbol><symbol viewBox="0 0 512 473.16" id="rew" xmlns="http://www.w3.org/2000/svg"><g data-name="Слой 2"><g data-name="Слой 1"><path d="M0 279V35c.22-.24.55-.45.64-.73C7.54 10.57 21.57 0 46.21 0H354.1a79.64 79.64 0 0 1 11.46.6c16.36 2.4 35.19 17.32 35.08 43.93-.33 75.3-.1 150.61-.16 225.91a53.78 53.78 0 0 1-1.12 11.9c-4.55 19.68-21.29 32.5-42.43 32.53q-75.72.09-151.45-.06a9.56 9.56 0 0 0-8.44 4c-7 8.88-14.31 17.56-21.52 26.31q-26.37 32-52.79 64c-5.11 6.17-11.59 8.1-18.23 5.65-5.91-2.19-8.57-6.82-10-12.71-6.73-27.31-13.74-54.56-20.35-81.9-1-4.33-2.91-5.46-7.08-5.31-8.48.3-17 .19-25.49 0a41.92 41.92 0 0 1-28.82-12C5.78 296.31 2.33 288 0 279zm135.87-51.3c-.44 12.81 11.68 20.42 22.71 14.85 12.49-6.29 24.85-12.84 37.13-19.53 3.29-1.79 5.86-1.87 9.18 0 11.53 6.34 23.3 12.22 34.84 18.52 6.38 3.48 12.59 4.48 18.73-.06 5.93-4.39 7-10.45 5.69-17.41-2.41-12.93-4.46-25.93-6.88-38.85-.73-3.85.21-6.5 3.08-9.2 10-9.49 19.89-19.21 29.73-28.92 4.52-4.45 6.2-9.84 4.16-16s-6.41-9.5-12.77-10.45c-14-2.08-28-4.34-42-6.23-3.22-.43-5-1.65-6.39-4.52C227.15 97.56 221 85.39 215 73.12c-3-6.15-7.29-10.3-14.54-10.37-7.48-.08-11.86 4.15-14.94 10.5-6 12.28-12 24.55-18.3 36.64a9.25 9.25 0 0 1-5.82 4.24c-13.29 2.27-26.65 4.17-40 6-7.13 1-12.87 3.73-15.14 11.06-2.17 7 .59 12.59 5.7 17.44 8.44 8 16.37 16.66 25.22 24.22 5.68 4.86 7 9.6 5.39 16.79-2.89 12.84-4.63 25.91-6.7 38.06z"/><path d="M512 381c-2.42 7.13-5.37 13.89-11.42 18.89-7.34 6.07-15.76 8.1-25.11 8-10-.13-7.66-1.63-10.2 8-3.82 14.49-7.33 29.06-10.89 43.62-1.63 6.66-5.07 11.68-12.06 13.23s-12.16-1.44-16.54-6.8c-14.86-18.2-29.92-36.24-44.77-54.44a9.29 9.29 0 0 0-8-3.79c-31.83.13-63.66.09-95.49.07-22.45 0-35.72-13.28-35.78-35.75v-26.39h6.53c36.33 0 72.67.13 109 0 35.36-.16 64.39-22.83 72.09-56.36a87.84 87.84 0 0 0 1.82-18.83c.2-23.66.08-47.33.08-71V193h7.5c13.17 0 26.33-.06 39.5 0 16.66.1 28.33 9.1 32.93 25.23A10.69 10.69 0 0 0 512 220zM200.27 112.78c3.41 6.93 6.48 12.56 9 18.44 3.21 7.47 8.41 11.55 16.66 12.21 6.46.52 12.84 1.85 20.64 3-3.37 3.42-5.72 6.62-8.8 8.79-12.12 8.53-15.59 19.56-11 33.55 1.12 3.4 1.18 7.15 1.91 12-4.17-2.12-7.47-3.74-10.71-5.47-17.71-9.43-17.7-9.44-35.23 0-3.35 1.79-6.73 3.54-11 5.8 1.31-8 2.29-15.23 3.7-22.32 1.3-6.52-.56-11.74-5.2-16.29-5.1-5-10.07-10.12-15.82-15.92 7.48-1.15 14.24-2.43 21.07-3.17 7.59-.81 12.47-4.66 15.5-11.57 2.64-6.1 5.77-11.92 9.28-19.05z"/></g></g></symbol><symbol viewBox="0 0 512 512" id="search" xmlns="http://www.w3.org/2000/svg"><g data-name="Слой 2"><path d="M0 224v-27c.39-3.09.8-6.18 1.17-9.28 5.28-45 22.69-84.63 53.13-118.2 31.64-34.87 70.69-57 117.1-65.7C179.87 2.23 188.46 1.26 197 0h27c10.5 1.63 21.12 2.74 31.49 5 130.3 28.26 201.78 170.1 147 291.63-4.56 10.12-10.21 19.74-15.45 29.79.28.31.69.81 1.15 1.27 34.42 34.41 68.72 68.92 103.32 103.14 9.38 9.27 17.86 18.79 20.53 32.19v12c-2.09 7.9-4.7 15.5-10.17 21.89-7.14 8.35-16.4 12.71-26.83 15.11H463c-13.39-2.66-22.9-11.15-32.17-20.52-33.72-34.1-67.75-67.91-101.67-101.81-1-1-2.12-2-3-2.84a7 7 0 0 0-1.3.42c-1.14.68-2.26 1.4-3.39 2.1a205.31 205.31 0 0 1-88.47 30.4c-46.49 4.78-90.27-4.27-130.25-28.59-53.39-32.5-86.52-79.7-98.87-141.18-1.73-8.57-2.61-17.32-3.88-26zM210.5 73C134.67 73 73.09 134.45 73 210.23A137.5 137.5 0 1 0 210.5 73z" data-name="Слой 1"/></g></symbol><symbol class="bqsvg-inline--fa bqfa-star bqfa-w-18" viewBox="0 0 576 512" id="star" xmlns="http://www.w3.org/2000/svg"><path d="M259.3 17.8L194 150.2 47.9 171.5c-26.2 3.8-36.7 36.1-17.7 54.6l105.7 103-25 145.5c-4.5 26.3 23.2 46 46.4 33.7L288 439.6l130.7 68.7c23.2 12.2 50.9-7.4 46.4-33.7l-25-145.5 105.7-103c19-18.5 8.5-50.8-17.7-54.6L382 150.2 316.7 17.8c-11.7-23.6-45.6-23.9-57.4 0z"/></symbol><symbol viewBox="0 0 512 512" id="statistics" xmlns="http://www.w3.org/2000/svg"><g data-name="Слой 2"><g data-name="Слой 1"><path d="M0 493c4-8.66 10.85-11.95 20.15-11.05 3.43.33 6.91.05 10.85.05V318.18c0-12.7 5.53-18.18 18.3-18.18h55c10.7 0 16.7 6.07 16.7 16.78v164.84h30V378.37c0-12.81 5.48-18.36 18.11-18.37h54.5c11.63 0 17.38 5.82 17.39 17.59v104.14h30V258.56c0-13.12 5.4-18.56 18.42-18.56h53.5c12.44 0 18.08 5.57 18.08 17.9v223.76h30v-312.9c0-13.42 5.32-18.76 18.72-18.76h53.49c12.07 0 17.79 5.68 17.79 17.7V482c3.71 0 7.31.28 10.86-.05 9.29-.88 16.17 2.37 20.14 11.05v8a23.09 23.09 0 0 1-11 11H11a23 23 0 0 1-11-11z"/><path d="M442 0c6.82 2.9 14.36 4.77 20.34 8.9 19.33 13.34 24.25 39.5 12 59.5a44.46 44.46 0 0 1-58.91 16.4c-3.62-1.92-5.76-1.45-8.73.83q-22.24 17-44.76 33.61c-2.29 1.69-2.94 3.11-2.27 6.14 3.77 17.09-1.06 31.84-14.1 43.29-13.2 11.58-28.58 14.39-45.2 8.23-2.82-1-4.45-.69-6.5 1.37q-27.11 27.33-54.44 54.44c-2.23 2.21-2.57 3.95-1.45 6.91a44.1 44.1 0 0 1-11.55 48.45 44.77 44.77 0 0 1-48.84 7.93c-16.75-7.7-27.21-24.15-26.42-42.3.15-3.49-1-5-3.88-6.38-12-5.81-23.91-11.72-35.73-17.84-3.07-1.59-5-1.5-7.9.7-14.86 11.33-31.14 13.27-47.82 4.82s-25-22.66-24.74-41.33c.28-24.48 21.24-44.13 46-43.65 24.32.47 44.41 21.12 43.71 45.39-.11 4 .94 5.85 4.44 7.53 12.15 5.81 24.17 11.92 36.18 18.05 2.39 1.22 3.94 1.09 6.16-.67 13.47-10.62 28.35-13.1 44.63-7.27a6.33 6.33 0 0 0 5.43-1.17c18.52-18.25 36.83-36.7 55.29-55 2-2 2.13-3.52 1.18-6.09-6.75-18-2-37 12.22-49.56s33.94-14.8 51.19-5.57c2.61 1.4 4.25 1.37 6.62-.43 15.24-11.6 30.66-23 45.87-34.62 1.33-1 2.57-3.54 2.27-5-5.22-26.47 9.2-48.92 35.4-54.76A18.36 18.36 0 0 0 430 0z"/></g></g></symbol><symbol class="bssvg-inline--fa bsfa-phone-alt bsfa-w-16" viewBox="0 0 512 512" id="tel" xmlns="http://www.w3.org/2000/svg"><path d="M497.39 361.8l-112-48a24 24 0 0 0-28 6.9l-49.6 60.6A370.66 370.66 0 0 1 130.6 204.11l60.6-49.6a23.94 23.94 0 0 0 6.9-28l-48-112A24.16 24.16 0 0 0 122.6.61l-104 24A24 24 0 0 0 0 48c0 256.5 207.9 464 464 464a24 24 0 0 0 23.4-18.6l24-104a24.29 24.29 0 0 0-14.01-27.6z"/></symbol><symbol class="btsvg-inline--fa btfa-thumbs-down btfa-w-16" viewBox="0 0 512 512" id="thumbs-down" xmlns="http://www.w3.org/2000/svg"><path d="M0 56v240c0 13.255 10.745 24 24 24h80c13.255 0 24-10.745 24-24V56c0-13.255-10.745-24-24-24H24C10.745 32 0 42.745 0 56zm40 200c0-13.255 10.745-24 24-24s24 10.745 24 24-10.745 24-24 24-24-10.745-24-24zm272 256c-20.183 0-29.485-39.293-33.931-57.795-5.206-21.666-10.589-44.07-25.393-58.902-32.469-32.524-49.503-73.967-89.117-113.111a11.98 11.98 0 0 1-3.558-8.521V59.901c0-6.541 5.243-11.878 11.783-11.998 15.831-.29 36.694-9.079 52.651-16.178C256.189 17.598 295.709.017 343.995 0h2.844c42.777 0 93.363.413 113.774 29.737 8.392 12.057 10.446 27.034 6.148 44.632 16.312 17.053 25.063 48.863 16.382 74.757 17.544 23.432 19.143 56.132 9.308 79.469l.11.11c11.893 11.949 19.523 31.259 19.439 49.197-.156 30.352-26.157 58.098-59.553 58.098H350.723C358.03 364.34 384 388.132 384 430.548 384 504 336 512 312 512z"/></symbol><symbol class="busvg-inline--fa bufa-thumbs-up bufa-w-16" viewBox="0 0 512 512" id="thumbs-up" xmlns="http://www.w3.org/2000/svg"><path d="M104 224H24c-13.255 0-24 10.745-24 24v240c0 13.255 10.745 24 24 24h80c13.255 0 24-10.745 24-24V248c0-13.255-10.745-24-24-24zM64 472c-13.255 0-24-10.745-24-24s10.745-24 24-24 24 10.745 24 24-10.745 24-24 24zM384 81.452c0 42.416-25.97 66.208-33.277 94.548h101.723c33.397 0 59.397 27.746 59.553 58.098.084 17.938-7.546 37.249-19.439 49.197l-.11.11c9.836 23.337 8.237 56.037-9.308 79.469 8.681 25.895-.069 57.704-16.382 74.757 4.298 17.598 2.244 32.575-6.148 44.632C440.202 511.587 389.616 512 346.839 512l-2.845-.001c-48.287-.017-87.806-17.598-119.56-31.725-15.957-7.099-36.821-15.887-52.651-16.178-6.54-.12-11.783-5.457-11.783-11.998v-213.77c0-3.2 1.282-6.271 3.558-8.521 39.614-39.144 56.648-80.587 89.117-113.111 14.804-14.832 20.188-37.236 25.393-58.902C282.515 39.293 291.817 0 312 0c24 0 72 8 72 81.452z"/></symbol><symbol viewBox="0 0 512 512" id="web" xmlns="http://www.w3.org/2000/svg"><g data-name="Слой 2"><path d="M512 244v24c-.67 6.09-1.31 12.18-2 18.27a248.77 248.77 0 0 1-30.52 94.23 254.52 254.52 0 0 1-88.66 92.88 248.13 248.13 0 0 1-98.1 35.76c-7.88 1.09-15.81 1.91-23.71 2.86H243a32.53 32.53 0 0 0-3.87-.73c-41.62-2.66-80.56-14.48-115.78-36.63C55.45 431.94 14.71 370.9 2.75 291.2 1.59 283.5.9 275.74 0 268v-24c.67-6.09 1.31-12.17 2-18.26a249.11 249.11 0 0 1 30.53-94.24 254.68 254.68 0 0 1 88.66-92.88 248.78 248.78 0 0 1 98.1-35.78C227.17 1.74 235.09.94 243 0h26l17.28 2a247.75 247.75 0 0 1 87.65 27 254.15 254.15 0 0 1 95.4 85.93 247.92 247.92 0 0 1 39.76 104.42c1.13 8.17 1.91 16.42 2.91 24.65zm-350.91 72.65a746.46 746.46 0 0 1 0-121.38H45.31c-11.34 40.62-11.42 81 0 121.38zm305.64-121.16H350.89a738.81 738.81 0 0 1 .11 121.12h115.71a220.24 220.24 0 0 0 .02-121.12zM198 316.63h116.07a671.85 671.85 0 0 0-.07-121.26H198a674.62 674.62 0 0 0 0 121.26zm111.19-158.54a15.32 15.32 0 0 0 0-2.17c-4.83-30.33-11.83-60-25-88-4.63-9.81-10-19.21-18.34-26.51-6.87-6-13.09-6.49-19.39 0a96.15 96.15 0 0 0-14.71 19.33c-13.45 23.98-20.24 50.26-25.7 76.86-1.38 6.74-2.41 13.54-3.63 20.49zM202.36 353.87c5.45 32.75 12.21 64.46 27.42 93.55a112.4 112.4 0 0 0 16.87 23.24c5.93 6.49 12.71 6.33 18.85-.05a97.46 97.46 0 0 0 14.72-19.32C292.94 428.75 299.68 404 305 378.9c1.73-8.21 3.13-16.48 4.74-25zM59.5 158.38H154c11.47 0 11.21 0 13.1-11.24 5.8-34.38 13.93-68.08 29.86-99.43.39-.76.59-1.61 1.23-3.39-62.51 18.74-108 56.33-138.69 114.06zM313.92 45.16c2.21 4.65 4.29 8.81 6.17 13.05 13.43 30.36 20.76 62.4 25.75 95 .67 4.38 2.33 5.25 6.38 5.23 31.47-.15 62.94-.09 94.41-.09h5C436.45 113.21 360.76 51 313.92 45.16zm-115.4 422.63c-2.59-5.45-4.68-9.58-6.55-13.81-13.41-30.36-20.76-62.39-25.8-95-.64-4.13-1.88-5.48-6.18-5.46-31.64.19-63.28.1-94.92.12-1.54 0-3.09.21-5.36.38 30.47 57.32 75.96 94.92 138.81 113.77zm116-.93c61.76-17.94 107.34-55.53 137.64-112.69a16.21 16.21 0 0 0-2.54-.52q-49.71 0-99.41-.08c-2.78 0-3.75 1.13-4.14 3.69-5.75 37.79-14.44 74.74-31.52 109.6z" data-name="Слой 1"/></g></symbol></svg>