<svg xmlns="http://www.w3.org/2000/svg" width="45" height="46" viewBox="0 0 45 46"><g><g><path d="M13.092 16.061a4.032 4.032 0 0 1 4.026-4.03 4.031 4.031 0 0 1 0 8.06 4.032 4.032 0 0 1-4.026-4.03zm1.916 0c0 1.164.946 2.113 2.11 2.113a2.114 2.114 0 0 0 2.109-2.113 2.114 2.114 0 0 0-2.109-2.112c-1.164 0-2.11.948-2.11 2.112zm7.957-.94h1.873a.958.958 0 0 1 0 1.918h-1.873a.958.958 0 0 1 0-1.918zM9.41 17.039a.959.959 0 0 1 0-1.918h1.87a.958.958 0 0 1 0 1.918zm6.756-6.809V8.355a.958.958 0 1 1 1.916 0v1.875a.958.958 0 1 1-1.916 0zm4.535 2.268a.96.96 0 0 1 0-1.356l.784-.785a.959.959 0 0 1 1.354 1.356l-.784.785a.957.957 0 0 1-1.354 0zm-7.155 7.163a.959.959 0 0 1 0 1.355l-.784.785a.953.953 0 0 1-.677.281.959.959 0 0 1-.677-1.636l.784-.785a.957.957 0 0 1 1.354 0zm9.293.785a.959.959 0 0 1-1.354 1.355l-.784-.785a.959.959 0 0 1 1.354-1.355zm-11.431-8.733a.959.959 0 0 1 1.354-1.356l.784.785a.96.96 0 0 1-.677 1.638.957.957 0 0 1-.677-.282zm31.898 19.931a22.43 22.43 0 0 1-4.881 7.33c-4.251 4.255-9.911 6.598-15.937 6.598a22.383 22.383 0 0 1-11.697-3.29c-.023-.013-.052-.007-.074-.023-.017-.013-.025-.032-.04-.046a22.584 22.584 0 0 1-4.128-3.24c-8.786-8.8-8.786-23.115 0-31.914 4.25-4.256 9.91-6.6 15.937-6.6 6.026 0 11.686 2.344 15.937 6.6 6.618 6.627 8.247 16.382 4.897 24.554l-.014.031zM7.903 37.616c.969.97 2.017 1.83 3.131 2.576l12.55-17.246a.96.96 0 0 1 .75-.394c.35-.027.582.126.77.357l4.569 5.669 5.107-4.616a.954.954 0 0 1 1.298.014l5.934 5.608c2.4-7.193.765-15.451-4.944-21.169-3.888-3.893-9.067-6.038-14.582-6.038-5.516 0-10.695 2.145-14.583 6.038-8.039 8.05-8.039 21.15 0 29.2zm14.585 6.039c4.839 0 9.419-1.654 13.097-4.69L24.398 25.087 12.684 41.184a20.536 20.536 0 0 0 9.804 2.47zm18.771-12.146l-5.852-5.53-4.53 4.094 6.128 7.603c.021-.02.044-.038.065-.06a20.498 20.498 0 0 0 4.19-6.107zm-23.177-9.58v1.874a.958.958 0 1 1-1.916 0v-1.875a.958.958 0 1 1 1.916 0z"/></g></g></svg>