<svg xmlns="http://www.w3.org/2000/svg" width="46" height="46" viewBox="0 0 46 46"><g><g><path d="M45.202 20.46a.948.948 0 0 1-1.338.116l-4.693-3.935-2.709 28.446a.95.95 0 0 1-.946.858H10.39a.95.95 0 0 1-.947-.858L6.734 16.643l-4.69 3.933a.95.95 0 0 1-1.339-.117.945.945 0 0 1 .117-1.334L22.343 1.08a.95.95 0 0 1 1.221 0l21.521 18.044a.944.944 0 0 1 .117 1.334zm-7.8-5.302L22.955 3.044 8.504 15.16l2.75 28.89h23.397zm-14.448-1.667c4.501 0 8.163 3.65 8.163 8.14 0 4.489-3.662 8.14-8.163 8.14-4.502 0-8.163-3.651-8.163-8.14 0-4.49 3.661-8.14 8.163-8.14zm0 1.894c-3.453 0-6.263 2.802-6.263 6.246 0 3.444 2.81 6.245 6.263 6.245s6.262-2.801 6.262-6.245-2.81-6.246-6.262-6.246zm3.533 20.713a3.531 3.531 0 0 1-3.533 3.522 3.531 3.531 0 0 1-3.533-3.522 3.532 3.532 0 0 1 3.533-3.523 3.532 3.532 0 0 1 3.533 3.523zm-1.9 0a1.633 1.633 0 0 0-3.266 0 1.632 1.632 0 0 0 3.266 0z"/></g></g></svg>