<svg xmlns="http://www.w3.org/2000/svg" width="44" height="42" viewBox="0 0 44 42"><g><g><path d="M42.474 31.653c.37.355.383.94.03 1.31-5.311 5.532-12.46 8.578-20.133 8.578-7.675 0-14.824-3.046-20.132-8.578a.926.926 0 0 1 .029-1.31.93.93 0 0 1 1.313.028c4.954 5.163 11.627 8.006 18.79 8.006 7.161 0 13.835-2.843 18.79-8.006a.932.932 0 0 1 1.313-.028zM17.606 21.37h9.63a5.478 5.478 0 0 1 5.504 5.316l.978 7.204a.923.923 0 0 1-.796 1.04c-.505.088-.977-.285-1.044-.794l-.987-7.297c-.072-2.068-1.675-3.616-3.656-3.616h-9.629a3.626 3.626 0 0 0-3.645 3.522l-1.003 7.432a.925.925 0 0 1-1.045.792.925.925 0 0 1-.795-1.042l.994-7.336c.086-2.886 2.503-5.22 5.494-5.22zm.187-6.17a.924.924 0 0 1-.134-1.302.932.932 0 0 1 1.305-.136c.194.152 4.145 3.183 9.569-.074a.937.937 0 0 1 1.275.316.928.928 0 0 1-.318 1.273c-2.215 1.33-4.24 1.777-5.96 1.777-3.396 0-5.6-1.743-5.737-1.853zm25.503 7.67a.93.93 0 0 1-.929.893h-.032a.93.93 0 0 1-.897-.96c.176-5.004-.744-8.334-2.662-9.63-.978-.661-2.085-.687-2.92-.567.222.347.396.724.537 1.117.757-.124 1.355.065 1.758.309 2.362 1.446 2.424 6.846 2.413 7.914a.929.929 0 0 1-.93.918h-.008a.928.928 0 0 1-.92-.936c.022-2.223-.437-5.65-1.528-6.316-.062-.04-.203-.105-.45-.073l.002.013v16.975a.927.927 0 0 1-.93.927.927.927 0 0 1-.928-.927V15.553a3.648 3.648 0 0 0-3.647-3.64H17.984a.929.929 0 0 1-.897-.684C15.186 4.263 8.411 2.506 5.584 2.073a.59.59 0 0 0-.664.42l-2.718 9.11 1.13.515L6.75 9.105c.338-.395 1.003-.565 1.597-.35a1.527 1.527 0 0 1 1.018 1.407l.54 22.366a.93.93 0 0 1-.907.95h-.022a.93.93 0 0 1-.929-.907l-.524-21.684-3.06 2.7c-.362.424-1.106.583-1.717.301l-1.566-.713a1.542 1.542 0 0 1-.837-1.835l2.796-9.375A2.479 2.479 0 0 1 5.865.242c3.094.473 10.388 2.37 12.812 9.818h12.548c1.165 0 2.243.368 3.134.987 1.024-.326 3.35-.818 5.44.58 2.523 1.69 3.699 5.473 3.497 11.243zM7.304 4.78a.91.91 0 0 1 .28.648.9.9 0 0 1-.298.668c-.13.148-.372.258-.631.258a.882.882 0 0 1-.67-.278.925.925 0 0 1-.26-.648c0-.24.093-.482.26-.648.372-.37.985-.353 1.32 0z"/></g></g></svg>