<svg xmlns="http://www.w3.org/2000/svg" width="42" height="46" viewBox="0 0 42 46"><g><g><path d="M41.769 45.018a.906.906 0 0 1-.639.266.907.907 0 0 1-.666-.294c-2.136-2.304-3.74-4.132-4.767-5.435-2.096-2.655-2.024-5.06-1.935-8.103.03-1.051.066-2.216.02-3.548-.112-3.133-2.14-5.705-3.589-7.157v8.389l.599.88a.978.978 0 0 1-.225 1.333.905.905 0 0 1-1.287-.233l-3.527-5.193c-.383-.65-.879-.403-1.024-.314-.15.094-.614.455-.22 1.128h-.002c.045.087.075.175.093.267.705.966 1.675 2.677 2.492 4.195.03.051.063.098.084.155a90.292 90.292 0 0 1 1.497 2.898c.813 2.852 2.986 6.763 4.666 9.54a.975.975 0 0 1-.293 1.317.897.897 0 0 1-.489.145.914.914 0 0 1-.784-.448c-1.44-2.383-3.223-5.575-4.293-8.34H3.047c-1.35 0-2.409-1.009-2.409-2.297V2.43C.638 1.156 1.696.157 3.047.157H27.98c1.303 0 2.213.935 2.213 2.274v15.773c1.282 1.038 5.256 4.65 5.433 9.63.05 1.38.015 2.587-.018 3.675-.086 2.955-.14 4.737 1.52 6.838.982 1.246 2.597 3.085 4.67 5.322a.98.98 0 0 1-.03 1.35zm-17.117-21.39V5.89H6.18v24.844h18.524a178.852 178.852 0 0 0-1.723-2.925.808.808 0 0 1-.055-.083l-.002-.006c-.9-1.548-.254-3.057.851-3.746.266-.165.565-.283.877-.344zm3.694 2.791V2.43c0-.273-.089-.361-.366-.361H3.047c-.233 0-.561.112-.561.362v31.74c0 .237.29.384.56.384h23.75c-.167-.38-.533-1.067-1.003-1.91H5.256c-.51 0-.923-.427-.923-.955V4.934c0-.528.413-.956.923-.956h20.32c.51 0 .923.428.923.956v19.067c.3.208.576.495.8.879zm-11.01-13.841c0-.529.412-.956.923-.956h3.503c.51 0 .923.427.923.956 0 .528-.413.956-.923.956h-3.503c-.51 0-.924-.428-.924-.956zm0-3.822c0-.528.412-.955.923-.955h3.503c.51 0 .923.427.923.955 0 .529-.413.956-.923.956h-3.503c-.51 0-.924-.427-.924-.956zm0 7.644c0-.528.412-.956.923-.956h3.503c.51 0 .923.428.923.956s-.413.956-.923.956h-3.503c-.51 0-.924-.428-.924-.956zm5.469 3.823c0 .528-.413.955-.924.955H8.95c-.51 0-.924-.427-.924-.955 0-.529.413-.956.924-.956h12.93c.51 0 .924.427.924.956zm-1.871 3.821c0 .529-.413.956-.924.956H8.95c-.51 0-.923-.427-.923-.956 0-.528.413-.955.924-.955h11.06c.51 0 .923.427.923.955zm-6.165 10.223a.91.91 0 0 1-.277-.669.91.91 0 0 1 .277-.669c.314-.362.96-.362 1.293 0 .184.173.277.421.277.67a.99.99 0 0 1-.277.688.907.907 0 0 1-.646.267.85.85 0 0 1-.647-.287zM8.027 16.4V8.756c0-.528.413-.955.924-.955h5.541c.51 0 .924.427.924.955V16.4c0 .528-.413.956-.924.956H8.951c-.51 0-.924-.428-.924-.956zm1.847-.956h3.695V9.712H9.874z"/></g></g></svg>