<svg xmlns="http://www.w3.org/2000/svg" width="44" height="40" viewBox="0 0 44 40"><g><g><path d="M6.839 18.233c0 .953-.854 1.73-1.905 1.73H3.026c-1.051 0-1.905-.777-1.905-1.73 0-.066.008-.131.02-.195l.441-2.08c.059-.76.67-1.359 1.462-1.533v-2.97a.936.936 0 1 1 1.872 0v2.97c.792.174 1.403.773 1.462 1.533l.44 2.08c.013.064.02.13.02.195zm-1.923-.144l-.386-1.816a1.003 1.003 0 0 1-.02-.195l-.078.01a.906.906 0 0 1-.452.134c-.072 0-.136-.026-.204-.041l-.295.04-.462 2.01zM43.613 5.832a.938.938 0 0 1-.69.926L33.275 9.37l.778 12.865c.27.048.547.123.835.251.122.054.225.13.31.223.95.582 1.565 1.599 1.565 2.73a3.239 3.239 0 0 1-2.429 3.132C33.37 34.616 26.742 39.83 21.8 39.83c-4.438 0-11.536-4.981-12.538-11.265a3.232 3.232 0 0 1-2.427-3.125 3.24 3.24 0 0 1 1.915-2.952h.003c.03-.015.058-.017.088-.03l.884-13.34L.97 6.758c-.024-.006-.043-.021-.066-.03a.838.838 0 0 1-.122-.057.914.914 0 0 1-.263-.203.883.883 0 0 1-.12-.179c-.02-.035-.04-.068-.055-.105a.932.932 0 0 1-.056-.275c-.001-.02-.011-.036-.011-.056l.002-.008-.002-.012a.925.925 0 0 1 .07-.327c.012-.031.034-.055.05-.085a.94.94 0 0 1 .13-.195c.03-.031.062-.055.095-.083a.833.833 0 0 1 .297-.167c.031-.01.058-.03.09-.037L21.795.306a.936.936 0 0 1 .408 0l20.68 4.633c.42.095.722.463.731.893zm-11.74 11.365c-3.07 1.129-6.015 1.582-10.071 1.582-3.998 0-7.434-.602-10.721-1.808l-.35 5.268c.615.11 1.142.382 1.557.697.639-1.646 2.227-2.82 4.093-2.82 1.57 0 2.94.834 3.719 2.077a2.864 2.864 0 0 1 1.7-.566c.637 0 1.221.215 1.699.565a4.389 4.389 0 0 1 3.718-2.076c1.877 0 3.47 1.187 4.103 2.846.25-.195.539-.38.87-.52zm-4.656 4.793a2.532 2.532 0 0 0 0 5.061 2.533 2.533 0 0 0 2.53-2.53 2.533 2.533 0 0 0-2.53-2.531zm-10.836 0a2.532 2.532 0 0 0 0 5.061 2.531 2.531 0 0 0 0-5.061zm18.51 3.45c0-.534-.315-1.021-.805-1.24-.013-.006-.02-.018-.032-.024-1.121-.431-1.866.504-1.948.615-.139.185-.339.28-.548.328-.295 2.143-2.118 3.806-4.34 3.806a4.408 4.408 0 0 1-4.4-4.404 1.02 1.02 0 0 0-2.038 0 4.408 4.408 0 0 1-4.4 4.404c-2.222 0-4.046-1.666-4.339-3.812a.89.89 0 0 1-.505-.323c-.088-.116-.864-1.093-2.024-.59-.49.22-.806.706-.806 1.24a1.36 1.36 0 0 0 1.358 1.359c.488 0 .934.374.973.861.438 5.585 6.923 10.297 10.763 10.297 3.93 0 10.314-4.614 10.761-10.297a.936.936 0 0 1 .932-.863h.004c.788 0 1.395-.609 1.395-1.357zm-3.46-15.57l-9.189 2.489a.934.934 0 0 1-.488.002L11.568 9.615l-.358 5.413c3.23 1.263 6.61 1.877 10.592 1.877 4.048 0 6.904-.48 9.953-1.672zm7.346-3.93l-16.78-3.76L9.72 4.918h11.26a.936.936 0 0 1 0 1.873H8.288l13.708 3.695zM24.933 31.171a.936.936 0 0 1 0 1.324c-.987.989-2.09 1.49-3.274 1.49h-.025c-1.958-.012-3.367-1.437-3.427-1.498a.936.936 0 0 1 1.338-1.31c.029.028.957.933 2.112.934h.002c.67 0 1.327-.316 1.95-.94a.934.934 0 0 1 1.324 0zm-9.006-7.016c.319-.319.975-.338 1.33.018a.939.939 0 0 1 .262.656.935.935 0 0 1-.263.655.942.942 0 0 1-.672.282.877.877 0 0 1-.657-.282.952.952 0 0 1-.28-.655c0-.243.112-.487.28-.674zm11.68 0c.168.187.281.43.281.674a.953.953 0 0 1-.282.655.95.95 0 0 1-.654.282.96.96 0 0 1-.674-.282.934.934 0 0 1-.262-.655c0-.243.094-.487.262-.656a.98.98 0 0 1 1.328-.018z"/></g></g></svg>