<svg xmlns="http://www.w3.org/2000/svg" width="38" height="46" viewBox="0 0 38 46"><g><g><path d="M19.94 29.74v13.62h10.023a.944.944 0 1 1 0 1.884H8.027a.943.943 0 1 1 0-1.884h10.021V29.733L.696 9.103a.944.944 0 0 1 .724-1.548h23.443l4.954-6.97a.952.952 0 0 1 1.318-.224.941.941 0 0 1 .226 1.314l-4.18 5.88h9.868c.37 0 .706.216.86.55.154.336.099.728-.143 1.008zM3.445 9.44l15.557 18.495L34.986 9.44h-9.144l-2.64 3.715c.424.54.717 1.185.814 1.92.145 1.1-.13 2.241-.78 3.213-.864 1.298-2.303 2.104-3.755 2.104-.432 0-.844-.09-1.24-.227l-1.096 1.514a.943.943 0 0 1-1.319.213.936.936 0 0 1-.214-1.314l1.06-1.465c-1.186-1.371-1.305-3.542-.148-5.277 1.16-1.736 3.419-2.485 5.168-1.82l1.831-2.576zm18.216 7.804c.396-.592.565-1.275.479-1.922-.08-.601-.375-1.1-.83-1.402a1.84 1.84 0 0 0-1.032-.302c-.824 0-1.66.485-2.181 1.264-.787 1.18-.63 2.67.353 3.323.953.637 2.45.179 3.211-.96z"/></g></g></svg>