<svg xmlns="http://www.w3.org/2000/svg" width="44" height="33" viewBox="0 0 44 33"><g><g><path d="M43.962 9.756c0 2.362-1.866 4.291-4.184 4.35-.914.223-1.584.728-2.044 1.543-1.574 2.797-.246 8.506.399 10.47.094.285.045.6-.128.842a.916.916 0 0 1-.75.39H7.278a.916.916 0 0 1-.748-.39.946.946 0 0 1-.129-.843c.645-1.963 1.973-7.672.4-10.47-.461-.814-1.13-1.32-2.046-1.542C2.437 14.047.57 12.118.57 9.756c0-2.4 1.928-4.352 4.296-4.352h.003c.075 0 .188.003.324.01 1.335-1.873 6.921-8.305 17.074-2.796 10.153-5.503 15.738.922 17.075 2.796a4.337 4.337 0 0 1 4.621 4.342zM23.19 4.216v15.616h8.783c-.835-5.161-.222-9.056 1.828-11.583A7.592 7.592 0 0 1 37.32 5.81c-1.667-2.004-6.197-5.87-14.13-1.595zM7.213 5.811a7.578 7.578 0 0 1 3.519 2.437c2.05 2.527 2.664 6.422 1.826 11.583h8.784V4.215C13.415-.063 8.88 3.807 7.212 5.812zm34.901 3.944c0-1.368-1.097-2.48-2.445-2.48-.253-.054-2.73.056-4.44 2.162-1.803 2.22-2.233 6.077-1.244 11.15a.941.941 0 0 1-.19.775.925.925 0 0 1-.716.342H11.452a.925.925 0 0 1-.715-.342.941.941 0 0 1-.191-.775c.989-5.073.56-8.93-1.242-11.15C7.6 7.338 5.18 7.277 4.908 7.277a2.474 2.474 0 0 0-2.49 2.479c0 1.367 1.097 2.48 2.446 2.48.065 0 .132.007.195.02 1.482.325 2.608 1.157 3.346 2.468 1.776 3.157.728 8.382.105 10.755h27.513c-.623-2.373-1.671-7.598.105-10.755.738-1.311 1.864-2.143 3.346-2.467a.928.928 0 0 1 .195-.021c1.348 0 2.445-1.113 2.445-2.48zM35.276 29.96v2.004a.93.93 0 0 1-.924.937h-3.788a.93.93 0 0 1-.924-.937V29.96a.93.93 0 0 1 .924-.936.93.93 0 0 1 .924.936v1.068h1.94V29.96a.93.93 0 0 1 .924-.936.93.93 0 0 1 .924.936zm-20.33 0v2.004a.93.93 0 0 1-.924.937h-3.788a.93.93 0 0 1-.925-.937V29.96a.93.93 0 0 1 .925-.936.93.93 0 0 1 .924.936v1.068h1.94V29.96a.93.93 0 0 1 .924-.936.93.93 0 0 1 .924.936z"/></g></g></svg>