<svg xmlns="http://www.w3.org/2000/svg" width="46" height="38" viewBox="0 0 46 38"><g><g><path d="M30.315 34.492v1.645c0 .765-.632 1.39-1.409 1.39h-12.22a1.401 1.401 0 0 1-1.408-1.39v-1.645c0-.568.361-1.089.898-1.295 2.895-1.109 3.795-1.67 4.068-1.887v-.009a5.145 5.145 0 0 1-.875-1.621c-.294-.3-.49-.69-.55-1.108-.061-.43.02-.852.226-1.224v-1.2c0-2.147 1.438-3.481 3.752-3.481 2.35 0 3.75 1.301 3.75 3.481v1.2a1.964 1.964 0 0 1-.326 2.333 5.068 5.068 0 0 1-.872 1.62v.058c.18.108 1.014.671 4.067 1.837.536.205.899.725.899 1.296zm-1.886.307c-4.205-1.63-4.731-2.31-4.923-2.914a.91.91 0 0 1-.042-.272v-.658c0-.238.096-.468.265-.64.33-.334.6-.829.758-1.396a.927.927 0 0 1 .365-.506c-.135-.164-.19-.583-.19-.793v-1.472c0-1.133-.574-1.638-1.865-1.638-1.274 0-1.867.52-1.867 1.638v1.472a.91.91 0 0 1-.208.577c.177.123.322.517.38.72.163.576.427 1.06.762 1.398.17.172.265.402.265.64v.658a.905.905 0 0 1-.042.27c-.227.724-1.116 1.44-4.923 2.916v.884h11.265zm16.968-20.585v1.644a1.4 1.4 0 0 1-1.408 1.39H31.77a1.4 1.4 0 0 1-1.409-1.39v-1.644c0-.577.352-1.085.899-1.295 2.892-1.108 3.793-1.669 4.065-1.886v-.01a5.131 5.131 0 0 1-.874-1.622 1.999 1.999 0 0 1-.549-1.107 1.94 1.94 0 0 1 .225-1.224v-1.2c0-2.147 1.438-3.48 3.752-3.48 2.349 0 3.752 1.3 3.752 3.48v1.2a1.958 1.958 0 0 1-.326 2.331 5.1 5.1 0 0 1-.872 1.621v.06c.178.108 1.01.668 4.067 1.836.544.21.896.718.896 1.296zm-1.885.306c-3.806-1.475-4.695-2.19-4.921-2.914a.905.905 0 0 1-.043-.27v-.66c0-.237.094-.467.264-.639.332-.336.602-.831.76-1.395a.924.924 0 0 1 .364-.507c-.134-.165-.19-.584-.19-.794V5.87c0-1.132-.576-1.637-1.866-1.637-1.274 0-1.867.52-1.867 1.637v1.472c0 .21-.074.413-.206.577.176.123.322.518.381.723.158.564.427 1.059.76 1.395.17.172.264.402.264.64v.658a.905.905 0 0 1-.043.271c-.226.724-1.116 1.438-4.921 2.915v.884h11.264zm-28.282-.306v1.644c0 .767-.631 1.39-1.408 1.39H1.604a1.4 1.4 0 0 1-1.408-1.39v-1.644c0-.577.351-1.085.898-1.295 2.892-1.108 3.793-1.669 4.065-1.886v-.01A5.135 5.135 0 0 1 4.284 9.4a1.998 1.998 0 0 1-.548-1.107c-.06-.429.018-.852.225-1.224v-1.2c0-2.147 1.437-3.48 3.752-3.48 2.35 0 3.75 1.3 3.75 3.48v1.199c.208.373.288.797.227 1.227-.06.42-.256.807-.551 1.105a5.09 5.09 0 0 1-.872 1.621v.06c.178.108 1.01.668 4.067 1.836.544.21.896.718.896 1.296zm-1.885.306c-3.806-1.475-4.695-2.19-4.922-2.914a.909.909 0 0 1-.042-.27v-.66c0-.237.094-.467.263-.639.334-.336.603-.831.76-1.395a.927.927 0 0 1 .365-.507c-.134-.165-.191-.584-.191-.794V5.87c0-1.132-.575-1.637-1.865-1.637-1.274 0-1.867.52-1.867 1.637v1.472c0 .21-.074.413-.206.577.177.123.322.518.38.723.16.564.428 1.059.761 1.395.17.172.263.402.263.64v.658a.905.905 0 0 1-.042.271c-.226.724-1.115 1.438-4.921 2.915v.884h11.264zm.681-10.477a.91.91 0 0 1 .339-1.26c5.249-2.987 12.074-2.989 17.327 0a.91.91 0 0 1 .342 1.26.949.949 0 0 1-1.288.332c-4.68-2.66-10.758-2.658-15.431 0a.956.956 0 0 1-1.289-.332zm26.146 15.142c0 .035-.002.07-.006.105-.576 4.946-3.356 9.37-7.625 12.136a.963.963 0 0 1-.522.153.947.947 0 0 1-.786-.414.913.913 0 0 1-.156-.508c0-.298.149-.592.421-.769 3.806-2.463 6.282-6.402 6.794-10.806.059-.507.538-.87 1.044-.811.48.053.836.452.836.914zM14.558 29.888a.914.914 0 0 1 .265 1.278.961.961 0 0 1-1.307.26c-4.27-2.767-7.048-7.19-7.624-12.136a.929.929 0 0 1 .83-1.02.946.946 0 0 1 1.044.812c.512 4.403 2.988 8.342 6.792 10.806z"/></g></g></svg>