<svg xmlns="http://www.w3.org/2000/svg" width="46" height="46" viewBox="0 0 46 46"><g><g><path d="M41.039 24.801c-.701 8.12-6.792 14.817-14.814 16.288h-.007v.001l-.036.003c-.043.006-.087.012-.13.012a.955.955 0 0 1-.822-.472c-.004-.008-.005-.018-.01-.027a.948.948 0 0 1-.107-.283v-.01c-.049-.283-.871-5.26.623-9.782a7.844 7.844 0 0 1-2.795.529 7.844 7.844 0 0 1-2.845-.544c1.557 4.518.78 9.506.733 9.788 0 .004-.003.007-.004.011 0 .005.002.01 0 .015a.955.955 0 0 1-1.109.77C11.641 39.649 5.523 32.929 4.84 24.758c-.006-.068.014-.13.022-.195.004-.037.004-.072.012-.108a.937.937 0 0 1 .096-.23c.02-.035.035-.07.058-.104a.914.914 0 0 1 .154-.155c.04-.035.076-.07.121-.097.052-.032.11-.05.17-.072.047-.017.086-.048.137-.058 3.906-.784 7.124-.514 9.619.79a7.866 7.866 0 0 1 .446-4.243H6.182c-.005 0-.008-.003-.012-.003a.963.963 0 0 1-.212-.025c-.027-.006-.046-.024-.072-.032a1.008 1.008 0 0 1-.166-.076.91.91 0 0 1-.166-.112.918.918 0 0 1-.095-.103.924.924 0 0 1-.13-.192c-.017-.034-.028-.07-.04-.105a.905.905 0 0 1-.053-.262c-.001-.016-.01-.03-.01-.045 0-.023.011-.04.013-.061.003-.054-.008-.105.004-.158 1.925-8.268 9.202-14.042 17.698-14.042 8.495 0 15.77 5.774 17.695 14.041.012.05 0 .098.004.148.002.025.015.046.015.072 0 .019-.01.035-.01.053a.915.915 0 0 1-.05.24.859.859 0 0 1-.047.126.913.913 0 0 1-.118.175.923.923 0 0 1-.11.118.93.93 0 0 1-.15.101.917.917 0 0 1-.182.083c-.024.008-.041.025-.066.03-.036.01-.07 0-.105.004-.04.006-.075.025-.117.025h-9.495a7.86 7.86 0 0 1 .456 4.143c2.463-1.255 5.638-1.501 9.481-.727a.943.943 0 0 1 .369.167c.34.169.562.531.528.933zm-24.206-6.426c.185-.231.349-.474.563-.688a7.79 7.79 0 0 1 5.545-2.292c2.096 0 4.064.814 5.543 2.292.214.214.378.457.562.688h9.404A16.174 16.174 0 0 0 22.94 6.977c-7.193 0-13.405 4.631-15.51 11.398zm2.225 20.624c.206-2.353.35-8.327-3.014-11.565-2.048-1.972-5.147-2.623-9.193-1.966a16.252 16.252 0 0 0 12.207 13.53zm3.883-9.848a5.891 5.891 0 0 0 4.192-1.732 5.936 5.936 0 0 0 0-8.383 5.895 5.895 0 0 0-4.192-1.732 5.897 5.897 0 0 0-4.195 1.732 5.934 5.934 0 0 0 0 8.382 5.895 5.895 0 0 0 4.195 1.733zm16.09-3.699c-4.098-.688-7.223-.05-9.266 1.939-3.339 3.25-3.127 9.24-2.894 11.597a16.275 16.275 0 0 0 12.16-13.536zm6.486-2.226c0 12.444-10.127 22.568-22.576 22.568C10.49 45.794.364 35.67.364 23.226.364 10.784 10.492.661 22.941.661c12.449 0 22.576 10.123 22.576 22.565zm-1.91 0c0-11.39-9.271-20.656-20.666-20.656-11.396 0-20.667 9.266-20.667 20.656 0 11.392 9.271 20.659 20.667 20.659 11.395 0 20.666-9.267 20.666-20.659z"/></g></g></svg>