<svg xmlns="http://www.w3.org/2000/svg" width="37" height="44" viewBox="0 0 37 44"><g><g><path d="M36.36 40.373c.034.722-.284 1.411-.97 2.106-.654.661-1.3.984-1.977.984-1.343 0-2.31-1.19-3.773-2.993-.856-1.054-1.922-2.366-3.318-3.752-1.372-1.363-2.878-2.052-4.476-2.052-1.396 0-2.528.525-3.078.837-.032.019-.065.03-.098.047l-.013.007c-.818.451-1.642.776-2.451.95a8.27 8.27 0 0 1-1.742.189c-3.888 0-6.985-2.81-10.078-5.939-5.41-5.48-5.702-14.802-.622-19.946 2.422-2.454 6.012-3.86 9.852-3.86 3.948 0 7.572 1.467 10.202 4.13 3.558 3.605 6.67 7.234 5.678 11.969-.172.82-.494 1.657-.94 2.485l-.002.006c-.019.033-.03.068-.048.102-.68 1.228-1.924 4.425 1.198 7.65 1.366 1.412 2.66 2.49 3.7 3.358 1.742 1.45 2.892 2.409 2.956 3.722zm-18.597-6.47l9.162-9.278c.357-.664.614-1.326.747-1.966.801-3.814-1.869-6.897-5.172-10.244-2.279-2.305-5.435-3.577-8.884-3.577-3.35 0-6.46 1.205-8.535 3.306C.704 16.58.993 24.651 5.704 29.423c3.198 3.237 6.423 6.034 10.116 5.238.633-.135 1.285-.396 1.943-.758zm16.735 6.56c-.024-.478-1.118-1.39-2.277-2.356-1.076-.895-2.412-2.008-3.85-3.494-2.113-2.183-2.627-4.4-2.538-6.214l-4.357 4.412c.127-.006.24-.032.37-.032 2.104 0 4.048.871 5.78 2.59 1.468 1.457 2.57 2.814 3.454 3.903.919 1.132 1.87 2.304 2.333 2.304.15 0 .388-.157.659-.432.282-.285.433-.526.426-.68zM22.76 4.075C22.76 1.92 24.491.17 26.617.17c2.126 0 3.855 1.751 3.855 3.905 0 2.152-1.73 3.905-3.855 3.905-2.126 0-3.857-1.753-3.857-3.905zm1.864 0c0 1.112.893 2.017 1.993 2.017 1.097 0 1.99-.905 1.99-2.017 0-1.112-.893-2.018-1.99-2.018-1.1 0-1.993.906-1.993 2.018zM7.053 18.125v5.662c0 .521-.417.944-.932.944a.937.937 0 0 1-.932-.944v-5.661c0-.522.417-.944.932-.944.515 0 .932.422.932.944zm3.727-2.8v11.206a.937.937 0 0 1-.932.944.937.937 0 0 1-.931-.944V15.325c0-.52.416-.943.931-.943.515 0 .932.423.932.943z"/></g></g></svg>