<svg xmlns="http://www.w3.org/2000/svg" width="44" height="40" viewBox="0 0 44 40"><g><g><path d="M43.854 38.603a.95.95 0 0 1-.942.96H1.484a.95.95 0 0 1-.942-.96c0-.531.422-.96.942-.96h1.872V22.274h-.942a.951.951 0 0 1-.941-.96v-2.882a.951.951 0 0 1-.942-.96.95.95 0 0 1 .942-.96h1.883V14.59a.95.95 0 0 1-.942-.96c0-.531.422-.961.942-.961h11.299v-.96c0-.531.42-.96.941-.96h3.883l.775-5.45a.95.95 0 0 1 .933-.824h.05V1.064c0-.53.42-.96.94-.96.521 0 .942.43.942.96v3.412h.05a.95.95 0 0 1 .932.824l.775 5.45h3.902c.52 0 .941.429.941.96v.96h11.3c.52 0 .94.43.94.96a.95.95 0 0 1-.94.96v1.922H42.9a.95.95 0 0 1 .942.96c0 .531-.421.961-.942.961v2.881c0 .531-.42.961-.941.961h-.942v15.367h1.894c.52 0 .942.43.942.96zm-4.719-16.328h-3.766v15.367h3.766zm-28.247 0v15.367h5.65V22.275zm7.533 15.367h7.532V22.275h-7.532zm9.415 0h5.65V22.275h-5.65zm1.883-23.051v1.921h9.416v-1.921zm-7.784-7.727h.486l-.066-.467H22zm-.551 3.886h1.588l-.279-1.964h-1.03zm-4.846 5.762h11.298V12.67H16.538zm-11.3 0h9.417v-1.921H5.239zm-1.882 1.921v1.92h37.662v-1.92zm1.883 19.21h3.766V22.274H5.24z"/></g></g></svg>