<svg xmlns="http://www.w3.org/2000/svg" width="44" height="46" viewBox="0 0 44 46"><g><g><path d="M16.304 39.553a2.553 2.553 0 0 1-2.556 2.544 2.553 2.553 0 0 1-2.555-2.544 2.554 2.554 0 0 1 2.555-2.545 2.554 2.554 0 0 1 2.556 2.545zm-1.888 0c0-.367-.3-.664-.668-.664a.666.666 0 0 0-.667.664.666.666 0 1 0 1.335 0zm29.428-24.5c0 6.222-4.594 11.283-10.24 11.283h-2.629l-4.01 3.228v5.145c.003.03.018.056.018.086 0 .03-.015.057-.017.088v5.51c0 2.625-2.145 4.76-4.781 4.76H5.312c-2.635 0-4.78-2.135-4.78-4.76V4.724c0-2.624 2.145-4.76 4.78-4.76h16.873c2.31 0 4.24 1.64 4.684 3.81h6.735c5.646 0 10.24 5.06 10.24 11.28zM2.42 4.724v.93h16.001c1.653-1.186 3.64-1.88 5.776-1.88h.706a2.886 2.886 0 0 0-2.718-1.93H5.312a2.888 2.888 0 0 0-2.892 2.88zm22.657 35.67v-4.657H2.42v4.658a2.888 2.888 0 0 0 2.892 2.879h16.873a2.888 2.888 0 0 0 2.892-2.88zm0-9.308l-2.23 1.796a.948.948 0 0 1-1 .118.941.941 0 0 1-.537-.85v-6.533c-3.74-1.231-7.507-5.455-7.507-10.727 0-2.822.996-5.393 2.622-7.356H2.437v26.322h22.64zm16.88-16.031c0-5.095-3.826-9.401-8.353-9.401h-7.537c-.016.001-.03.009-.046.009s-.03-.008-.045-.01h-1.78c-4.61 0-8.505 4.23-8.505 9.237 0 4.687 3.513 8.372 6.77 9.096a.941.941 0 0 1 .737.917v5.278l6.85-5.516a.944.944 0 0 1 .593-.209h2.963c4.527 0 8.352-4.306 8.352-9.401zm-8.277 3.768c.46.462.471 1.199.024 1.678-.118.127-1.18 1.25-1.882 1.605-.433.218-.908.329-1.41.329-1.64 0-3.532-1.146-5.954-3.608-2.281-2.315-5.015-5.698-2.435-8.325.904-.928 1.266-1.216 1.742-1.216.474 0 .573 0 3.52 3.054.298.302.418.605.407.927-.02.59-.465 1.032-.869 1.392.338.592 1.319 1.595 1.877 1.912.049-.047.093-.093.134-.135.341-.346.695-.705 1.265-.705.659 0 1.053.424 1.917 1.352.396.428.927 1 1.664 1.74zm-1.807.85c-.522-.537-.925-.97-1.243-1.31-.185-.201-.366-.394-.511-.545-.117.118-.253.254-.415.402-.071.066-.195.151-.282.192a1.27 1.27 0 0 1-.572.126c-1.367 0-3.365-2.212-3.844-3.32-.37-.855-.061-1.367.155-1.596l.294-.269.102-.088a76.587 76.587 0 0 0-1.813-1.823c-.085.082-.186.185-.306.307-.54.55-1.65 1.683 2.367 5.763 2.477 2.515 3.873 3.042 4.607 3.042.206 0 .389-.04.558-.127.154-.077.528-.395.903-.754zm-4.256-8.306a.942.942 0 0 1 .913-.97 4.293 4.293 0 0 1 3.2 1.258 4.248 4.248 0 0 1 1.259 3.186.942.942 0 0 1-.943.909h-.032a.943.943 0 0 1-.912-.973 2.398 2.398 0 0 0-.708-1.793c-.48-.48-1.114-.751-1.803-.707-.514-.04-.957-.393-.974-.91zm5.932-1.524a5.913 5.913 0 0 1 1.755 4.362.944.944 0 0 1-.945.92h-.02a.943.943 0 0 1-.923-.96 4.06 4.06 0 0 0-1.203-2.993c-.8-.797-1.825-1.183-3.007-1.2-.462.041-.953-.4-.965-.919a.942.942 0 0 1 .924-.96 5.974 5.974 0 0 1 4.384 1.75z"/></g></g></svg>