<svg xmlns="http://www.w3.org/2000/svg" width="46" height="46" viewBox="0 0 46 46"><g><g><path d="M40.616 18.664a3.156 3.156 0 0 1 0 4.438c-.59.594-1.374.92-2.208.92a3.092 3.092 0 0 1-2.207-.92 3.126 3.126 0 0 1-.914-2.221c0-.838.326-1.625.914-2.217 1.181-1.188 3.234-1.188 4.415 0zm-1.332 1.34a1.228 1.228 0 0 0-.876-.366c-.33 0-.641.13-.875.365a1.236 1.236 0 0 0-.362.88c0 .332.128.645.362.88.467.47 1.284.47 1.751 0a1.25 1.25 0 0 0 0-1.76zm-6.6.494v17.633c0 1.945-1.515 3.587-3.31 3.587H7.818c-1.836 0-3.388-1.642-3.388-3.587V20.498c0-1.879 1.52-3.407 3.388-3.407h21.554c1.856 0 3.311 1.497 3.311 3.407zm-1.883 0c0-.863-.614-1.512-1.428-1.512H7.82a1.51 1.51 0 0 0-1.504 1.512v17.633c0 .886.717 1.693 1.504 1.693h21.554c.841 0 1.428-.892 1.428-1.693zm15.068-2.997v23.392c0 2.459-2.029 4.614-4.341 4.614H5.104c-2.323 0-4.44-2.2-4.44-4.614V17.501c0-2.314 1.992-4.198 4.44-4.198h16.014l-5.784-7.481c-.274.09-.562.151-.865.151A2.808 2.808 0 0 1 11.67 3.16 2.808 2.808 0 0 1 14.469.346a2.808 2.808 0 0 1 2.355 4.32l6.218 8.04 6.216-8.042A2.808 2.808 0 0 1 31.614.346 2.808 2.808 0 0 1 34.41 3.16a2.808 2.808 0 0 1-2.797 2.814 2.75 2.75 0 0 1-.866-.152l-5.782 7.482h16.562c2.393 0 4.34 1.884 4.34 4.198zM30.699 3.159c0 .507.41.92.915.92a.918.918 0 0 0 .914-.92.918.918 0 0 0-.914-.919.918.918 0 0 0-.914.92zm-16.23.92a.918.918 0 0 0 .914-.92.918.918 0 0 0-.914-.919.918.918 0 0 0-.914.92c0 .506.41.919.914.919zM43.985 17.5c0-1.292-1.08-2.304-2.457-2.304H5.104c-1.385 0-2.556 1.055-2.556 2.304v23.392c0 1.373 1.267 2.72 2.556 2.72h36.424c1.264 0 2.457-1.322 2.457-2.72z"/></g></g></svg>