<svg xmlns="http://www.w3.org/2000/svg" width="44" height="31" viewBox="0 0 44 31"><g><g><path d="M43.855 21.98c0 4.715-4.23 8.55-9.424 8.55-5.196 0-9.424-3.835-9.424-8.55 0-.011.005-.02.005-.03.002-.061.023-.12.036-.18.015-.066.024-.13.05-.19.005-.009.004-.018.008-.026L32.93 5.722h-9.778v4.489c0 .528-.42.956-.941.956a.948.948 0 0 1-.941-.956V5.72H11.5l7.777 15.835c.004.007.003.015.006.023.029.062.039.132.053.2.013.058.032.113.034.17 0 .011.006.02.006.031 0 4.715-4.226 8.55-9.422 8.55-5.196 0-9.424-3.835-9.424-8.55 0-.011.005-.02.006-.03.002-.061.022-.12.036-.18.014-.066.023-.13.05-.19.004-.009.003-.018.007-.026L9.139 4.34c.01-.021.033-.03.045-.05a.935.935 0 0 1 .254-.283c.034-.024.062-.047.099-.067a.907.907 0 0 1 .444-.128h11.29V1.418c0-.528.42-.955.941-.955.52 0 .941.427.941.955v2.393h11.305l.005.002a.91.91 0 0 1 .437.126c.037.02.067.044.1.068.105.078.191.173.257.287.01.018.032.027.041.046l8.457 17.216c.004.007.003.015.006.023.03.062.039.132.054.2.012.058.032.113.034.17 0 .011.005.02.005.031zm-40.856-.956h13.916L9.979 6.902zm14.418 1.91H2.491c.528 3.212 3.673 5.686 7.464 5.686 3.79 0 6.935-2.474 7.462-5.685zM34.454 6.903l-6.98 14.122h13.918zm7.44 16.033H26.967c.528 3.21 3.674 5.685 7.465 5.685 3.79 0 6.936-2.474 7.464-5.685z"/></g></g></svg>