<svg xmlns="http://www.w3.org/2000/svg" viewBox="0 0 403.61 512"><title>file</title><g id="Слой_2" data-name="Слой 2"><g id="Слой_1-2" data-name="Слой 1"><path d="M86.71,512c-5-1.74-10.26-2.9-14.88-5.32-17.65-9.26-27.8-23.92-28-44-.4-43.66-.14-87.32-.13-131,0-1.14.22-2.27.38-3.86l30.47-2.09v6.52q0,63.24,0,126.48c0,15.06,7.31,22.34,22.39,22.34H350.42c14.64,0,22.25-7.53,22.22-22.08q-.31-141.23-.66-282.45v-6h-5.44c-18.83,0-37.66.15-56.49.12-22.82,0-37.59-14.73-37.66-37.47-.06-19.33-.15-38.67.08-58,0-4.46-1.34-5.6-5.69-5.58-39.65.18-79.32.15-119,.17-6.52,0-6.52,0-6.53-6.57,0-6.16.17-12.33-.06-18.49-.14-3.6.26-6.35,5.15-6.08l.29-1.5c-1.82-1.09-3.85-3.28-5.4-3-1.88.36-3.74,2.6-4.88,4.46-.76,1.24-.3,3.25-.3,4.91q0,62,0,124c0,1.83-.42,4,.4,5.4,1,1.74,3.24,4.07,4.71,3.91,1.88-.19,3.85-2.38,5.16-4.16.74-1,.27-2.91.27-4.41,0-16,0-32,0-48,0-11.12,7.05-19,16.85-19s17,7.92,17,18.91c0,17.5.22,35-.07,52.49a39,39,0,0,1-77.25,6.83,57.06,57.06,0,0,1-.7-11q-.06-62.73,0-125.48C102.42,20,111.83,7.34,134,.64c.28-.08.48-.42.72-.64h13a14.88,14.88,0,0,0,2.22,1c16.87,4.47,26.69,15.46,30,32.44.34,1.74.61,3.5,1,5.64h6.2c30.5,0,61,.06,91.48-.08a11.73,11.73,0,0,1,9.15,3.85q55.83,55.85,111.9,111.47a12.24,12.24,0,0,1,3.93,9.59q-.15,147-.08,293.93c0,1.84,0,3.67-.08,5.5-.88,15.69-7.38,28.42-19.72,38.27-7.11,5.68-15.44,8.27-24,10.43Z"/><path d="M85.49,99.1v5c0,22.49-.15,45,0,67.48.36,40.32,38.76,66.58,76.45,52.42,20.64-7.75,34.9-28.28,35.34-51.73.34-18,.17-36,0-54-.08-10.33-4.4-18.93-13-26.62,8-.6,14.72-1.13,21.47-1.63,4.32-.31,8.64-.68,13-.85,8.51-.32,14.33,4.93,14.91,13.36q6.22,89.74,12.42,179.49c.62,9-4.53,15.18-13.51,15.81q-60.57,4.23-121.15,8.28-40.38,2.76-80.77,5.62c-12.69.89-17.8-3.44-18.67-16.23Q6.49,214.77,1.05,134c-.37-5.49-.93-11-1-16.46-.15-7.52,4.71-13.46,12.12-14,23.91-1.87,47.85-3.41,71.78-5C84.19,98.42,84.5,98.67,85.49,99.1Z"/><path d="M44.82,84c-.3-19.7,21.05-42.56,40.6-43.32,0,10.08.21,20.16-.22,30.22-.07,1.64-3.59,2.89-4.56,4.8C76.79,83.25,69.76,82.55,63.11,83,57,83.36,50.92,83.66,44.82,84Z"/></g></g></svg>