<svg xmlns="http://www.w3.org/2000/svg" viewBox="0 0 364.28 600"><defs><style>.cls-1{fill:#5e5e5e;}</style></defs><title>flag</title><g id="Слой_2" data-name="Слой 2"><g id="Layer_1" data-name="Layer 1"><path class="cls-1" d="M340.22,0H24.06A24.06,24.06,0,0,0,0,24.06V600L182.14,471.13,364.28,600V24.06A24.06,24.06,0,0,0,340.22,0ZM304.05,211.59,250.33,264a6.57,6.57,0,0,0-1.89,5.81l12.68,73.94a6.57,6.57,0,0,1-9.53,6.92L185.2,315.71a6.62,6.62,0,0,0-6.12,0l-66.39,34.91a6.57,6.57,0,0,1-9.54-6.92l12.68-73.94A6.57,6.57,0,0,0,114,264L60.23,211.59a6.57,6.57,0,0,1,3.64-11.21L138.1,189.6a6.58,6.58,0,0,0,5-3.6l33.2-67.26a6.56,6.56,0,0,1,11.78,0L221.23,186a6.55,6.55,0,0,0,4.94,3.6l74.24,10.78A6.58,6.58,0,0,1,304.05,211.59Z"/></g></g></svg>