<svg xmlns="http://www.w3.org/2000/svg" viewBox="0 0 512 470.74"><title>like</title><g id="Слой_2" data-name="Слой 2"><g id="Слой_1-2" data-name="Слой 1"><path d="M512,128.54v24c-.3,1.44-.62,2.89-.91,4.34-1.93,9.94-3.18,20.08-5.92,29.8-9.27,33-27.48,61.16-48.55,87.66-27,34-58.31,64-90,93.62-36.26,33.9-74.82,65.33-109,101.45a16.64,16.64,0,0,1-1.72,1.33c-1.42-1.35-2.74-2.57-4-3.84C240.26,455.42,229,443.57,217,432.51c-28.69-26.4-58-52.14-86.54-78.69-29.55-27.48-57.82-56.25-82.14-88.61-19.76-26.29-36.16-54.34-43.76-86.74-2-8.53-3.06-17.28-4.55-25.93v-24c.32-1.44.77-2.87,1-4.33,4.9-40.22,23-73,55.71-97.13,49.65-36.52,119.46-36,171,1.11,10.18,7.34,19.25,16.2,29.09,24.58.62-.64,1.73-1.83,2.86-3,35.78-37.08,79.1-54.48,130.63-48.31,57.44,6.88,102.1,46.35,116.92,102.22C509.3,111.83,510.41,120.25,512,128.54Z"/></g></g></svg>