<svg xmlns="http://www.w3.org/2000/svg" width="24" height="34" viewBox="0 0 24 34"><g><g><path fill="#444848" d="M24.092 20.559c.003 3.157-2.429 5.234-6.047 5.234H6.529c-3.618 0-6.05-2.077-6.05-5.169L1.82 5.878C1.817 2.69 4.362.328 7.867.328h8.839c3.506 0 6.05 2.361 6.05 5.615l.083.895a.491.491 0 0 1 .002.026zM2.452 14.33c.002.01.008.021.008.032.178.434 2.128 1.461 5.062 1.461h9.513c2.964 0 4.934-1.045 5.086-1.473l.002-.01-.654-7.155c-.39-.502-2.037-1.18-4.672-1.18h-9.02c-2.633 0-4.288.681-4.675 1.183zM3.272 5.4c1.264-.575 3.025-.81 4.506-.81h9.02c1.483 0 3.24.234 4.503.807-.298-2.165-2.127-3.653-4.594-3.653H7.867C5.38 1.743 3.543 3.255 3.27 5.4zm19.426 15.225l-.418-4.578c-1.257.75-3.293 1.195-5.244 1.195H7.522c-1.944 0-3.972-.446-5.225-1.193l-.422 4.64c.003 2.704 2.405 3.69 4.654 3.69h11.516c2.25 0 4.652-.986 4.652-3.754zm-14.26-.02A2.305 2.305 0 0 1 6.14 22.91a2.305 2.305 0 0 1-2.297-2.307 2.304 2.304 0 0 1 2.297-2.307 2.305 2.305 0 0 1 2.298 2.307zm-1.397 0a.896.896 0 0 0-.9-.892c-.495 0-.9.4-.9.891 0 .492.405.891.9.891.496 0 .9-.4.9-.89zm13.61 0a2.305 2.305 0 0 1-2.297 2.306 2.305 2.305 0 0 1-2.297-2.307 2.305 2.305 0 0 1 2.297-2.307 2.305 2.305 0 0 1 2.298 2.307zm-1.397 0a.897.897 0 0 0-.9-.892c-.495 0-.9.4-.9.891 0 .492.405.891.9.891.496 0 .9-.4.9-.89zm.582 12.43a.71.71 0 0 1-.403.915.699.699 0 0 1-.901-.41l-.824-2.186H6.822l-.824 2.187a.697.697 0 0 1-.9.409.71.71 0 0 1-.405-.914l2.236-5.937a.695.695 0 0 1 .901-.41.71.71 0 0 1 .404.915l-.879 2.334h9.819l-.88-2.334a.71.71 0 0 1 .405-.914.695.695 0 0 1 .9.409zM9.655 3.185c0-.39.313-.707.7-.707h3.872c.386 0 .699.316.699.708a.703.703 0 0 1-.7.708h-3.872a.703.703 0 0 1-.699-.708z"/></g></g></svg>