<svg xmlns="http://www.w3.org/2000/svg" width="34" height="26" viewBox="0 0 34 26"><g><g><path fill="#444848" d="M30.195 3.474a.707.707 0 0 1-.052.991L19.125 14.471a2.916 2.916 0 0 1-1.96.748c-.705 0-1.409-.25-1.958-.748L4.187 4.465a.707.707 0 0 1-.05-.991.69.69 0 0 1 .98-.054l11.019 10.007a1.565 1.565 0 0 0 2.06 0L29.213 3.42a.688.688 0 0 1 .981.054zm-.072 17.17c.295.249.335.691.09.989a.69.69 0 0 1-.979.092l-7.381-6.2a.706.706 0 0 1-.09-.989.69.69 0 0 1 .98-.092zM12.57 14.536a.706.706 0 0 1-.09.988l-7.382 6.2a.693.693 0 0 1-.978-.091.706.706 0 0 1 .09-.989l7.38-6.2a.689.689 0 0 1 .98.092zM34 3.845v17.437c0 2.158-1.777 3.914-3.961 3.914H4.59c-2.215 0-3.95-1.72-3.95-3.914V3.845c0-2.197 1.735-3.917 3.95-3.917H30.04C32.223-.072 34 1.685 34 3.845zm-1.39 0c0-1.41-1.13-2.514-2.571-2.514H4.59c-1.436 0-2.56 1.105-2.56 2.514v17.437c0 1.408 1.124 2.51 2.56 2.51H30.04c1.442 0 2.57-1.102 2.57-2.51z"/></g></g></svg>