<svg xmlns="http://www.w3.org/2000/svg" width="34" height="33" viewBox="0 0 34 33"><g><g><path fill="#444848" d="M6.332 18.451c-.406-1.44-2.58-4.67-3.97-6.558.249 1.796.05 3.703-.144 5.563-.425 4.097-.827 7.966 3.291 10.484l.11.051c1.709.858 3.643 1.822 7.572 1.558.38-.052.715.263.744.645a.696.696 0 0 1-.649.739c-.486.033-.946.049-1.38.049-3.422 0-5.338-.961-6.916-1.752l-.159-.081c-4.916-3.002-4.43-7.695-4-11.835.256-2.472.499-4.809-.231-6.805a.96.96 0 0 1 .328-1.107.982.982 0 0 1 1.173-.01c.486.363 3.482 4.41 4.906 7.133.277-1.058.444-2.445.615-3.886C8.15 8.205 8.807 2.687 13.085.133a.979.979 0 0 1 .987-.01.974.974 0 0 1 .498.846c0 5.178.376 8.95 1.145 11.438.868-2.117 2.676-5.34 5.776-5.852a.963.963 0 0 1 1.01.474.957.957 0 0 1-.108 1.122c-1.84 2.134-.929 6.133-.452 7.754a.692.692 0 0 1-.473.86.696.696 0 0 1-.865-.47c-.588-1.996-1.274-5.466.04-8.015-2.26 1.13-3.68 4.343-4.203 6.29a.698.698 0 0 1-1.291.143c-1.296-2.452-1.925-6.583-1.971-12.968C10.04 4.13 9.47 8.915 9.006 12.803c-.291 2.455-.545 4.575-1.374 5.824a.687.687 0 0 1-.344.27.752.752 0 0 1-.58-.026c-.173-.087-.324-.234-.376-.42zm22.897 5.501v2.773h3.339c.385 0 .697.31.697.693a.695.695 0 0 1-.697.693h-7.524v2.773h7.524c.385 0 .697.31.697.694a.695.695 0 0 1-.697.693H15.977a.695.695 0 0 1-.698-.693V19.1c0-.384.312-.693.698-.693h16.59c.386 0 .698.31.698.693a.695.695 0 0 1-.697.693h-7.524v2.773h7.524c.385 0 .697.31.697.693a.695.695 0 0 1-.697.693zm-12.555-1.386h6.975v-2.773h-6.975zm2.79 1.386h-2.79v2.773h2.79zm4.185 4.159h-6.975v2.773h6.975zm4.185-4.159h-6.975v2.773h6.975z"/></g></g></svg>