<svg xmlns="http://www.w3.org/2000/svg" width="34" height="29" viewBox="0 0 34 29"><g><g><path fill="#444848" d="M33.397 1.206V9.79a.71.71 0 0 1-.184.477l-1.206 1.313v16.298c0 .388-.31.702-.695.702H2.122a.698.698 0 0 1-.695-.702V11.58L.22 10.268a.711.711 0 0 1-.184-.477V1.206c0-.388.31-.702.695-.702h2.78c.384 0 .695.314.695.702 0-.388.31-.702.695-.702h2.78c.384 0 .695.314.695.702 0-.388.311-.702.695-.702h2.78c.384 0 .695.314.695.702V9.79a.71.71 0 0 1-.185.477l-1.205 1.313v2.961h11.12V11.58l-1.205-1.313a.71.71 0 0 1-.185-.477V1.206c0-.388.311-.702.695-.702h2.78c.384 0 .695.314.695.702 0-.388.311-.702.695-.702h2.78c.384 0 .695.314.695.702 0-.388.311-.702.695-.702h2.78c.384 0 .695.314.695.702zm-30.58 10.1v15.87h6.95v-15.87c0-.177.067-.347.185-.477l1.205-1.313V1.908h-1.39v.702c0 .388-.31.702-.695.702h-1.39a.698.698 0 0 1-.695-.702v-.702h-1.39v.702c0 .388-.31.702-.695.702h-1.39a.698.698 0 0 1-.695-.702v-.702h-1.39v7.608l1.205 1.313c.119.13.185.3.185.477zm8.34 15.87h2.78V23.12c0-1.568 1.121-2.81 2.589-2.918.05-.006.1-.008.152-.006a.95.95 0 0 1 .152.006c1.489.107 2.667 1.375 2.667 2.918v4.058h2.78v-11.23h-11.12zm6.95-4.057c0-.821-.636-1.492-1.43-1.52-.773.028-1.35.671-1.35 1.52v4.058h2.78zm13.9-21.211h-1.39v.702c0 .388-.31.702-.695.702h-1.39a.698.698 0 0 1-.695-.702v-.702h-1.39v.702c0 .388-.31.702-.695.702h-1.39a.698.698 0 0 1-.695-.702v-.702h-1.39v7.608l1.206 1.313c.118.13.184.3.184.477v15.87h6.95v-15.87c0-.177.067-.347.185-.477l1.205-1.313zm-2.78 10.515v2.822c0 .387-.31.701-.695.701h-2.78a.698.698 0 0 1-.695-.701v-2.822c0-1.146.925-2.078 2.062-2.078 1.145 0 2.108.951 2.108 2.078zm-1.39 0c0-.36-.334-.675-.714-.675a.683.683 0 0 0-.676.675v2.119h1.39zm-23.63 2.822v-2.822c0-1.127.96-2.078 2.095-2.078 1.16 0 2.075.932 2.075 2.078v2.822c0 .387-.31.701-.695.701h-2.78a.698.698 0 0 1-.695-.701zm1.39-.703h1.39v-2.12a.664.664 0 0 0-.65-.674c-.41 0-.74.316-.74.675z"/></g></g></svg>