<svg xmlns="http://www.w3.org/2000/svg" width="34" height="24" viewBox="0 0 34 24"><g><g><path fill="#444848" d="M12.48 7.982c0 .38-.312.69-.697.69H4.865a.693.693 0 0 1-.697-.69c0-.382.312-.69.697-.69h6.918c.385 0 .697.308.697.69zm0 4.14c0 .381-.312.69-.697.69H4.865a.693.693 0 0 1-.697-.69c0-.382.312-.69.697-.69h6.918c.385 0 .697.308.697.69zm0 4.14c0 .381-.312.69-.697.69H4.865a.693.693 0 0 1-.697-.69c0-.382.312-.69.697-.69h6.918c.385 0 .697.308.697.69zm16.71-8.28c0 .38-.31.69-.696.69h-6.88a.693.693 0 0 1-.696-.69c0-.382.312-.69.697-.69h6.879c.385 0 .697.308.697.69zm0 4.14c0 .381-.31.69-.696.69h-6.88a.693.693 0 0 1-.696-.69c0-.382.312-.69.697-.69h6.879c.385 0 .697.308.697.69zm0 4.14c0 .381-.31.69-.696.69h-6.88a.693.693 0 0 1-.696-.69c0-.382.312-.69.697-.69h6.879c.385 0 .697.308.697.69zm4.16-13.214v20.228a.687.687 0 0 1-.275.549.7.7 0 0 1-.606.117c-1.254-.34-4.61-.595-7.806-.595-2.845 0-4.892.206-7.896.614a.744.744 0 0 1-.189 0c-3.004-.408-5.05-.614-7.896-.614-3.195 0-6.551.255-7.805.595a.702.702 0 0 1-.606-.117.687.687 0 0 1-.274-.549V3.048c0-2.045 4.362-2.963 8.685-2.963 3.288 0 6.593.532 7.99 1.685C18.072.617 21.376.085 24.664.085c4.323 0 8.687.918 8.687 2.963zM8.682 21.966c2.667 0 4.642.175 7.294.52V3.049c-.05-.473-2.592-1.583-7.294-1.583-4.7 0-7.242 1.11-7.292 1.584v19.376c1.871-.313 4.926-.46 7.292-.46zM31.956 3.048c-.05-.473-2.593-1.583-7.293-1.583-4.701 0-7.243 1.11-7.293 1.584v19.438c2.651-.346 4.626-.521 7.293-.521 2.367 0 5.422.146 7.293.46z"/></g></g></svg>