<svg xmlns="http://www.w3.org/2000/svg" viewBox="0 0 512 473.16"><title>rew</title><g id="Слой_2" data-name="Слой 2"><g id="Слой_1-2" data-name="Слой 1"><path d="M0,279V35c.22-.24.55-.45.64-.73C7.54,10.57,21.57,0,46.21,0Q200.16,0,354.1,0A79.64,79.64,0,0,1,365.56.6C381.92,3,400.75,17.92,400.64,44.53c-.33,75.3-.1,150.61-.16,225.91a53.78,53.78,0,0,1-1.12,11.9c-4.55,19.68-21.29,32.5-42.43,32.53q-75.72.09-151.45-.06a9.56,9.56,0,0,0-8.44,4c-7,8.88-14.31,17.56-21.52,26.31q-26.37,32-52.79,64c-5.11,6.17-11.59,8.1-18.23,5.65-5.91-2.19-8.57-6.82-10-12.71-6.73-27.31-13.74-54.56-20.35-81.9-1-4.33-2.91-5.46-7.08-5.31-8.48.3-17,.19-25.49,0a41.92,41.92,0,0,1-28.82-12C5.78,296.31,2.33,288,0,279ZM135.87,227.7c-.44,12.81,11.68,20.42,22.71,14.85,12.49-6.29,24.85-12.84,37.13-19.53,3.29-1.79,5.86-1.87,9.18,0,11.53,6.34,23.3,12.22,34.84,18.52,6.38,3.48,12.59,4.48,18.73-.06,5.93-4.39,7-10.45,5.69-17.41-2.41-12.93-4.46-25.93-6.88-38.85-.73-3.85.21-6.5,3.08-9.2,10-9.49,19.89-19.21,29.73-28.92,4.52-4.45,6.2-9.84,4.16-16s-6.41-9.5-12.77-10.45c-14-2.08-28-4.34-42-6.23-3.22-.43-5-1.65-6.39-4.52C227.15,97.56,221,85.39,215,73.12c-3-6.15-7.29-10.3-14.54-10.37-7.48-.08-11.86,4.15-14.94,10.5-6,12.28-12,24.55-18.3,36.64a9.25,9.25,0,0,1-5.82,4.24c-13.29,2.27-26.65,4.17-40,6-7.13,1-12.87,3.73-15.14,11.06-2.17,7,.59,12.59,5.7,17.44,8.44,8,16.37,16.66,25.22,24.22,5.68,4.86,7,9.6,5.39,16.79C139.68,202.48,137.94,215.55,135.87,227.7Z"/><path d="M512,381c-2.42,7.13-5.37,13.89-11.42,18.89-7.34,6.07-15.76,8.1-25.11,8-10-.13-7.66-1.63-10.2,8-3.82,14.49-7.33,29.06-10.89,43.62-1.63,6.66-5.07,11.68-12.06,13.23s-12.16-1.44-16.54-6.8c-14.86-18.2-29.92-36.24-44.77-54.44a9.29,9.29,0,0,0-8-3.79c-31.83.13-63.66.09-95.49.07-22.45,0-35.72-13.28-35.78-35.75,0-8.48,0-17,0-26.39h6.53c36.33,0,72.67.13,109,0,35.36-.16,64.39-22.83,72.09-56.36a87.84,87.84,0,0,0,1.82-18.83c.2-23.66.08-47.33.08-71V193h7.5c13.17,0,26.33-.06,39.5,0,16.66.1,28.33,9.1,32.93,25.23A10.69,10.69,0,0,0,512,220Z"/><path d="M200.27,112.78c3.41,6.93,6.48,12.56,9,18.44,3.21,7.47,8.41,11.55,16.66,12.21,6.46.52,12.84,1.85,20.64,3-3.37,3.42-5.72,6.62-8.8,8.79-12.12,8.53-15.59,19.56-11,33.55,1.12,3.4,1.18,7.15,1.91,12-4.17-2.12-7.47-3.74-10.71-5.47-17.71-9.43-17.7-9.44-35.23,0-3.35,1.79-6.73,3.54-11,5.8,1.31-8,2.29-15.23,3.7-22.32,1.3-6.52-.56-11.74-5.2-16.29-5.1-5-10.07-10.12-15.82-15.92,7.48-1.15,14.24-2.43,21.07-3.17,7.59-.81,12.47-4.66,15.5-11.57C193.63,125.73,196.76,119.91,200.27,112.78Z"/></g></g></svg>