<svg xmlns="http://www.w3.org/2000/svg" viewBox="0 0 512 512"><title>search</title><g id="Слой_2" data-name="Слой 2"><g id="Слой_1-2" data-name="Слой 1"><path d="M0,224V197c.39-3.09.8-6.18,1.17-9.28,5.28-45,22.69-84.63,53.13-118.2,31.64-34.87,70.69-57,117.1-65.7C179.87,2.23,188.46,1.26,197,0h27c10.5,1.63,21.12,2.74,31.49,5,130.3,28.26,201.78,170.1,147,291.63-4.56,10.12-10.21,19.74-15.45,29.79.28.31.69.81,1.15,1.27,34.42,34.41,68.72,68.92,103.32,103.14,9.38,9.27,17.86,18.79,20.53,32.19v12c-2.09,7.9-4.7,15.5-10.17,21.89-7.14,8.35-16.4,12.71-26.83,15.11H463c-13.39-2.66-22.9-11.15-32.17-20.52-33.72-34.1-67.75-67.91-101.67-101.81-1-1-2.12-2-3-2.84a7,7,0,0,0-1.3.42c-1.14.68-2.26,1.4-3.39,2.1A205.31,205.31,0,0,1,233,419.77c-46.49,4.78-90.27-4.27-130.25-28.59C49.36,358.68,16.23,311.48,3.88,250,2.15,241.43,1.27,232.68,0,224ZM210.5,73C134.67,73,73.09,134.45,73,210.23A137.5,137.5,0,1,0,210.5,73Z"/></g></g></svg>