<svg xmlns="http://www.w3.org/2000/svg" viewBox="0 0 512 512"><title>statistics</title><g id="Слой_2" data-name="Слой 2"><g id="Слой_1-2" data-name="Слой 1"><path d="M0,493c4-8.66,10.85-11.95,20.15-11.05,3.43.33,6.91.05,10.85.05V318.18C31,305.48,36.53,300,49.3,300q27.49,0,55,0C115,300,121,306.07,121,316.78q0,79.25,0,158.49v6.35h30V378.37c0-12.81,5.48-18.36,18.11-18.37h54.5c11.63,0,17.38,5.82,17.39,17.59q0,49.25,0,98.5v5.64h30V258.56c0-13.12,5.4-18.56,18.42-18.56h53.5c12.44,0,18.08,5.57,18.08,17.9V481.66h30V168.76c0-13.42,5.32-18.76,18.72-18.76h53.49c12.07,0,17.79,5.68,17.79,17.7V482c3.71,0,7.31.28,10.86-.05,9.29-.88,16.17,2.37,20.14,11.05v8a23.09,23.09,0,0,1-11,11H11A23,23,0,0,1,0,501Z"/><path d="M442,0c6.82,2.9,14.36,4.77,20.34,8.9,19.33,13.34,24.25,39.5,12,59.5a44.46,44.46,0,0,1-58.91,16.4c-3.62-1.92-5.76-1.45-8.73.83q-22.24,17-44.76,33.61c-2.29,1.69-2.94,3.11-2.27,6.14,3.77,17.09-1.06,31.84-14.1,43.29-13.2,11.58-28.58,14.39-45.2,8.23-2.82-1-4.45-.69-6.5,1.37q-27.11,27.33-54.44,54.44c-2.23,2.21-2.57,3.95-1.45,6.91a44.1,44.1,0,0,1-11.55,48.45A44.77,44.77,0,0,1,177.59,296c-16.75-7.7-27.21-24.15-26.42-42.3.15-3.49-1-5-3.88-6.38-12-5.81-23.91-11.72-35.73-17.84-3.07-1.59-5-1.5-7.9.7C88.8,241.51,72.52,243.45,55.84,235s-25-22.66-24.74-41.33c.28-24.48,21.24-44.13,46-43.65,24.32.47,44.41,21.12,43.71,45.39-.11,4,.94,5.85,4.44,7.53,12.15,5.81,24.17,11.92,36.18,18.05,2.39,1.22,3.94,1.09,6.16-.67,13.47-10.62,28.35-13.1,44.63-7.27a6.33,6.33,0,0,0,5.43-1.17c18.52-18.25,36.83-36.7,55.29-55,2-2,2.13-3.52,1.18-6.09-6.75-18-2-37,12.22-49.56s33.94-14.8,51.19-5.57c2.61,1.4,4.25,1.37,6.62-.43,15.24-11.6,30.66-23,45.87-34.62,1.33-1,2.57-3.54,2.27-5C387.07,29.14,401.49,6.69,427.69.85A18.36,18.36,0,0,0,430,0Z"/></g></g></svg>