<svg xmlns="http://www.w3.org/2000/svg" viewBox="0 0 512 512"><title>web</title><g id="Слой_2" data-name="Слой 2"><g id="Слой_1-2" data-name="Слой 1"><path d="M512,244v24c-.67,6.09-1.31,12.18-2,18.27a248.77,248.77,0,0,1-30.52,94.23,254.52,254.52,0,0,1-88.66,92.88,248.13,248.13,0,0,1-98.1,35.76c-7.88,1.09-15.81,1.91-23.71,2.86H243a32.53,32.53,0,0,0-3.87-.73c-41.62-2.66-80.56-14.48-115.78-36.63C55.45,431.94,14.71,370.9,2.75,291.2,1.59,283.5.9,275.74,0,268V244c.67-6.09,1.31-12.17,2-18.26A249.11,249.11,0,0,1,32.53,131.5a254.68,254.68,0,0,1,88.66-92.88,248.78,248.78,0,0,1,98.1-35.78C227.17,1.74,235.09.94,243,0h26q8.64,1,17.28,2a247.75,247.75,0,0,1,87.65,27,254.15,254.15,0,0,1,95.4,85.93,247.92,247.92,0,0,1,39.76,104.42C510.22,227.52,511,235.77,512,244ZM161.09,316.65a746.46,746.46,0,0,1,0-121.38H45.31c-11.34,40.62-11.42,81,0,121.38ZM466.73,195.49H350.89A738.81,738.81,0,0,1,351,316.61H466.71A220.24,220.24,0,0,0,466.73,195.49ZM198,316.63H314.07A671.85,671.85,0,0,0,314,195.37H198A674.62,674.62,0,0,0,198,316.63ZM309.19,158.09a15.32,15.32,0,0,0,0-2.17c-4.83-30.33-11.83-60-25-88-4.63-9.81-10-19.21-18.34-26.51-6.87-6-13.09-6.49-19.39,0a96.15,96.15,0,0,0-14.71,19.33C218.3,84.72,211.51,111,206.05,137.6c-1.38,6.74-2.41,13.54-3.63,20.49ZM202.36,353.87c5.45,32.75,12.21,64.46,27.42,93.55a112.4,112.4,0,0,0,16.87,23.24c5.93,6.49,12.71,6.33,18.85-.05a97.46,97.46,0,0,0,14.72-19.32C292.94,428.75,299.68,404,305,378.9c1.73-8.21,3.13-16.48,4.74-25ZM59.5,158.38H154c11.47,0,11.21,0,13.1-11.24,5.8-34.38,13.93-68.08,29.86-99.43.39-.76.59-1.61,1.23-3.39C135.68,63.06,90.19,100.65,59.5,158.38ZM313.92,45.16c2.21,4.65,4.29,8.81,6.17,13.05,13.43,30.36,20.76,62.4,25.75,95,.67,4.38,2.33,5.25,6.38,5.23,31.47-.15,62.94-.09,94.41-.09h5C436.45,113.21,360.76,51,313.92,45.16ZM198.52,467.79c-2.59-5.45-4.68-9.58-6.55-13.81-13.41-30.36-20.76-62.39-25.8-95-.64-4.13-1.88-5.48-6.18-5.46-31.64.19-63.28.1-94.92.12-1.54,0-3.09.21-5.36.38C90.18,411.34,135.67,448.94,198.52,467.79Zm116-.93c61.76-17.94,107.34-55.53,137.64-112.69a16.21,16.21,0,0,0-2.54-.52q-49.71,0-99.41-.08c-2.78,0-3.75,1.13-4.14,3.69C340.32,395.05,331.63,432,314.55,466.86Z"/></g></g></svg>